<svg width="16" height="12" viewBox="0 0 16 12" fill="none" xmlns="http://www.w3.org/2000/svg">
<path d="M14.9635 5.30854L10.2969 0.350205C10.1711 0.221176 10.0027 0.14978 9.82792 0.151394C9.65312 0.153008 9.48591 0.227503 9.36231 0.358833C9.2387 0.490164 9.16859 0.667823 9.16707 0.853546C9.16555 1.03927 9.23275 1.21819 9.35419 1.35179L12.8829 5.101H1.15885C0.982043 5.101 0.812474 5.17562 0.68745 5.30846C0.562425 5.4413 0.492188 5.62147 0.492188 5.80933C0.492188 5.99719 0.562425 6.17736 0.68745 6.3102C0.812474 6.44304 0.982043 6.51766 1.15885 6.51766H12.8829L9.35419 10.2669C9.29051 10.3322 9.23973 10.4104 9.20479 10.4968C9.16985 10.5832 9.15146 10.6762 9.15069 10.7702C9.14992 10.8643 9.16679 10.9575 9.20031 11.0446C9.23383 11.1316 9.28333 11.2107 9.34592 11.2772C9.40852 11.3437 9.48295 11.3963 9.56489 11.432C9.64682 11.4676 9.7346 11.4855 9.82312 11.4847C9.91164 11.4839 9.99912 11.4643 10.0805 11.4272C10.1618 11.3901 10.2354 11.3361 10.2969 11.2685L14.9635 6.31012C15.0885 6.17729 15.1587 5.99715 15.1587 5.80933C15.1587 5.6215 15.0885 5.44137 14.9635 5.30854Z" fill="white"/>
</svg>
