<svg width="20" height="12" viewBox="0 0 20 12" fill="none" xmlns="http://www.w3.org/2000/svg">
<g clip-path="url(#clip0_6_6)">
<path d="M16.5898 5.42356L11.6947 0.528513C11.5815 0.415205 11.4303 0.352783 11.2692 0.352783C11.108 0.352783 10.9569 0.415205 10.8437 0.528513L10.4832 0.888917C10.2486 1.12376 10.2486 1.50545 10.4832 1.73993L14.5937 5.8505L10.4786 9.96563C10.3654 10.0789 10.3029 10.23 10.3029 10.3911C10.3029 10.5523 10.3654 10.7033 10.4786 10.8167L10.8391 11.1771C10.9524 11.2904 11.1035 11.3528 11.2646 11.3528C11.4258 11.3528 11.5769 11.2904 11.6901 11.1771L16.5898 6.27753C16.7033 6.16387 16.7656 6.0121 16.7653 5.85077C16.7656 5.68881 16.7033 5.53714 16.5898 5.42356Z" fill="white"/>
</g>
<g clip-path="url(#clip1_6_6)">
<path d="M8.58983 5.42356L3.69469 0.528513C3.58147 0.415205 3.43033 0.352783 3.26918 0.352783C3.10803 0.352783 2.95689 0.415205 2.84367 0.528513L2.48318 0.888917C2.2486 1.12376 2.2486 1.50545 2.48318 1.73993L6.59375 5.8505L2.47862 9.96563C2.3654 10.0789 2.30289 10.23 2.30289 10.3911C2.30289 10.5523 2.3654 10.7033 2.47862 10.8167L2.83911 11.1771C2.95242 11.2904 3.10347 11.3528 3.26462 11.3528C3.42577 11.3528 3.57691 11.2904 3.69013 11.1771L8.58983 6.27753C8.70331 6.16387 8.76565 6.0121 8.76529 5.85077C8.76565 5.68881 8.70331 5.53714 8.58983 5.42356Z" fill="white"/>
</g>
<defs>
<clipPath id="clip0_6_6">
<rect width="11" height="11" fill="white" transform="translate(8.03409 0.352783)"/>
</clipPath>
<clipPath id="clip1_6_6">
<rect width="11" height="11" fill="white" transform="translate(0.0340881 0.352783)"/>
</clipPath>
</defs>
</svg>
