<svg width="49" height="49" viewBox="0 0 49 49" fill="none" xmlns="http://www.w3.org/2000/svg">
<g clip-path="url(#clip0_72_1038)">
<path d="M26.4952 3.95808C27.0494 3.22354 26.9603 1.66555 26.8814 0.29119C26.8784 0.23195 26.8751 0.174012 26.8718 0.115173C26.0949 0.0409971 25.3086 0 24.5127 0C21.463 0 18.5448 0.561831 15.8516 1.58034C17.7728 2.50363 20.7468 4.0928 24.0524 6.44086C25.1803 5.47026 26.0309 4.57424 26.4952 3.95808Z" fill="white"/>
<path d="M38.9085 17.938C37.7009 18.0745 36.6825 18.2726 35.8115 18.5506C39.9751 25.82 41.5984 35.0041 41.9957 41.6575C46.1205 37.4548 48.74 31.7732 48.9876 25.4799C46.1455 21.9864 42.3804 17.5442 38.9085 17.938Z" fill="white"/>
<path d="M14.1571 11.6633C17.0825 11.0545 19.8309 9.58216 22.0223 8.02797C17.4507 4.87931 13.6377 3.24524 12.8792 2.9342C8.13624 5.49818 4.34084 9.58336 2.13281 14.5332C5.00281 13.3897 8.11108 12.8079 11.164 12.2411C12.1517 12.0576 13.1726 11.8681 14.1571 11.6633Z" fill="white"/>
<path d="M31.0908 12.3756C31.3519 12.638 31.6124 12.9049 31.871 13.1769C32.8253 14.1788 33.6913 15.2746 34.4854 16.4339C35.6418 15.9973 37.0032 15.6876 38.6329 15.5034C42.4727 15.0691 45.887 18.1108 48.8174 21.4595C48.1891 16.383 46.0119 11.7884 42.7677 8.16492C40.9969 8.37832 39.0227 8.73988 37.0105 9.3403C35.6906 9.73454 33.5885 10.8057 31.0908 12.3756Z" fill="white"/>
<path d="M27.867 25.0281C28.8719 21.6246 30.0359 19.1711 32.291 17.5785C31.6142 16.6069 30.8859 15.695 30.0969 14.8667C29.732 14.4833 29.3629 14.1132 28.9922 13.7495C19.9445 19.908 7.5508 31.2209 6.42383 41.0227C10.1857 45.1387 15.3341 47.9614 21.1299 48.7622C23.2402 44.5607 25.2264 36.0196 26.407 30.9398C26.9742 28.5 27.4638 26.3933 27.867 25.0281Z" fill="white"/>
<path d="M17.6089 19.6308C20.7636 16.7238 24.0951 14.117 27.1422 12.022C26.1265 11.1233 25.1077 10.295 24.1075 9.53528C21.5766 11.4378 18.2629 13.3116 14.656 14.0618C13.6459 14.272 12.6115 14.4642 11.6116 14.6498C7.75865 15.3653 4.06009 16.0582 0.949715 17.7936C0.34398 19.9258 0.0126953 22.1737 0.0126953 24.5C0.0126953 29.7041 1.64035 34.5258 4.40701 38.4936C6.19935 31.3971 12.3471 24.4794 17.6089 19.6308Z" fill="white"/>
<path d="M29.2529 10.6227C32.1676 8.76448 34.6804 7.47963 36.3108 6.99298C37.7749 6.55575 39.2111 6.23729 40.5711 6.00504C37.4283 3.27407 33.5867 1.32766 29.3459 0.479248C29.4399 2.1903 29.4809 4.06885 28.4516 5.43369C27.9625 6.08182 27.1351 6.97073 26.0586 7.93511C27.1129 8.75576 28.1843 9.65068 29.2529 10.6227Z" fill="white"/>
<path d="M30.2173 25.7219C29.8348 27.0178 29.3523 29.0924 28.7941 31.4944C27.1458 38.5867 25.5685 44.9329 23.7266 48.98C23.9881 48.9883 24.2495 49 24.513 49C30.2229 49 35.4718 47.0414 39.6374 43.767C39.4729 36.8044 37.8037 26.9561 33.5993 19.6455C31.9686 20.8575 31.0909 22.7641 30.2173 25.7219Z" fill="white"/>
</g>
<defs>
<clipPath id="clip0_72_1038">
<rect width="49" height="49" fill="white"/>
</clipPath>
</defs>
</svg>
