<svg width="14" height="16" viewBox="0 0 14 16" fill="none" xmlns="http://www.w3.org/2000/svg">
<path d="M6.99637 4.36364C7.69954 4.36364 8.26911 3.71274 8.26911 2.90908C8.26911 2.63635 8.20229 2.37818 8.08775 2.16L6.99637 0L5.905 2.16C5.79045 2.37818 5.72363 2.63635 5.72363 2.90908C5.72363 3.71274 6.2932 4.36364 6.99637 4.36364Z" fill="white"/>
<path d="M10.815 6.54538H7.63316V5.09082H6.36042V6.54538H3.17862C2.12543 6.54538 1.26953 7.52355 1.26953 8.7272V9.84719C1.26953 10.6326 1.82952 11.2726 2.51679 11.2726C2.85089 11.2726 3.16269 11.1236 3.39817 10.8544L4.75998 9.3017L6.11863 10.8508C6.58954 11.389 7.41046 11.389 7.88134 10.8508L9.24315 9.3017L10.6018 10.8508C10.8372 11.1199 11.1491 11.269 11.4832 11.269C12.1704 11.269 12.7304 10.629 12.7304 9.84354V8.7272C12.7241 7.52355 11.8682 6.54538 10.815 6.54538Z" fill="white"/>
<path d="M9.92091 11.6256L9.23683 10.8438L8.54956 11.6256C7.7191 12.5746 6.26819 12.5746 5.43774 11.6256L4.75362 10.8438L4.06635 11.6256C3.6559 12.1019 3.10545 12.3637 2.51679 12.3637C2.05542 12.3637 1.62588 12.1964 1.26953 11.9165V15.2728C1.26953 15.6728 1.5559 16.0001 1.90589 16.0001H12.0877C12.4377 16.0001 12.7241 15.6728 12.7241 15.2728V11.9165C12.3677 12.1965 11.9413 12.3638 11.4768 12.3638C10.8882 12.3638 10.3377 12.1019 9.92091 11.6256Z" fill="white"/>
</svg>
