<svg width="38" height="35" viewBox="0 0 38 35" fill="none" xmlns="http://www.w3.org/2000/svg">
<g clip-path="url(#clip0_45_3403)">
<path d="M15.9115 14.2014V9.93115H0L1.97221 13.3462C2.27764 13.8756 2.84196 14.2014 3.45282 14.2014H15.9115Z" fill="url(#paint0_linear_45_3403)"/>
<path d="M3.08545 15.2748L5.05766 18.6898C5.36309 19.2192 5.92741 19.545 6.53827 19.545H15.9121V15.2748H3.08545Z" fill="url(#paint1_linear_45_3403)"/>
<path style="mix-blend-mode:multiply" d="M1.51416 12.0676L2.1832 13.2254C2.44354 13.6777 2.93078 13.9584 3.45292 13.9584H15.6672V12.0676H1.51416Z" fill="url(#paint2_linear_45_3403)"/>
<path style="mix-blend-mode:multiply" d="M4.59912 17.4099L5.26816 18.5676C5.5285 19.02 6.01574 19.3007 6.53788 19.3007H15.6673V17.4099H4.59912Z" fill="url(#paint3_linear_45_3403)"/>
<path d="M21.8906 14.2014V9.93115H37.8021L35.8299 13.3462C35.5245 13.8756 34.9602 14.2014 34.3493 14.2014H21.8906Z" fill="url(#paint4_linear_45_3403)"/>
<path d="M34.7173 15.2748L32.7451 18.6898C32.4396 19.2192 31.8753 19.545 31.2644 19.545H21.8906V15.2748H34.7173Z" fill="url(#paint5_linear_45_3403)"/>
<path style="mix-blend-mode:multiply" d="M36.2859 12.0676L35.6169 13.2254C35.3565 13.6777 34.8693 13.9584 34.3471 13.9584H22.1328V12.0676H36.2844H36.2859Z" fill="url(#paint6_linear_45_3403)"/>
<path style="mix-blend-mode:multiply" d="M33.201 17.4099L32.532 18.5676C32.2717 19.02 31.7844 19.3007 31.2623 19.3007H22.1328V17.4099H33.201Z" fill="url(#paint7_linear_45_3403)"/>
<path d="M9.38916 15.1817V25.975C9.38916 26.4942 9.66696 26.9742 10.1164 27.2345L18.1739 31.8873C18.6233 32.1476 19.1789 32.1476 19.6284 31.8873L27.6859 27.2345C28.1353 26.9742 28.4131 26.4942 28.4131 25.975V15.1817C28.4131 14.3788 27.7615 13.7272 26.9587 13.7272H10.8436C10.0407 13.7272 9.38916 14.3788 9.38916 15.1817Z" fill="url(#paint8_linear_45_3403)"/>
<path d="M27.6869 4.84799L19.6293 0.195258C19.1799 -0.0650858 18.6243 -0.0650858 18.1749 0.195258L10.1174 4.84799C9.66793 5.10833 9.39014 5.58829 9.39014 6.10752V16.9009C9.39014 17.7037 10.0417 18.3553 10.8446 18.3553H26.9611C27.764 18.3553 28.4156 17.7037 28.4156 16.9009V6.10752C28.4156 5.58829 28.1378 5.10833 27.6883 4.84799H27.6869Z" fill="url(#paint9_linear_45_3403)"/>
<path d="M18.318 0.446884L10.259 5.09961C9.89977 5.30614 9.67725 5.69302 9.67725 6.10753V16.9009C9.67725 17.5423 10.1994 18.0644 10.8408 18.0644H18.8983V0.29126C18.6947 0.29126 18.494 0.345074 18.3166 0.446884H18.318Z" fill="url(#paint10_linear_45_3403)"/>
<path d="M10.583 14.7382V25.5708C10.583 25.9489 10.7852 26.2994 11.1124 26.4885L18.3715 30.6787C18.6987 30.8678 19.1031 30.8678 19.4318 30.6787L26.6894 26.4885C27.0166 26.2994 27.2188 25.9489 27.2188 25.5708V14.7382H10.583Z" fill="url(#paint11_linear_45_3403)"/>
<path d="M13.0674 14.7382V30.862C13.0674 31.2401 13.2695 31.5907 13.5968 31.7797L18.3702 34.5359C18.6975 34.725 19.1018 34.725 19.4305 34.5359L24.204 31.7797C24.5312 31.5907 24.7334 31.2401 24.7334 30.862V14.7382H13.0674Z" fill="url(#paint12_linear_45_3403)"/>
<path d="M13.3584 15.0291V30.862C13.3584 31.1354 13.5053 31.3914 13.7424 31.5281L18.5158 34.2843C18.6322 34.3512 18.766 34.3875 18.8998 34.3875V15.0291H13.3569H13.3584Z" fill="url(#paint13_linear_45_3403)"/>
<path d="M30.2545 20.5805V8.89709C30.2545 8.4564 30.0188 8.04916 29.6378 7.82808L19.5178 1.98563C19.1368 1.76456 18.6655 1.76456 18.2845 1.98563L8.166 7.82808C7.78493 8.04916 7.54932 8.4564 7.54932 8.89709V20.5805C7.54932 21.0212 7.78493 21.4285 8.166 21.6495L18.2845 27.492C18.6655 27.7131 19.1368 27.7131 19.5178 27.492L29.6363 21.6495C30.0174 21.4285 30.253 21.0212 30.253 20.5805H30.2545Z" fill="url(#paint14_linear_45_3403)"/>
<path d="M28.4146 19.7559V9.7218C28.4146 9.428 28.2575 9.15603 28.003 9.00913L19.3127 3.99134C19.0582 3.84444 18.7441 3.84444 18.4895 3.99134L9.7993 9.00913C9.54477 9.15603 9.3877 9.428 9.3877 9.7218V19.7559C9.3877 20.0497 9.54477 20.3217 9.7993 20.4686L18.4895 25.4864C18.7441 25.6333 19.0582 25.6333 19.3127 25.4864L28.003 20.4686C28.2575 20.3217 28.4146 20.0497 28.4146 19.7559Z" fill="url(#paint15_radial_45_3403)"/>
<path d="M27.2193 19.2832V10.193C27.2193 10.033 27.1349 9.88615 26.9968 9.80761L19.1239 5.26251C18.9857 5.18252 18.8156 5.18252 18.6774 5.26251L10.8046 9.80761C10.6664 9.8876 10.582 10.0345 10.582 10.193V19.2832C10.582 19.4432 10.6664 19.5901 10.8046 19.6687L18.6774 24.2138C18.8156 24.2938 18.9857 24.2938 19.1239 24.2138L26.9968 19.6687C27.1349 19.5887 27.2193 19.4418 27.2193 19.2832Z" fill="url(#paint16_linear_45_3403)"/>
<mask id="mask0_45_3403" style="mask-type:luminance" maskUnits="userSpaceOnUse" x="10" y="5" width="18" height="20">
<path d="M27.2203 19.2832V10.193C27.2203 10.033 27.1359 9.88615 26.9977 9.80761L19.1249 5.26251C18.9867 5.18252 18.8165 5.18252 18.6784 5.26251L10.8055 9.80761C10.6674 9.8876 10.583 10.0345 10.583 10.193V19.2832C10.583 19.4432 10.6674 19.5901 10.8055 19.6687L18.6784 24.2138C18.8165 24.2938 18.9867 24.2938 19.1249 24.2138L26.9977 19.6687C27.1359 19.5887 27.2203 19.4418 27.2203 19.2832Z" fill="white"/>
</mask>
<g mask="url(#mask0_45_3403)">
<g filter="url(#filter0_d_45_3403)">
<path d="M28.7681 8.52777L19.3478 3.08819C19.0714 2.9282 18.7326 2.9282 18.4562 3.08819L9.0344 8.52777C8.75806 8.68775 8.58789 8.98155 8.58789 9.30007V20.1778C8.58789 20.4963 8.75806 20.7901 9.0344 20.9501L18.4548 26.3896C18.7311 26.5496 19.07 26.5496 19.3463 26.3896L28.7667 20.9501C29.043 20.7901 29.2132 20.4963 29.2132 20.1778V9.30007C29.2132 8.98155 29.043 8.68775 28.7667 8.52777H28.7681ZM27.3021 19.3836C27.3021 19.5116 27.2337 19.6294 27.1232 19.692L19.0787 24.336C18.9682 24.4 18.8329 24.4 18.7224 24.336L10.6779 19.692C10.5674 19.628 10.499 19.5102 10.499 19.3836V10.0942C10.499 9.9662 10.5674 9.84839 10.6779 9.78585L18.7224 5.14185C18.8329 5.07785 18.9682 5.07785 19.0787 5.14185L27.1232 9.78585C27.2337 9.84985 27.3021 9.96765 27.3021 10.0942V19.3836Z" fill="#293650"/>
</g>
</g>
<path style="mix-blend-mode:screen" opacity="0.5" d="M18.9007 27.5109C18.7102 27.5109 18.5211 27.46 18.3568 27.3655L8.23829 21.523C7.90232 21.3296 7.69434 20.9674 7.69434 20.5806V8.89565C7.69434 8.50732 7.90232 8.14662 8.23829 7.95318L18.3568 2.11218C18.5226 2.01619 18.7102 1.96674 18.9007 1.96674C19.0913 1.96674 19.2803 2.01764 19.4447 2.11218L29.5632 7.95463C29.8991 8.14807 30.1071 8.50877 30.1071 8.8971V20.5806C30.1071 20.9689 29.8991 21.3296 29.5632 21.523L19.4447 27.3655C19.2789 27.4615 19.0913 27.5109 18.9007 27.5109ZM18.9007 3.73678C18.7306 3.73678 18.5633 3.78187 18.4164 3.86622L9.72618 8.88401C9.42802 9.05709 9.24185 9.37707 9.24185 9.72177V19.7559C9.24185 20.1006 9.42656 20.422 9.72618 20.5936L18.4164 25.6114C18.5633 25.6958 18.7306 25.7409 18.9007 25.7409C19.0709 25.7409 19.2382 25.6958 19.3851 25.6114L28.0753 20.5936C28.3735 20.4206 28.5596 20.1006 28.5596 19.7559V9.72177C28.5596 9.37707 28.3749 9.05564 28.0753 8.88401L19.3851 3.86622C19.2382 3.78187 19.0709 3.73678 18.9007 3.73678Z" fill="url(#paint17_linear_45_3403)"/>
<path d="M13.9404 17.6018V11.8743L18.9015 9.0105L23.8626 11.8743V17.6018L18.9015 20.4671L13.9404 17.6018Z" fill="url(#paint18_linear_45_3403)"/>
<g filter="url(#filter1_d_45_3403)">
<path d="M24.5293 11.2519L19.1072 8.12192C18.9806 8.04774 18.8235 8.04774 18.6956 8.12192L13.2734 11.2519C13.1469 11.326 13.0684 11.4613 13.0684 11.6082V17.8695C13.0684 18.0164 13.1469 18.1517 13.2734 18.2259L18.6956 21.3558C18.8221 21.43 18.9792 21.43 19.1072 21.3558L24.5293 18.2259C24.6558 18.1517 24.7344 18.0164 24.7344 17.8695V11.6082C24.7344 11.4613 24.6558 11.326 24.5293 11.2519ZM22.8145 16.8761C22.8145 16.9518 22.7752 17.0201 22.7098 17.0579L19.0068 19.196C18.9414 19.2338 18.8614 19.2338 18.7974 19.196L15.0944 17.0579C15.0289 17.0201 14.9897 16.9518 14.9897 16.8761V12.6001C14.9897 12.5245 15.0289 12.4561 15.0944 12.4183L18.7974 10.2803C18.8628 10.2425 18.9428 10.2425 19.0068 10.2803L22.7098 12.4183C22.7752 12.4561 22.8145 12.5245 22.8145 12.6001V16.8761Z" fill="url(#paint19_linear_45_3403)"/>
<path d="M22.1539 12.8603C22.1335 12.8254 22.1044 12.7963 22.0695 12.776L19.0167 11.0132C18.9803 10.9928 18.941 10.9827 18.9003 10.9827C18.8596 10.9827 18.8203 10.9928 18.784 11.0132L15.7311 12.776C15.6948 12.7963 15.6657 12.8254 15.6468 12.8603C15.6278 12.8952 15.6162 12.9345 15.6162 12.9767V16.5022C15.6162 16.543 15.6278 16.5837 15.6468 16.6186C15.6657 16.6535 15.6962 16.6826 15.7311 16.7029L18.784 18.4657C18.8203 18.4861 18.8596 18.4963 18.9003 18.4963C18.941 18.4963 18.9803 18.4861 19.0167 18.4657L22.0695 16.7029C22.1059 16.6826 22.135 16.6535 22.1539 16.6186C22.1728 16.5837 22.1844 16.5444 22.1844 16.5022V12.9767C22.1844 12.936 22.1728 12.8952 22.1539 12.8603Z" fill="url(#paint20_linear_45_3403)"/>
</g>
<path d="M22.1544 12.8601C22.134 12.8252 22.1049 12.7961 22.07 12.7757L19.0172 11.013C18.9808 10.9926 18.9415 10.9824 18.9008 10.9824C18.8601 10.9824 18.8208 10.9926 18.7845 11.013L15.7316 12.7757C15.6952 12.7961 15.6661 12.8252 15.6472 12.8601C15.6283 12.895 15.6167 12.9343 15.6167 12.9764V16.502C15.6167 16.5427 15.6283 16.5834 15.6472 16.6183C15.6661 16.6533 15.6967 16.6823 15.7316 16.7027L18.7845 18.4655C18.8208 18.4858 18.8601 18.496 18.9008 18.496C18.9415 18.496 18.9808 18.4858 19.0172 18.4655L22.07 16.7027C22.1064 16.6823 22.1355 16.6533 22.1544 16.6183C22.1733 16.5834 22.1849 16.5442 22.1849 16.502V12.9764C22.1849 12.9357 22.1733 12.895 22.1544 12.8601Z" fill="url(#paint21_linear_45_3403)"/>
<path style="mix-blend-mode:screen" d="M20.9126 15.8171V13.6587C20.9126 13.6078 20.885 13.5613 20.8414 13.5366L18.9724 12.4574C18.9288 12.4327 18.875 12.4327 18.8313 12.4574L16.9624 13.5366C16.9187 13.5613 16.8911 13.6093 16.8911 13.6587V15.8171C16.8911 15.868 16.9187 15.9146 16.9624 15.9393L18.8313 17.0185C18.875 17.0432 18.9288 17.0432 18.9724 17.0185L20.8414 15.9393C20.885 15.9146 20.9126 15.8666 20.9126 15.8171Z" fill="url(#paint22_linear_45_3403)"/>
<path style="mix-blend-mode:multiply" opacity="0.3" d="M18.8302 17.0199L16.9613 15.9407C16.9395 15.9276 16.922 15.9102 16.9089 15.8884L15.6479 16.617C15.6683 16.6519 15.6974 16.681 15.7323 16.7014L18.7852 18.4642C18.8215 18.4845 18.8608 18.4947 18.9015 18.4947V17.0388C18.8768 17.0388 18.8521 17.033 18.8302 17.0199Z" fill="url(#paint23_linear_45_3403)"/>
<path style="mix-blend-mode:multiply" opacity="0.6" d="M20.8411 15.9407L18.9721 17.0199C18.9503 17.033 18.9256 17.0388 18.9009 17.0388V18.4947C18.9401 18.4947 18.9809 18.4845 19.0172 18.4642L22.0701 16.7014C22.1064 16.681 22.1355 16.6519 22.1544 16.617L20.8935 15.8884C20.8818 15.9102 20.8629 15.9276 20.8411 15.9407Z" fill="url(#paint24_linear_45_3403)"/>
<path style="mix-blend-mode:screen" d="M16.9613 13.5365L18.8302 12.4573C18.8521 12.4442 18.8768 12.4384 18.9015 12.4384V10.9825C18.8622 10.9825 18.8215 10.9927 18.7852 11.0131L15.7323 12.7759C15.6959 12.7962 15.6669 12.8253 15.6479 12.8602L16.9089 13.5889C16.9206 13.5671 16.9395 13.5496 16.9613 13.5365Z" fill="url(#paint25_linear_45_3403)"/>
<path style="mix-blend-mode:screen" opacity="0.5" d="M18.9721 12.4559L20.8411 13.5351C20.8629 13.5482 20.8804 13.5656 20.8935 13.5874L22.1544 12.8588C22.1341 12.8238 22.105 12.7948 22.0701 12.7744L19.0172 11.0116C18.9809 10.9913 18.9416 10.9811 18.9009 10.9811V12.437C18.9256 12.437 18.9503 12.4428 18.9721 12.4559Z" fill="url(#paint26_linear_45_3403)"/>
<path style="mix-blend-mode:screen" d="M18.9007 21.2656C18.8542 21.2656 18.8076 21.2539 18.7683 21.2307L13.3462 18.1007C13.2648 18.0527 13.2139 17.9655 13.2139 17.8709V11.6096C13.2139 11.5151 13.2648 11.4264 13.3462 11.3798L18.7683 8.24987C18.8091 8.2266 18.8542 8.21497 18.9007 8.21497C18.9472 8.21497 18.9938 8.2266 19.033 8.24987L24.4552 11.3798C24.5366 11.4278 24.5875 11.5151 24.5875 11.6096V17.8709C24.5875 17.9655 24.5366 18.0542 24.4552 18.1007L19.033 21.2307C18.9923 21.2539 18.9472 21.267 18.9007 21.267V21.2656ZM18.9007 10.0577C18.8498 10.0577 18.7989 10.0708 18.7553 10.097L14.9534 12.2917C14.8632 12.3441 14.8079 12.4401 14.8079 12.5434V16.9343C14.8079 17.0376 14.8632 17.135 14.9534 17.1859L18.7553 19.3806C18.7989 19.4068 18.8498 19.4199 18.9007 19.4199C18.9516 19.4199 19.0025 19.4068 19.0461 19.3806L22.848 17.1859C22.9382 17.135 22.9935 17.0376 22.9935 16.9343V12.5434C22.9935 12.4401 22.9382 12.3426 22.848 12.2917L19.0461 10.097C19.0025 10.0708 18.9516 10.0577 18.9007 10.0577Z" fill="url(#paint27_linear_45_3403)"/>
</g>
<defs>
<filter id="filter0_d_45_3403" x="-5.41211" y="-4.0318" width="48.6255" height="51.5414" filterUnits="userSpaceOnUse" color-interpolation-filters="sRGB">
<feFlood flood-opacity="0" result="BackgroundImageFix"/>
<feColorMatrix in="SourceAlpha" type="matrix" values="0 0 0 0 0 0 0 0 0 0 0 0 0 0 0 0 0 0 127 0" result="hardAlpha"/>
<feOffset dy="7"/>
<feGaussianBlur stdDeviation="7"/>
<feColorMatrix type="matrix" values="0 0 0 0 0.0627451 0 0 0 0 0.137255 0 0 0 0 0.247059 0 0 0 0.8 0"/>
<feBlend mode="normal" in2="BackgroundImageFix" result="effect1_dropShadow_45_3403"/>
<feBlend mode="normal" in="SourceGraphic" in2="effect1_dropShadow_45_3403" result="shape"/>
</filter>
<filter id="filter1_d_45_3403" x="5.06836" y="8.06628" width="27.666" height="29.3452" filterUnits="userSpaceOnUse" color-interpolation-filters="sRGB">
<feFlood flood-opacity="0" result="BackgroundImageFix"/>
<feColorMatrix in="SourceAlpha" type="matrix" values="0 0 0 0 0 0 0 0 0 0 0 0 0 0 0 0 0 0 127 0" result="hardAlpha"/>
<feOffset dy="8"/>
<feGaussianBlur stdDeviation="4"/>
<feColorMatrix type="matrix" values="0 0 0 0 0.0627451 0 0 0 0 0.137255 0 0 0 0 0.247059 0 0 0 0.5 0"/>
<feBlend mode="normal" in2="BackgroundImageFix" result="effect1_dropShadow_45_3403"/>
<feBlend mode="normal" in="SourceGraphic" in2="effect1_dropShadow_45_3403" result="shape"/>
</filter>
<linearGradient id="paint0_linear_45_3403" x1="0" y1="12.0677" x2="15.9115" y2="12.0677" gradientUnits="userSpaceOnUse">
<stop stop-color="white"/>
<stop offset="1" stop-color="#95AFDB"/>
</linearGradient>
<linearGradient id="paint1_linear_45_3403" x1="3.08545" y1="17.4099" x2="0.146042" y2="17.4099" gradientUnits="userSpaceOnUse">
<stop stop-color="white"/>
<stop offset="1" stop-color="#95AFDB"/>
</linearGradient>
<linearGradient id="paint2_linear_45_3403" x1="1.51416" y1="13.0116" x2="15.6672" y2="13.0116" gradientUnits="userSpaceOnUse">
<stop stop-color="white"/>
<stop offset="1" stop-color="#95AFDB"/>
</linearGradient>
<linearGradient id="paint3_linear_45_3403" x1="4.59912" y1="18.3553" x2="15.6673" y2="18.3553" gradientUnits="userSpaceOnUse">
<stop stop-color="white"/>
<stop offset="1" stop-color="#95AFDB"/>
</linearGradient>
<linearGradient id="paint4_linear_45_3403" x1="37.8007" y1="12.0677" x2="21.8892" y2="12.0677" gradientUnits="userSpaceOnUse">
<stop stop-color="white"/>
<stop offset="1" stop-color="#95AFDB"/>
</linearGradient>
<linearGradient id="paint5_linear_45_3403" x1="34.7158" y1="17.4099" x2="21.8892" y2="17.4099" gradientUnits="userSpaceOnUse">
<stop stop-color="white"/>
<stop offset="1" stop-color="#95AFDB"/>
</linearGradient>
<linearGradient id="paint6_linear_45_3403" x1="36.2859" y1="13.0116" x2="22.1328" y2="13.0116" gradientUnits="userSpaceOnUse">
<stop stop-color="white"/>
<stop offset="1" stop-color="#95AFDB"/>
</linearGradient>
<linearGradient id="paint7_linear_45_3403" x1="33.201" y1="18.3553" x2="22.1328" y2="18.3553" gradientUnits="userSpaceOnUse">
<stop stop-color="white"/>
<stop offset="1" stop-color="#95AFDB"/>
</linearGradient>
<linearGradient id="paint8_linear_45_3403" x1="18.9011" y1="13.7272" x2="18.9011" y2="32.0807" gradientUnits="userSpaceOnUse">
<stop stop-color="#A033FF"/>
<stop offset="1" stop-color="#3900D6"/>
</linearGradient>
<linearGradient id="paint9_linear_45_3403" x1="18.9007" y1="0.000363608" x2="18.9007" y2="18.3553" gradientUnits="userSpaceOnUse">
<stop stop-color="#8224F3"/>
<stop offset="1" stop-color="#6013E6"/>
</linearGradient>
<linearGradient id="paint10_linear_45_3403" x1="14.2893" y1="0.29126" x2="14.2893" y2="18.0644" gradientUnits="userSpaceOnUse">
<stop stop-color="#A033FF"/>
<stop offset="1" stop-color="#7D22F1"/>
</linearGradient>
<linearGradient id="paint11_linear_45_3403" x1="18.9009" y1="14.7382" x2="18.9009" y2="30.8213" gradientUnits="userSpaceOnUse">
<stop stop-color="white"/>
<stop offset="1" stop-color="#95AFDB"/>
</linearGradient>
<linearGradient id="paint12_linear_45_3403" x1="18.9011" y1="14.7382" x2="18.9011" y2="34.6784" gradientUnits="userSpaceOnUse">
<stop stop-color="#A033FF"/>
<stop offset="1" stop-color="#3900D6"/>
</linearGradient>
<linearGradient id="paint13_linear_45_3403" x1="16.1305" y1="15.0291" x2="16.1305" y2="34.3875" gradientUnits="userSpaceOnUse">
<stop stop-color="#8224F3"/>
<stop offset="1" stop-color="#6013E6"/>
</linearGradient>
<linearGradient id="paint14_linear_45_3403" x1="18.9012" y1="1.82128" x2="18.9012" y2="27.6564" gradientUnits="userSpaceOnUse">
<stop stop-color="#FFFF4A"/>
<stop offset="1" stop-color="#FA2F6D"/>
</linearGradient>
<radialGradient id="paint15_radial_45_3403" cx="0" cy="0" r="1" gradientUnits="userSpaceOnUse" gradientTransform="translate(18.9331 19.6832) scale(18.3462)">
<stop stop-color="#FFFF4A"/>
<stop offset="1" stop-color="#FA2F6D"/>
</radialGradient>
<linearGradient id="paint16_linear_45_3403" x1="0.00103906" y1="5.20288" x2="0.146482" y2="24.2748" gradientUnits="userSpaceOnUse">
<stop stop-color="#A033FF"/>
<stop offset="1" stop-color="#3900D6"/>
</linearGradient>
<linearGradient id="paint17_linear_45_3403" x1="18.9007" y1="1.96674" x2="18.9007" y2="27.5109" gradientUnits="userSpaceOnUse">
<stop stop-color="white"/>
<stop offset="0.8"/>
</linearGradient>
<linearGradient id="paint18_linear_45_3403" x1="18.9015" y1="9.0105" x2="18.9015" y2="20.4671" gradientUnits="userSpaceOnUse">
<stop stop-color="white"/>
<stop offset="1" stop-color="#95AFDB"/>
</linearGradient>
<linearGradient id="paint19_linear_45_3403" x1="18.9006" y1="8.06665" x2="18.9006" y2="21.4111" gradientUnits="userSpaceOnUse">
<stop stop-color="white"/>
<stop offset="1" stop-color="#95AFDB"/>
</linearGradient>
<linearGradient id="paint20_linear_45_3403" x1="18.9003" y1="10.9812" x2="18.9003" y2="18.4948" gradientUnits="userSpaceOnUse">
<stop stop-color="white"/>
<stop offset="1" stop-color="#95AFDB"/>
</linearGradient>
<linearGradient id="paint21_linear_45_3403" x1="18.9008" y1="10.981" x2="18.9008" y2="18.4946" gradientUnits="userSpaceOnUse">
<stop stop-color="#FFFF4A"/>
<stop offset="1" stop-color="#FA2F6D"/>
</linearGradient>
<linearGradient id="paint22_linear_45_3403" x1="18.9011" y1="12.437" x2="18.9011" y2="17.0388" gradientUnits="userSpaceOnUse">
<stop stop-color="#FFFF4A"/>
<stop offset="1" stop-color="#FA2F6D"/>
</linearGradient>
<linearGradient id="paint23_linear_45_3403" x1="17.2755" y1="11.0015" x2="17.2755" y2="18.5383" gradientUnits="userSpaceOnUse">
<stop stop-color="#FFFF4A"/>
<stop offset="1" stop-color="#FA2F6D"/>
</linearGradient>
<linearGradient id="paint24_linear_45_3403" x1="20.5284" y1="11.0015" x2="20.5284" y2="18.5383" gradientUnits="userSpaceOnUse">
<stop stop-color="#FFFF4A"/>
<stop offset="1" stop-color="#FA2F6D"/>
</linearGradient>
<linearGradient id="paint25_linear_45_3403" x1="17.2755" y1="10.9447" x2="17.2755" y2="18.4583" gradientUnits="userSpaceOnUse">
<stop stop-color="#FFFF4A"/>
<stop offset="1" stop-color="#FA2F6D"/>
</linearGradient>
<linearGradient id="paint26_linear_45_3403" x1="20.5284" y1="10.9447" x2="20.5284" y2="18.4583" gradientUnits="userSpaceOnUse">
<stop stop-color="#FFFF4A"/>
<stop offset="1" stop-color="#FA2F6D"/>
</linearGradient>
<linearGradient id="paint27_linear_45_3403" x1="18.9007" y1="8.21206" x2="18.9007" y2="21.2656" gradientUnits="userSpaceOnUse">
<stop stop-color="white"/>
<stop offset="0.8"/>
</linearGradient>
<clipPath id="clip0_45_3403">
<rect width="38" height="35" fill="white"/>
</clipPath>
</defs>
</svg>
