<svg width="33" height="33" viewBox="0 0 33 33" fill="none" xmlns="http://www.w3.org/2000/svg">
<g clip-path="url(#clip0_72_870)">
<path d="M16.5001 18.3151C17.5066 18.3151 18.3151 17.4984 18.3151 16.5001C18.3151 15.5018 17.5066 14.6851 16.5001 14.6851C15.5018 14.6851 14.6851 15.5018 14.6851 16.5001C14.6851 17.4984 15.5019 18.3151 16.5001 18.3151Z" fill="white"/>
<path d="M16.5 0C7.38377 0 0 7.38377 0 16.5C0 25.608 7.38377 32.9999 16.5 32.9999C25.6162 32.9999 32.9999 25.608 32.9999 16.5C33 7.38377 25.6162 0 16.5 0ZM20.1135 20.1135L6.59997 26.4L12.8865 12.8865L26.4 6.59997L20.1135 20.1135Z" fill="white"/>
</g>
<defs>
<clipPath id="clip0_72_870">
<rect width="33" height="33" fill="white"/>
</clipPath>
</defs>
</svg>
