<svg width="31" height="30" viewBox="0 0 31 30" fill="none" xmlns="http://www.w3.org/2000/svg">
<g clip-path="url(#clip0_1_2)" filter="url(#filter0_i_1_2)">
<g filter="url(#filter1_d_1_2)">
<path d="M27.125 7.0625L16.7917 1.28812C16.3989 1.0687 15.9535 0.953188 15.5 0.953188C15.0465 0.953188 14.601 1.0687 14.2083 1.28812L3.875 7.0625C3.67771 7.17285 3.49638 7.30799 3.33573 7.46437L15.5 14.2594L27.6643 7.46312C27.5035 7.30718 27.3222 7.17247 27.125 7.0625ZM16.9441 7.94625C16.4979 8.16625 16.0043 8.28094 15.5036 8.28094C15.0028 8.28094 14.5092 8.16625 14.063 7.94625C13.2641 7.5 13.2557 6.775 14.0495 6.32875C14.4972 6.10872 14.9923 5.99404 15.4945 5.99404C15.9967 5.99404 16.4918 6.10872 16.9396 6.32875C17.1139 6.3861 17.2653 6.49473 17.3728 6.63945C17.4802 6.78417 17.5382 6.95775 17.5387 7.13594C17.5392 7.31412 17.4821 7.48801 17.3755 7.63329C17.2689 7.77857 17.1181 7.88798 16.9441 7.94625Z" fill="white"/>
</g>
<g filter="url(#filter2_d_1_2)">
<path d="M2.68408 8.5425C2.61797 8.76481 2.58407 8.99492 2.58333 9.22625V20.7738C2.58357 21.2124 2.70305 21.6432 2.92977 22.023C3.1565 22.4028 3.48248 22.7182 3.875 22.9375L14.2083 28.7106C14.4106 28.8235 14.6279 28.9091 14.8542 28.965V15.34L2.68408 8.5425ZM5.49281 15.63C5.14194 15.41 4.85 15.1126 4.64095 14.7622C4.43191 14.4118 4.31172 14.0184 4.29027 13.6144C4.29027 12.8756 4.83277 12.5781 5.50121 12.9513C5.85034 13.171 6.14085 13.4676 6.34904 13.8166C6.55724 14.1657 6.67723 14.5575 6.69923 14.96C6.69729 15.7038 6.15738 16 5.49281 15.63ZM8.39583 20.5837C8.04491 20.3636 7.75294 20.0661 7.5439 19.7156C7.33485 19.3651 7.21469 18.9717 7.19329 18.5675C7.19329 17.8294 7.73515 17.5313 8.40358 17.905C8.75301 18.1245 9.04379 18.421 9.25212 18.7701C9.46046 19.1192 9.58044 19.5111 9.60225 19.9138C9.59838 20.6569 9.05846 20.9544 8.39583 20.5837ZM11.2969 25.5369C10.946 25.3169 10.6541 25.0195 10.4451 24.6691C10.236 24.3187 10.1158 23.9253 10.0944 23.5213C10.0944 22.7825 10.6362 22.485 11.3047 22.8581C11.654 23.0778 11.9447 23.3742 12.153 23.7234C12.3613 24.0725 12.4814 24.4643 12.5033 24.8669C12.4995 25.61 11.9589 25.9081 11.295 25.5369H11.2969Z" fill="white"/>
</g>
<g filter="url(#filter3_d_1_2)">
<path d="M28.3159 8.5425L16.1458 15.3419V28.9669C16.3721 28.911 16.5894 28.8254 16.7917 28.7125L27.125 22.9375C27.5177 22.7181 27.8438 22.4025 28.0705 22.0225C28.2973 21.6424 28.4167 21.2113 28.4167 20.7725V9.22625C28.4159 8.99492 28.382 8.76481 28.3159 8.5425ZM20.1784 15.9444C20.8469 15.5694 21.3868 15.8688 21.3887 16.6119C21.3672 17.0154 21.2471 17.4083 21.0383 17.7583C20.8295 18.1082 20.5379 18.4053 20.1875 18.625C19.5235 18.9963 18.9791 18.7006 18.9765 17.9625C18.9983 17.5581 19.1186 17.1644 19.3277 16.8136C19.5369 16.4629 19.8288 16.165 20.1797 15.9444H20.1784ZM20.2017 23.9856C19.5377 24.3563 18.9933 24.0613 18.9914 23.3225C19.0132 22.9185 19.1335 22.5253 19.3425 22.1749C19.5515 21.8246 19.8433 21.5271 20.1939 21.3069C20.8624 20.9319 21.4023 21.2313 21.4049 21.9744C21.3824 22.3775 21.2618 22.7699 21.053 23.1194C20.8441 23.4689 20.5529 23.7657 20.203 23.9856H20.2017ZM25.0015 13.25C25.6699 12.875 26.2099 13.1744 26.2124 13.9175C26.1903 14.3208 26.0698 14.7133 25.8608 15.0629C25.6518 15.4125 25.3602 15.7092 25.0099 15.9288C24.3453 16.3 23.8054 16.0019 23.8035 15.2638C23.8247 14.8604 23.9443 14.4676 24.1525 14.1176C24.3608 13.7676 24.6517 13.4703 25.0015 13.25ZM25.0254 21.2913C24.3615 21.6625 23.8216 21.3644 23.819 20.6263C23.8401 20.2228 23.9597 19.8299 24.1681 19.4799C24.3765 19.1298 24.6676 18.8326 25.0176 18.6125C25.6861 18.2375 26.226 18.5369 26.2279 19.28C26.206 19.6834 26.0856 20.0759 25.8765 20.4255C25.6675 20.7751 25.3758 21.0718 25.0254 21.2913Z" fill="white"/>
</g>
</g>
<defs>
<filter id="filter0_i_1_2" x="0" y="0" width="31" height="34" filterUnits="userSpaceOnUse" color-interpolation-filters="sRGB">
<feFlood flood-opacity="0" result="BackgroundImageFix"/>
<feBlend mode="normal" in="SourceGraphic" in2="BackgroundImageFix" result="shape"/>
<feColorMatrix in="SourceAlpha" type="matrix" values="0 0 0 0 0 0 0 0 0 0 0 0 0 0 0 0 0 0 127 0" result="hardAlpha"/>
<feOffset dy="4"/>
<feGaussianBlur stdDeviation="15"/>
<feComposite in2="hardAlpha" operator="arithmetic" k2="-1" k3="1"/>
<feColorMatrix type="matrix" values="0 0 0 0 0.801047 0 0 0 0 1 0 0 0 0 0 0 0 0 0.7 0"/>
<feBlend mode="normal" in2="shape" result="effect1_innerShadow_1_2"/>
</filter>
<filter id="filter1_d_1_2" x="2.33573" y="-0.0468121" width="26.3285" height="15.3062" filterUnits="userSpaceOnUse" color-interpolation-filters="sRGB">
<feFlood flood-opacity="0" result="BackgroundImageFix"/>
<feColorMatrix in="SourceAlpha" type="matrix" values="0 0 0 0 0 0 0 0 0 0 0 0 0 0 0 0 0 0 127 0" result="hardAlpha"/>
<feOffset/>
<feGaussianBlur stdDeviation="0.5"/>
<feComposite in2="hardAlpha" operator="out"/>
<feColorMatrix type="matrix" values="0 0 0 0 1 0 0 0 0 0.843137 0 0 0 0 0 0 0 0 1 0"/>
<feBlend mode="normal" in2="BackgroundImageFix" result="effect1_dropShadow_1_2"/>
<feBlend mode="normal" in="SourceGraphic" in2="effect1_dropShadow_1_2" result="shape"/>
</filter>
<filter id="filter2_d_1_2" x="1.58333" y="7.5425" width="14.2708" height="22.4225" filterUnits="userSpaceOnUse" color-interpolation-filters="sRGB">
<feFlood flood-opacity="0" result="BackgroundImageFix"/>
<feColorMatrix in="SourceAlpha" type="matrix" values="0 0 0 0 0 0 0 0 0 0 0 0 0 0 0 0 0 0 127 0" result="hardAlpha"/>
<feOffset/>
<feGaussianBlur stdDeviation="0.5"/>
<feComposite in2="hardAlpha" operator="out"/>
<feColorMatrix type="matrix" values="0 0 0 0 1 0 0 0 0 0.843137 0 0 0 0 0 0 0 0 1 0"/>
<feBlend mode="normal" in2="BackgroundImageFix" result="effect1_dropShadow_1_2"/>
<feBlend mode="normal" in="SourceGraphic" in2="effect1_dropShadow_1_2" result="shape"/>
</filter>
<filter id="filter3_d_1_2" x="15.1458" y="7.5425" width="14.2708" height="22.4244" filterUnits="userSpaceOnUse" color-interpolation-filters="sRGB">
<feFlood flood-opacity="0" result="BackgroundImageFix"/>
<feColorMatrix in="SourceAlpha" type="matrix" values="0 0 0 0 0 0 0 0 0 0 0 0 0 0 0 0 0 0 127 0" result="hardAlpha"/>
<feOffset/>
<feGaussianBlur stdDeviation="0.5"/>
<feComposite in2="hardAlpha" operator="out"/>
<feColorMatrix type="matrix" values="0 0 0 0 1 0 0 0 0 0.843137 0 0 0 0 0 0 0 0 1 0"/>
<feBlend mode="normal" in2="BackgroundImageFix" result="effect1_dropShadow_1_2"/>
<feBlend mode="normal" in="SourceGraphic" in2="effect1_dropShadow_1_2" result="shape"/>
</filter>
<clipPath id="clip0_1_2">
<rect width="31" height="30" fill="white"/>
</clipPath>
</defs>
</svg>
