<svg width="16" height="16" viewBox="0 0 16 16" fill="none" xmlns="http://www.w3.org/2000/svg">
<g clip-path="url(#clip0_240_2)">
<path d="M13.6828 5.76172H7.52284C6.58436 5.76172 5.82129 6.52787 5.82129 7.46633V13.6233C5.82129 14.5617 6.58436 15.3279 7.52284 15.3279H13.6828C14.6213 15.3279 15.3844 14.5617 15.3844 13.6233V7.46633C15.3844 6.52787 14.6213 5.76172 13.6828 5.76172ZM8.79053 9.84786C8.17206 9.84786 7.67052 9.34632 7.67052 8.73094C7.67052 8.11249 8.17206 7.61095 8.79053 7.61095C9.40591 7.61095 9.90745 8.11249 9.90745 8.73094C9.90745 9.34632 9.40591 9.84786 8.79053 9.84786ZM12.4151 13.4756C11.7997 13.4756 11.2982 12.974 11.2982 12.3586C11.2982 11.7402 11.7997 11.2386 12.4151 11.2386C13.0336 11.2386 13.5321 11.7402 13.5321 12.3586C13.5321 12.974 13.0336 13.4756 12.4151 13.4756Z" fill="white"/>
<path d="M7.52293 5.14622H10.1783V2.37391C10.1783 1.43545 9.41523 0.672363 8.47677 0.672363H2.31676C1.37831 0.672363 0.615234 1.43545 0.615234 2.37391V8.53392C0.615234 9.47237 1.37831 10.2354 2.31676 10.2354H5.206V7.46622C5.206 6.18622 6.246 5.14622 7.52293 5.14622ZM7.21216 2.5216C7.82754 2.5216 8.32908 3.02314 8.32908 3.63852C8.32908 4.25699 7.82754 4.75545 7.21216 4.75545C6.59369 4.75545 6.09215 4.25699 6.09215 3.63852C6.09215 3.02314 6.59369 2.5216 7.21216 2.5216ZM3.58445 8.38315C2.96601 8.38315 2.46447 7.88467 2.46447 7.26623C2.46447 6.64776 2.96601 6.1493 3.58445 6.1493C4.19984 6.1493 4.70138 6.64776 4.70138 7.26623C4.70138 7.88467 4.19984 8.38315 3.58445 8.38315ZM3.58445 4.75545C2.96601 4.75545 2.46447 4.25699 2.46447 3.63852C2.46447 3.02314 2.96601 2.5216 3.58445 2.5216C4.19984 2.5216 4.70138 3.02314 4.70138 3.63852C4.70138 4.25699 4.19984 4.75545 3.58445 4.75545Z" fill="white"/>
</g>
<defs>
<clipPath id="clip0_240_2">
<rect width="16" height="16" fill="white"/>
</clipPath>
</defs>
</svg>
