<svg width="29" height="29" viewBox="0 0 29 29" fill="none" xmlns="http://www.w3.org/2000/svg">
<g clip-path="url(#clip0_1_6)" filter="url(#filter0_i_1_6)">
<path d="M14.5 0C6.49196 0 0 6.49196 0 14.5C0 22.508 6.49196 29 14.5 29C22.508 29 29 22.508 29 14.5C28.991 6.49574 22.5043 0.00896813 14.5 0ZM15.0176 4.18031L20.0583 2.16532C20.6304 2.42422 21.1838 2.72253 21.7146 3.05812L21.7278 3.06638C22.2494 3.39679 22.7478 3.76235 23.2198 4.16049L23.2604 4.19589C23.4721 4.3762 23.6779 4.56287 23.878 4.75545C23.9033 4.78023 23.9297 4.80383 23.955 4.82909C24.1648 5.03394 24.368 5.24516 24.5646 5.46252C24.5809 5.48092 24.5964 5.50028 24.6127 5.51868C24.7852 5.71197 24.9511 5.9121 25.1121 6.11554C25.1508 6.16392 25.1895 6.2123 25.227 6.26068C25.4017 6.48677 25.5706 6.71687 25.7302 6.95429L24.7253 11.2259L19.7813 12.8742L15.0187 9.06344L15.0176 4.18031ZM3.7725 6.26351C3.81003 6.21513 3.84826 6.16675 3.88696 6.1186C4.04603 5.91682 4.21052 5.71999 4.38044 5.52789C4.39885 5.50759 4.41584 5.48682 4.43402 5.46653C4.62943 5.2487 4.83168 5.03771 5.04125 4.83333C5.06532 4.80973 5.0894 4.78495 5.11465 4.76324C5.31313 4.57184 5.51727 4.38634 5.72708 4.20698L5.77546 4.16639C6.24321 3.77109 6.73693 3.40788 7.2533 3.07889L7.27218 3.06685C7.79989 2.73197 8.34977 2.43413 8.91854 2.175L13.9824 4.18031V9.06203L9.21968 12.8721L4.27566 11.2269L3.27076 6.95523C3.43171 6.71829 3.5988 6.48866 3.7725 6.26351ZM3.19005 21.9169C3.04797 21.7002 2.91204 21.4795 2.78247 21.2546L2.75108 21.2003C2.62222 20.9766 2.50021 20.7491 2.38528 20.5181L2.38127 20.5107C2.13913 20.0246 1.92649 19.5243 1.74477 19.0124V19.0076C1.65886 18.766 1.58051 18.5184 1.50806 18.2694L1.48186 18.1776C1.41554 17.9437 1.35536 17.7073 1.30155 17.4682C1.29683 17.4448 1.29093 17.4227 1.28621 17.3995C1.1675 16.8596 1.08231 16.313 1.03086 15.7624L3.9816 12.2216L8.8914 13.8581L10.3164 19.5575L7.975 22.6728L3.19005 21.9169ZM17.7186 27.6432C17.4769 27.7032 17.2289 27.7548 16.9809 27.8013C16.9462 27.8082 16.9108 27.8139 16.8761 27.8202C16.6649 27.858 16.4513 27.8903 16.2372 27.9167C16.1801 27.9241 16.1235 27.9319 16.0666 27.9387C15.8679 27.9618 15.6673 27.9793 15.4662 27.9937C15.4029 27.9979 15.3404 28.0043 15.2772 28.0083C15.0201 28.0241 14.761 28.0333 14.5 28.0333C14.2609 28.0333 14.0233 28.027 13.787 28.0145C13.7585 28.0145 13.7311 28.0097 13.7025 28.0076C13.4923 27.9956 13.2829 27.9798 13.0741 27.9595L13.05 27.955C12.5924 27.9054 12.1374 27.8327 11.6871 27.7376L8.82815 23.2614L11.1327 20.1884H17.8673L20.2096 23.2817L17.7186 27.6432ZM27.7173 17.4C27.7124 17.4231 27.7067 17.4455 27.7017 17.4687C27.6477 17.7075 27.5875 17.944 27.5214 18.1781L27.4955 18.2699C27.4228 18.5189 27.3447 18.7655 27.2585 19.0081V19.0128C27.0768 19.5247 26.8644 20.0251 26.622 20.5112L26.618 20.5185C26.5024 20.7498 26.3806 20.9773 26.2522 21.2008L26.2208 21.2551C26.092 21.4807 25.9563 21.7009 25.814 21.9164L21.0453 22.6683L18.6876 19.5556L20.1119 13.8576L25.0217 12.2212L27.9724 15.7619C27.9212 16.3127 27.836 16.8598 27.7173 17.4Z" fill="white"/>
</g>
<defs>
<filter id="filter0_i_1_6" x="0" y="0" width="29" height="33" filterUnits="userSpaceOnUse" color-interpolation-filters="sRGB">
<feFlood flood-opacity="0" result="BackgroundImageFix"/>
<feBlend mode="normal" in="SourceGraphic" in2="BackgroundImageFix" result="shape"/>
<feColorMatrix in="SourceAlpha" type="matrix" values="0 0 0 0 0 0 0 0 0 0 0 0 0 0 0 0 0 0 127 0" result="hardAlpha"/>
<feOffset dy="4"/>
<feGaussianBlur stdDeviation="10"/>
<feComposite in2="hardAlpha" operator="arithmetic" k2="-1" k3="1"/>
<feColorMatrix type="matrix" values="0 0 0 0 0.801047 0 0 0 0 1 0 0 0 0 0 0 0 0 0.7 0"/>
<feBlend mode="normal" in2="shape" result="effect1_innerShadow_1_6"/>
</filter>
<clipPath id="clip0_1_6">
<rect width="29" height="29" fill="white"/>
</clipPath>
</defs>
</svg>
