<svg width="24" height="24" viewBox="0 0 24 24" fill="none" xmlns="http://www.w3.org/2000/svg">
<g clip-path="url(#clip0_268_12053)">
<path d="M0.583984 12.2769C0.583984 5.93576 5.74288 0.776855 12.084 0.776855C14.645 0.776855 17.069 1.6008 19.0939 3.15966L16.4216 6.63112C15.1695 5.66731 13.6696 5.15781 12.084 5.15781C8.15854 5.15781 4.96494 8.35141 4.96494 12.2769C4.96494 16.2023 8.15854 19.3959 12.084 19.3959C15.2456 19.3959 17.9323 17.3245 18.8583 14.4673H12.084V10.0864H23.584V12.2769C23.584 18.618 18.4251 23.7769 12.084 23.7769C5.74288 23.7769 0.583984 18.618 0.583984 12.2769Z" fill="white"/>
</g>
<defs>
<clipPath id="clip0_268_12053">
<rect width="23" height="23" fill="white" transform="translate(0.583984 0.776855)"/>
</clipPath>
</defs>
</svg>
