<svg width="28" height="32" viewBox="0 0 28 32" fill="none" xmlns="http://www.w3.org/2000/svg">
<path d="M7.69531 28.5525L9.08065 29.3525V17.3635H7.69531V28.5525Z" fill="url(#paint0_linear_45_1814)"/>
<path d="M18.2485 17.3635V29.3525L19.6349 28.5525V17.3635H18.2485Z" fill="url(#paint1_linear_45_1814)"/>
<path d="M9.67676 17.3635V29.6974L13.6648 32L17.6529 29.6974V17.3635H9.67676Z" fill="url(#paint2_linear_45_1814)"/>
<path d="M10.2734 29.3525V17.9597H17.057V29.3525L13.6652 31.3113L10.2734 29.3525Z" fill="#323F54"/>
<path d="M2.54363 20.9481L12.5242 26.7101V19.4504L1.49121 13.0813V19.1245C1.49121 19.8768 1.8927 20.5724 2.54462 20.9491L2.54363 20.9481Z" fill="url(#paint3_linear_45_1814)"/>
<path d="M14.8057 19.4514V26.711L24.7863 20.949C25.4382 20.5724 25.8397 19.8777 25.8397 19.1244V13.0812L14.8057 19.4514Z" fill="url(#paint4_linear_45_1814)"/>
<path d="M1.05242 16.1093L11.033 21.8713V14.6127L0 8.24152V14.2847C0 15.037 0.40149 15.7327 1.05341 16.1093H1.05242Z" fill="url(#paint5_linear_45_1814)"/>
<path d="M16.2964 14.6127V21.8724L26.277 16.1104C26.9289 15.7337 27.3304 15.0391 27.3304 14.2858V8.24158L16.2964 14.6118V14.6127Z" fill="url(#paint6_linear_45_1814)"/>
<path d="M2.54363 18.9606L12.5242 24.7226V17.4639L1.49121 11.0938V17.137C1.49121 17.8893 1.8927 18.5849 2.54462 18.9616L2.54363 18.9606Z" fill="url(#paint7_linear_45_1814)"/>
<path d="M14.8057 17.464V24.7236L24.7863 18.9616C25.4382 18.585 25.8397 17.8903 25.8397 17.137V11.0938L14.8057 17.464Z" fill="url(#paint8_linear_45_1814)"/>
<path d="M23.1541 20.5466V14.1804C23.1541 12.7603 22.3968 11.4475 21.1665 10.7379L15.654 7.55483C14.4237 6.84427 12.9091 6.84427 11.6788 7.55483L6.16628 10.7379C4.93598 11.4485 4.17871 12.7603 4.17871 14.1804V20.5466C4.17871 21.9667 4.93598 23.2795 6.16628 23.9891L11.6788 27.1722C12.9091 27.8827 14.4237 27.8827 15.654 27.1722L21.1665 23.9891C22.3968 23.2785 23.1541 21.9667 23.1541 20.5466Z" fill="#323F54"/>
<path d="M23.1541 20.5466V14.1804C23.1541 12.7603 22.3968 11.4475 21.1665 10.7379L15.654 7.55483C14.4237 6.84427 12.9091 6.84427 11.6788 7.55483L6.16628 10.7379C4.93598 11.4485 4.17871 12.7603 4.17871 14.1804V20.5466C4.17871 21.9667 4.93598 23.2795 6.16628 23.9891L11.6788 27.1722C12.9091 27.8827 14.4237 27.8827 15.654 27.1722L21.1665 23.9891C22.3968 23.2785 23.1541 21.9667 23.1541 20.5466Z" stroke="url(#paint9_linear_45_1814)" stroke-width="1.88425" stroke-miterlimit="10"/>
<path d="M13.6655 26.2142C13.2302 26.2142 12.8009 26.0989 12.4232 25.8813L6.91069 22.6982C6.14448 22.2559 5.66846 21.4311 5.66846 20.5466V14.1804C5.66846 13.2959 6.14448 12.4711 6.91069 12.0289L12.4232 8.84577C12.8009 8.62813 13.2302 8.51285 13.6655 8.51285C14.1007 8.51285 14.531 8.62813 14.9077 8.84577L20.4202 12.0289C21.1864 12.4711 21.6625 13.2959 21.6625 14.1804V20.5466C21.6625 21.4311 21.1864 22.2559 20.4202 22.6982L14.9077 25.8813C14.531 26.0989 14.1007 26.2142 13.6655 26.2142Z" fill="url(#paint10_linear_45_1814)"/>
<path style="mix-blend-mode:screen" d="M13.6648 25.0216C13.4382 25.0216 13.2146 24.962 13.0188 24.8487L7.50631 21.6656C7.1078 21.4351 6.86035 21.0067 6.86035 20.5466V14.1804C6.86035 13.7203 7.1078 13.292 7.50631 13.0614L13.0188 9.87832C13.2146 9.76503 13.4382 9.7054 13.6648 9.7054C13.8914 9.7054 14.114 9.76503 14.3108 9.87832L19.8243 13.0614C20.2228 13.291 20.4703 13.7203 20.4703 14.1804V20.5466C20.4703 21.0067 20.2228 21.4351 19.8243 21.6656L14.3118 24.8487C14.116 24.962 13.8924 25.0216 13.6658 25.0216H13.6648Z" fill="url(#paint11_linear_45_1814)"/>
<path style="mix-blend-mode:multiply" opacity="0.3" d="M10.041 19.4564V15.2706L13.6654 13.1777L17.2907 15.2706V19.4564L13.6654 21.5493L10.041 19.4564Z" fill="url(#paint12_linear_45_1814)"/>
<path d="M10.5278 19.1753V15.5519L13.6652 13.7412L16.8026 15.5519V19.1753L13.6652 20.9859L10.5278 19.1753Z" fill="#1C212E"/>
<path d="M13.6656 14.0393L10.7866 15.7009L13.6656 17.3636V14.0393Z" fill="url(#paint13_linear_45_1814)"/>
<path d="M13.6655 17.3635L16.5445 15.7009L13.6655 14.0393V17.3635Z" fill="url(#paint14_linear_45_1814)"/>
<path d="M13.6655 17.3635L16.5445 19.0261V15.7009L13.6655 17.3635Z" fill="url(#paint15_linear_45_1814)"/>
<path d="M13.6655 17.3635V20.6877L16.5445 19.0261L13.6655 17.3635Z" fill="url(#paint16_linear_45_1814)"/>
<path d="M10.7866 19.0261L13.6656 20.6877V17.3635L10.7866 19.0261Z" fill="url(#paint17_linear_45_1814)"/>
<path d="M13.6656 17.3635L10.7866 15.7009V19.0261L13.6656 17.3635Z" fill="url(#paint18_linear_45_1814)"/>
<path d="M13.6656 15.1752L11.7715 16.2693V18.4577L13.6656 19.5518L15.5608 18.4577V16.2693L13.6656 15.1752Z" fill="url(#paint19_linear_45_1814)"/>
<path d="M8.47956 7.62939e-05L9.75222 2.81638L12.8424 3.14807L10.5386 5.22024L11.176 8.24156L8.47956 6.70592L5.78313 8.24156L6.42048 5.22024L4.1167 3.14807L7.2069 2.81638L8.47956 7.62939e-05Z" fill="#FFC107"/>
<path d="M8.47998 4.12077L11.1764 8.24151L8.47998 6.70586V4.12077Z" fill="#FFE082"/>
<path d="M8.48012 4.12077L5.78369 8.24151L6.42104 5.22018L8.48012 4.12077Z" fill="#FFE082"/>
<path d="M8.48005 4.12075L7.20739 2.81631L4.11719 3.14799L8.48005 4.12075Z" fill="#FFE082"/>
<path d="M8.47998 4.12075L9.75264 2.81631L12.8428 3.14799L8.47998 4.12075Z" fill="#FFE082"/>
<path d="M8.4792 0L7.20654 2.8163L8.4792 4.12074V0Z" fill="#FFE082"/>
<path d="M18.8531 5.34058e-05L20.1258 2.81636L23.216 3.14804L20.9122 5.22021L21.5495 8.24154L18.8531 6.70589L16.1567 8.24154L16.794 5.22021L14.4902 3.14804L17.5804 2.81636L18.8531 5.34058e-05Z" fill="#FFC107"/>
<path d="M18.8545 4.12077L21.5509 8.24151L18.8545 6.70586V4.12077Z" fill="#FFE082"/>
<path d="M18.8546 4.12077L16.1582 8.24151L16.7956 5.22018L18.8546 4.12077Z" fill="#FFE082"/>
<path d="M18.8541 4.12075L17.5814 2.81631L14.4912 3.14799L18.8541 4.12075Z" fill="#FFE082"/>
<path d="M18.8545 4.12075L20.1271 2.81631L23.2174 3.14799L18.8545 4.12075Z" fill="#FFE082"/>
<path d="M18.8537 0L17.5811 2.8163L18.8537 4.12074V0Z" fill="#FFE082"/>
<path d="M18.8531 5.34058e-05L20.1258 2.81636L23.216 3.14804L20.9122 5.22021L21.5495 8.24154L18.8531 6.70589L16.1567 8.24154L16.794 5.22021L14.4902 3.14804L17.5804 2.81636L18.8531 5.34058e-05Z" fill="#FFC107"/>
<path d="M18.8545 4.12077L21.5509 8.24151L18.8545 6.70586V4.12077Z" fill="#FFE082"/>
<path d="M18.8546 4.12077L16.1582 8.24151L16.7956 5.22018L18.8546 4.12077Z" fill="#FFE082"/>
<path d="M18.8541 4.12075L17.5814 2.81631L14.4912 3.14799L18.8541 4.12075Z" fill="#FFE082"/>
<path d="M18.8545 4.12075L20.1271 2.81631L23.2174 3.14799L18.8545 4.12075Z" fill="#FFE082"/>
<path d="M18.8537 0L17.5811 2.8163L18.8537 4.12074V0Z" fill="#FFE082"/>
<defs>
<linearGradient id="paint0_linear_45_1814" x1="8.38798" y1="30.7796" x2="8.38798" y2="17.3635" gradientUnits="userSpaceOnUse">
<stop stop-color="#FFE771"/>
<stop offset="1" stop-color="#E67700"/>
</linearGradient>
<linearGradient id="paint1_linear_45_1814" x1="18.9412" y1="5.33865" x2="18.9412" y2="5.33865" gradientUnits="userSpaceOnUse">
<stop stop-color="#FFE771"/>
<stop offset="1" stop-color="#E67700"/>
</linearGradient>
<linearGradient id="paint2_linear_45_1814" x1="13.6648" y1="32" x2="13.6648" y2="17.3635" gradientUnits="userSpaceOnUse">
<stop stop-color="#FFE771"/>
<stop offset="1" stop-color="#E67700"/>
</linearGradient>
<linearGradient id="paint3_linear_45_1814" x1="7.00772" y1="13.0813" x2="7.00772" y2="26.711" gradientUnits="userSpaceOnUse">
<stop stop-color="#FFE771"/>
<stop offset="1" stop-color="#E67700"/>
</linearGradient>
<linearGradient id="paint4_linear_45_1814" x1="20.3222" y1="13.0812" x2="20.3222" y2="26.711" gradientUnits="userSpaceOnUse">
<stop stop-color="#FFE771"/>
<stop offset="1" stop-color="#E67700"/>
</linearGradient>
<linearGradient id="paint5_linear_45_1814" x1="5.51651" y1="8.24152" x2="5.51651" y2="21.8713" gradientUnits="userSpaceOnUse">
<stop stop-color="#FFE771"/>
<stop offset="1" stop-color="#E67700"/>
</linearGradient>
<linearGradient id="paint6_linear_45_1814" x1="21.8129" y1="8.24158" x2="21.8129" y2="21.8714" gradientUnits="userSpaceOnUse">
<stop stop-color="#FFE771"/>
<stop offset="1" stop-color="#E67700"/>
</linearGradient>
<linearGradient id="paint7_linear_45_1814" x1="7.00772" y1="11.0938" x2="7.00772" y2="24.7236" gradientUnits="userSpaceOnUse">
<stop stop-color="#FFE771"/>
<stop offset="1" stop-color="#E67700"/>
</linearGradient>
<linearGradient id="paint8_linear_45_1814" x1="20.3222" y1="11.0938" x2="20.3222" y2="24.7236" gradientUnits="userSpaceOnUse">
<stop stop-color="#FFE771"/>
<stop offset="1" stop-color="#E67700"/>
</linearGradient>
<linearGradient id="paint9_linear_45_1814" x1="13.6654" y1="6.87309" x2="13.6654" y2="27.8539" gradientUnits="userSpaceOnUse">
<stop stop-color="#435570"/>
<stop offset="1" stop-color="#212736"/>
</linearGradient>
<linearGradient id="paint10_linear_45_1814" x1="13.6655" y1="8.51285" x2="13.6655" y2="26.2142" gradientUnits="userSpaceOnUse">
<stop stop-color="white"/>
<stop offset="0.5" stop-color="#FFE771"/>
<stop offset="1" stop-color="#E67700"/>
</linearGradient>
<linearGradient id="paint11_linear_45_1814" x1="13.6648" y1="9.7054" x2="13.6648" y2="25.0216" gradientUnits="userSpaceOnUse">
<stop stop-color="white"/>
<stop offset="0.5" stop-color="#FFE771"/>
<stop offset="1" stop-color="#E67700"/>
</linearGradient>
<linearGradient id="paint12_linear_45_1814" x1="13.6654" y1="21.5493" x2="13.6654" y2="13.1777" gradientUnits="userSpaceOnUse">
<stop stop-color="white"/>
<stop offset="1"/>
</linearGradient>
<linearGradient id="paint13_linear_45_1814" x1="12.2266" y1="14.0393" x2="12.2266" y2="17.3636" gradientUnits="userSpaceOnUse">
<stop stop-color="white"/>
<stop offset="0.5" stop-color="#FFE771"/>
<stop offset="1" stop-color="#E67700"/>
</linearGradient>
<linearGradient id="paint14_linear_45_1814" x1="15.1055" y1="17.3635" x2="15.1055" y2="14.0393" gradientUnits="userSpaceOnUse">
<stop stop-color="white"/>
<stop offset="0.5" stop-color="#FFE771"/>
<stop offset="1" stop-color="#E67700"/>
</linearGradient>
<linearGradient id="paint15_linear_45_1814" x1="15.1055" y1="19.0261" x2="15.1055" y2="15.7009" gradientUnits="userSpaceOnUse">
<stop stop-color="white"/>
<stop offset="0.5" stop-color="#FFE771"/>
<stop offset="1" stop-color="#E67700"/>
</linearGradient>
<linearGradient id="paint16_linear_45_1814" x1="15.1055" y1="20.6877" x2="15.1055" y2="17.3635" gradientUnits="userSpaceOnUse">
<stop stop-color="white"/>
<stop offset="0.5" stop-color="#FFE771"/>
<stop offset="1" stop-color="#E67700"/>
</linearGradient>
<linearGradient id="paint17_linear_45_1814" x1="12.2266" y1="17.3635" x2="12.2266" y2="20.6877" gradientUnits="userSpaceOnUse">
<stop stop-color="white"/>
<stop offset="0.5" stop-color="#FFE771"/>
<stop offset="1" stop-color="#E67700"/>
</linearGradient>
<linearGradient id="paint18_linear_45_1814" x1="12.2266" y1="19.0261" x2="12.2266" y2="15.7009" gradientUnits="userSpaceOnUse">
<stop stop-color="white"/>
<stop offset="0.5" stop-color="#FFE771"/>
<stop offset="1" stop-color="#E67700"/>
</linearGradient>
<linearGradient id="paint19_linear_45_1814" x1="13.6656" y1="15.1752" x2="13.6656" y2="19.5518" gradientUnits="userSpaceOnUse">
<stop stop-color="white"/>
<stop offset="0.5" stop-color="#FFE771"/>
<stop offset="1" stop-color="#E67700"/>
</linearGradient>
</defs>
</svg>
