<svg width="49" height="49" viewBox="0 0 49 49" fill="none" xmlns="http://www.w3.org/2000/svg">
<path d="M42.1094 44.4063C40.213 44.4871 38.3389 43.9723 36.75 42.934V44.7891C36.75 46.269 39.1495 47.4688 42.1094 47.4688C45.0693 47.4688 47.4688 46.269 47.4688 44.7891V42.934C45.8798 43.9723 44.0057 44.4871 42.1094 44.4063Z" fill="white"/>
<path d="M42.1094 42.875C45.0693 42.875 47.4688 41.6753 47.4688 40.1953C47.4688 38.7154 45.0693 37.5156 42.1094 37.5156C39.1495 37.5156 36.75 38.7154 36.75 40.1953C36.75 41.6753 39.1495 42.875 42.1094 42.875Z" fill="white"/>
<path d="M44.4064 0L33.458 20.1359C33.4771 20.1403 33.4953 20.1481 33.5116 20.1589L37.7455 22.7008L47.4689 4.59375L47.5302 0L44.4064 0Z" fill="white"/>
<path d="M8.09983 36.75C7.10161 36.7498 6.13049 37.0747 5.33341 37.6756C4.53633 38.2765 3.95668 39.1207 3.68217 40.0805L3.23811 41.6117C3.02887 42.3343 3.00517 43.0979 3.16921 43.832C3.38673 44.8607 3.95118 45.7834 4.76798 46.4455C5.58479 47.1076 6.60433 47.4688 7.65577 47.4688H9.22453L12.287 36.75H8.09983Z" fill="white"/>
<path d="M27.0338 31.9496L25.8088 34.2082C25.4274 34.9721 24.8407 35.6146 24.1145 36.0636C23.3882 36.5126 22.5512 36.7503 21.6974 36.7501H17.6465L14.584 47.4688H21.6974C22.5512 47.4691 23.3882 47.2313 24.1145 46.7824C24.8407 46.3334 25.4274 45.6908 25.8088 44.9269L31.3826 34.5451C31.3711 34.5431 31.3604 34.5378 31.3519 34.5297L27.0338 31.9496Z" fill="white"/>
<path d="M32.7308 21.4758L27.7695 30.6021C27.7772 30.6097 27.7925 30.6097 27.8002 30.6174L32.1106 33.1975L37.0259 24.0483C37.0106 24.0483 37.003 24.0407 36.9877 24.033L32.7308 21.4758Z" fill="white"/>
<path d="M13.7812 27.5625V26.7969H8.42188V27.4155L9.89877 31.1066C9.93489 31.1969 9.95335 31.2933 9.95312 31.3906H15.2558L13.8387 27.8473C13.8017 27.7569 13.7822 27.6602 13.7812 27.5625Z" fill="white"/>
<path d="M8.42188 20.6719H13.7812V25.2656H8.42188V20.6719Z" fill="white"/>
<path d="M13.7812 16.8438C13.7812 16.7615 13.7944 16.6798 13.8203 16.6018L15.0154 13.0156H9.73952L8.42188 16.9678V19.1406H13.7812V16.8438Z" fill="white"/>
<path d="M6.89062 27.5625V26.7969H1.53125V27.5625L3.82812 31.3906H8.36292L6.94498 27.8473C6.90903 27.7567 6.89059 27.66 6.89062 27.5625Z" fill="white"/>
<path d="M6.89063 16.8438C6.89057 16.7615 6.90375 16.6798 6.92968 16.6018L8.12482 13.0156H2.21036L2.0626 13.4957C1.70889 14.8383 1.53029 16.221 1.53125 17.6094V19.1406H6.89063V16.8438Z" fill="white"/>
<path d="M1.53125 20.6719H6.89062V25.2656H1.53125V20.6719Z" fill="white"/>
<path d="M20.6719 24.7971L15.3125 26.5833V27.4156L16.7894 31.1066C16.8255 31.197 16.844 31.2934 16.8438 31.3907H19.1406L20.6719 28.8389V24.7971Z" fill="white"/>
<path d="M15.3125 16.9678V18.8443L20.6719 17.0574V13.0156H16.6301L15.3125 16.9678Z" fill="white"/>
<path d="M23.1062 2.50354C19.2108 1.0831 14.917 1.22471 11.1238 2.89871C7.33049 4.57272 4.33191 7.64931 2.75586 11.4843H21.4371C21.6402 11.4843 21.8349 11.565 21.9785 11.7086C22.1221 11.8522 22.2027 12.0469 22.2027 12.2499V26.4776L30.6246 14.5468V8.08877C28.7507 5.49989 26.1259 3.54999 23.1062 2.50354ZM22.2984 8.42182H21.5565C21.3535 8.42182 21.1588 8.34116 21.0152 8.19758C20.8716 8.05399 20.7909 7.85925 20.7909 7.6562C20.7909 7.45314 20.8716 7.2584 21.0152 7.11482C21.1588 6.97124 21.3535 6.89057 21.5565 6.89057H22.2984C22.5015 6.89057 22.6962 6.97124 22.8398 7.11482C22.9834 7.2584 23.0641 7.45314 23.0641 7.6562C23.0641 7.85925 22.9834 8.05399 22.8398 8.19758C22.6962 8.34116 22.5015 8.42182 22.2984 8.42182ZM23.7577 7.6562C23.7577 7.45314 23.8384 7.2584 23.982 7.11482C24.1255 6.97124 24.3203 6.89057 24.5233 6.89057H25.2652C25.4683 6.89057 25.663 6.97124 25.8066 7.11482C25.9502 7.2584 26.0309 7.45314 26.0309 7.6562C26.0309 7.85925 25.9502 8.05399 25.8066 8.19758C25.663 8.34116 25.4683 8.42182 25.2652 8.42182H24.5233C24.3203 8.42182 24.1255 8.34116 23.982 8.19758C23.8384 8.05399 23.7577 7.85925 23.7577 7.6562Z" fill="white"/>
<path d="M15.3125 24.9694L20.6719 23.1824V18.6721L15.3125 20.4583V24.9694Z" fill="white"/>
</svg>
