<svg width="888" height="770" viewBox="0 0 888 770" fill="none" xmlns="http://www.w3.org/2000/svg">
<g clip-path="url(#clip0_106_75)">
<g style="mix-blend-mode:soft-light">
<path d="M265 768.997L367.262 641.088L469.524 768.997H265Z" fill="#C8D7D6" fill-opacity="0.4"/>
</g>
<g style="mix-blend-mode:soft-light" opacity="0.4">
<path d="M466.766 768.997V499.479L665.792 250.569V602.591L532.738 768.997H466.766Z" fill="#F8E1C5" fill-opacity="0.4"/>
</g>
<g style="mix-blend-mode:soft-light">
<path d="M566.287 768.997V537.976L765.294 289.104V641.088L663.032 768.997H566.287Z" fill="#C8D7D6" fill-opacity="0.4"/>
</g>
<g style="mix-blend-mode:soft-light">
<path d="M566.287 768.997V537.976L750.981 768.997H566.287Z" fill="#C8D7D6" fill-opacity="0.4"/>
</g>
<g style="mix-blend-mode:soft-light" opacity="0.4">
<path d="M763.308 185.581L817.214 340.64L618.188 589.551V237.529L755.333 66L763.308 185.581Z" fill="#F8E1C5" fill-opacity="0.4"/>
</g>
<g style="mix-blend-mode:soft-light">
<path d="M724.875 387.481L862.847 264.627L885.999 537.976L724.875 739.503V387.481Z" fill="#C8D7D6" fill-opacity="0.4"/>
</g>
<g style="mix-blend-mode:soft-light" opacity="0.4">
<path d="M339.66 770L525.969 536.973L712.302 770H339.66Z" fill="#F8E1C5" fill-opacity="0.4"/>
<path d="M339.66 770L525.969 536.973L712.302 770H339.66Z" fill="#F8E1C5" fill-opacity="0.4"/>
</g>
<g style="mix-blend-mode:soft-light" opacity="0.4">
<path d="M599.946 446.512L472.918 438.473L415.717 200.007L599.946 446.512Z" fill="#F8E1C5" fill-opacity="0.4"/>
<path d="M599.946 446.512L472.918 438.473L415.717 200.007L599.946 446.512Z" fill="#F8E1C5" fill-opacity="0.4"/>
</g>
</g>
<defs>
<clipPath id="clip0_106_75">
<rect width="888" height="770" fill="white"/>
</clipPath>
</defs>
</svg>
