<svg width="18" height="18" viewBox="0 0 18 18" fill="none" xmlns="http://www.w3.org/2000/svg">
<g clip-path="url(#clip0_235_1778)">
<path d="M7.22078 4.10938L7.02555 5.31173C6.99942 5.47333 7.0165 5.63946 7.07487 5.79133C7.13323 5.9432 7.23055 6.07475 7.35584 6.17112C7.48112 6.26749 7.62936 6.32483 7.7838 6.33667C7.93825 6.3485 8.09275 6.31436 8.22983 6.23809L9.25016 5.67067L10.2698 6.23809C10.4069 6.31455 10.5615 6.34885 10.7161 6.33711C10.8706 6.32537 11.019 6.26806 11.1444 6.17166C11.2698 6.07526 11.3672 5.94363 11.4256 5.79165C11.4839 5.63968 11.501 5.47343 11.4748 5.31173L11.2802 4.10938L12.1056 3.25825C12.2169 3.14373 12.2957 2.99845 12.333 2.83893C12.3702 2.6794 12.3645 2.512 12.3164 2.35575C12.2684 2.19949 12.1799 2.06063 12.0611 1.95494C11.9422 1.84924 11.7978 1.78093 11.6441 1.75778L10.5042 1.582L9.99457 0.490046C9.92604 0.342953 9.81999 0.219101 9.68844 0.132499C9.55688 0.0458968 9.40507 0 9.25016 0C9.09525 0 8.94343 0.0458968 8.81188 0.132499C8.68033 0.219101 8.57428 0.342953 8.50575 0.490046L7.99608 1.58376L6.85588 1.75954C6.70259 1.78299 6.55856 1.85139 6.44007 1.957C6.32158 2.0626 6.23335 2.2012 6.18537 2.35713C6.13739 2.51305 6.13156 2.68008 6.16855 2.83932C6.20555 2.99857 6.28388 3.14368 6.39469 3.25825L7.22078 4.10938Z" fill="white"/>
<path d="M10.5781 7.45312H7.92188C7.61366 7.45313 7.31808 7.58276 7.10014 7.81352C6.8822 8.04428 6.75977 8.35725 6.75977 8.68359V14.8359H11.7402V8.68359C11.7402 8.35725 11.6178 8.04428 11.3999 7.81352C11.1819 7.58276 10.8863 7.45313 10.5781 7.45312Z" fill="white"/>
<path d="M0.75 15.8906V17.1211C0.75 17.3542 0.837454 17.5777 0.993124 17.7426C1.14879 17.9074 1.35993 18 1.58008 18H16.9199C17.1401 18 17.3512 17.9074 17.5069 17.7426C17.6625 17.5777 17.75 17.3542 17.75 17.1211V15.8906H0.75Z" fill="white"/>
<path d="M15.7246 11.1445C15.7246 10.8182 15.6022 10.5052 15.3842 10.2745C15.1663 10.0437 14.8707 9.91406 14.5625 9.91406H12.7363V14.8359H15.7246V11.1445Z" fill="white"/>
<path d="M5.76367 11.6719H3.9375C3.62929 11.6719 3.3337 11.8015 3.11576 12.0323C2.89783 12.263 2.77539 12.576 2.77539 12.9023V14.8359H5.76367V11.6719Z" fill="white"/>
</g>
<defs>
<clipPath id="clip0_235_1778">
<rect width="17" height="18" fill="white" transform="translate(0.75)"/>
</clipPath>
</defs>
</svg>
