<svg width="50" height="50" viewBox="0 0 50 50" fill="none" xmlns="http://www.w3.org/2000/svg">
<g clip-path="url(#clip0_72_1090)">
<path d="M15.5933 1.82944C12.4919 3.08683 9.709 4.93561 7.32268 7.3212C4.93568 9.70748 3.08894 12.491 1.83084 15.5917C0.616269 18.5873 0 21.7529 0 25C0 28.2464 0.616269 31.412 1.83084 34.4063C3.08894 37.5076 4.93637 40.2911 7.32268 42.6767C9.709 45.0637 12.4912 46.9111 15.5933 48.1685C18.5889 49.3844 21.7539 49.9986 25.001 49.9986C28.2482 49.9986 31.4124 49.3824 34.4081 48.1685C37.5088 46.9111 40.2931 45.0637 42.6787 42.6767C45.0657 40.2911 46.9131 37.509 48.1705 34.4063C49.3851 31.412 50 28.2464 50 25C50 21.7529 49.3844 18.5873 48.1705 15.5917C46.9131 12.491 45.0643 9.70679 42.6787 7.3212C40.2931 4.93561 37.5116 3.08683 34.4081 1.82944C31.4124 0.61557 28.2482 0 25.001 0C21.7539 0 18.5889 0.61557 15.5933 1.82944ZM6.24836 35.5241C5.04415 34.7683 3.93459 33.8978 2.95215 32.8725C1.45155 28.6499 1.1973 24.0784 2.19149 19.739C2.65921 18.8167 3.1912 17.931 3.79296 17.0826C3.9788 16.8207 4.15083 16.5478 4.34981 16.2936L9.99157 19.6319C9.99157 19.6761 9.99157 19.7245 9.99157 19.7735C9.97706 22.8079 10.2852 25.8201 10.8987 28.7888C10.9008 28.8026 10.9028 28.8102 10.9056 28.8226L6.53024 35.683C6.4349 35.6346 6.34025 35.5821 6.24836 35.5241ZM23.023 47.1218C23.9965 47.6186 24.9976 48.0379 26.0263 48.3792C21.6565 48.5692 17.2431 47.5453 13.3417 45.3069L22.7992 46.9919C22.8717 47.0382 22.9457 47.0824 23.023 47.1218ZM22.9885 45.4147L11.8279 43.4256C10.5222 41.8401 9.34767 40.1626 8.33828 38.3698C8.08128 37.9138 7.79456 37.471 7.57693 36.995L11.9482 30.1415C12.0449 30.1657 12.1527 30.1912 12.2749 30.2237C15.0095 30.9553 17.7923 31.4756 20.5946 31.8832C20.7583 31.906 20.8951 31.926 21.0119 31.9385L26.2515 40.9979C25.3423 42.276 24.4228 43.5472 23.4832 44.8046C23.327 45.014 23.1612 45.215 22.9885 45.4147ZM41.5567 41.5554C40.6682 42.4446 39.7252 43.246 38.7379 43.9604C38.5742 42.6519 38.2916 41.3696 37.8929 40.117L43.4836 29.6876C45.0236 28.9863 46.509 28.1912 47.888 27.2053C48.0683 27.0775 48.2182 26.9344 48.3343 26.7783C47.9294 32.1678 45.6702 37.4427 41.5567 41.5554ZM41.3087 28.0295C41.5166 28.426 41.7218 28.8268 41.9277 29.233L36.5278 39.306C36.4967 39.3129 36.467 39.3198 36.4359 39.3239C33.5169 39.869 30.5744 40.1592 27.6071 40.173L22.2182 30.8552C23.0569 29.2979 23.888 27.7345 24.7122 26.1703C25.2719 25.1092 25.8218 24.0411 26.3711 22.9737L37.524 21.8282C38.8899 23.8317 40.1839 25.8781 41.3087 28.0295ZM39.046 16.0815C38.5168 17.4791 37.9503 18.8623 37.3872 20.2482L26.5224 21.3639C26.3925 21.1926 26.2578 21.024 26.1161 20.863C24.8332 19.4101 23.5419 17.9662 22.2527 16.5181C22.2644 16.5036 22.2762 16.4926 22.2879 16.4794C21.7677 15.9599 21.2461 15.4404 20.7258 14.9194L23.7505 5.81302C23.9592 5.75775 24.1692 5.71146 24.3813 5.68866C26.0256 5.52147 27.672 5.33217 29.3204 5.23683C30.3298 5.18018 31.3447 5.14771 32.3714 5.22025L39.8551 13.6551C39.5974 14.469 39.3459 15.2849 39.046 16.0815ZM41.5567 8.44318C43.6211 10.5089 45.2198 12.8662 46.3501 15.3844C44.9517 14.422 43.4566 13.6303 41.8849 12.985C41.6403 12.8841 41.3895 12.795 41.1346 12.7073L33.7684 4.40502C33.8195 4.04645 33.8464 3.6872 33.8575 3.32518C36.6597 4.46582 39.2865 6.17366 41.5567 8.44318ZM17.5029 2.88924C17.5319 2.91066 17.5457 2.92862 17.5623 2.93345C19.246 3.51517 20.7777 4.37186 22.2216 5.38813L19.3959 13.8976C19.3814 13.9018 19.3676 13.9059 19.3537 13.9121C18.7755 14.1512 18.1862 14.3654 17.6169 14.6244C15.2713 15.6905 12.9845 16.8712 10.8303 18.2868L5.25418 14.9878C5.26247 14.8137 5.29217 14.6369 5.35159 14.4794C5.72605 13.4817 6.09429 12.4786 6.5178 11.501C6.8439 10.7479 7.2156 10.0205 7.62115 9.30954C7.88645 9.01661 8.16142 8.72644 8.44468 8.44318C11.0928 5.79575 14.2225 3.91588 17.5547 2.80426C17.5374 2.83121 17.5194 2.85953 17.5029 2.88924Z" fill="white"/>
</g>
<defs>
<clipPath id="clip0_72_1090">
<rect width="50" height="50" fill="white"/>
</clipPath>
</defs>
</svg>
