<svg width="51" height="52" viewBox="0 0 51 52" fill="none" xmlns="http://www.w3.org/2000/svg">
<g clip-path="url(#clip0_309_283)">
<path d="M31.4275 34.3777C27.6535 34.3777 24.0608 33.0488 21.3861 30.3102C15.4361 24.2435 16.2408 13.5315 23.1995 6.44795C30.1468 -0.635609 40.6528 -1.46761 46.6028 4.59906C52.5528 10.6657 51.7481 21.3777 44.7895 28.4613C40.9588 32.3671 36.0515 34.3777 31.4275 34.3777ZM36.5501 1.69861C32.2208 1.69861 27.5968 3.59372 23.9928 7.26839C17.4875 13.9013 16.6715 23.8737 22.1795 29.5013C27.6875 35.1173 37.4681 34.2968 43.9848 27.6524C50.4901 21.0195 51.3061 11.0471 45.7981 5.4195C43.3388 2.9235 40.0408 1.69861 36.5501 1.69861Z" fill="white"/>
<path d="M31.4274 30.9919C28.5147 30.9919 25.7721 29.9866 23.7434 27.9181C19.0967 23.1803 19.9014 14.6292 25.5567 8.87456C28.2767 6.10123 31.7107 4.36789 35.2127 4.00967C38.7601 3.63989 41.9674 4.71456 44.2341 7.02567C46.5007 9.33678 47.5547 12.607 47.1921 16.2239C46.8407 19.7946 45.1407 23.2959 42.4207 26.0692C39.2474 29.3048 35.1901 30.9919 31.4274 30.9919ZM36.5614 5.08434C36.1534 5.08434 35.7454 5.10745 35.3261 5.15367C32.0734 5.48878 28.8887 7.09501 26.3501 9.68345C21.1367 14.999 20.3321 22.8106 24.5367 27.0977C28.7414 31.3848 36.4027 30.5643 41.6161 25.2488C44.1547 22.6603 45.7301 19.4132 46.0587 16.0968C46.3874 12.8266 45.4467 9.89145 43.4294 7.83456C41.6727 6.03189 39.2701 5.08434 36.5614 5.08434Z" fill="white"/>
<path d="M21.3635 19.1707C21.2162 19.1707 21.0689 19.1129 20.9669 18.9973C20.7402 18.7662 20.7402 18.408 20.9669 18.1769L34.7029 4.1831C34.9295 3.95199 35.2809 3.95199 35.5075 4.1831C35.7342 4.41421 35.7342 4.77243 35.5075 5.00354L21.7602 19.0089C21.6582 19.1129 21.5109 19.1707 21.3635 19.1707Z" fill="white"/>
<path d="M21.9192 24.4746C21.7719 24.4746 21.6245 24.4168 21.5225 24.3012C21.2959 24.0701 21.2959 23.7119 21.5225 23.4808L39.9052 4.73766C40.1319 4.50655 40.4832 4.50655 40.7099 4.73766C40.9365 4.96878 40.9365 5.327 40.7099 5.55811L22.3159 24.3128C22.2025 24.4168 22.0665 24.4746 21.9192 24.4746Z" fill="white"/>
<path d="M24.1399 28.0799C23.9926 28.0799 23.8452 28.0222 23.7432 27.9066C23.5166 27.6755 23.5166 27.3173 23.7432 27.0862L43.4292 7.01415C43.6559 6.78304 44.0072 6.78304 44.2339 7.01415C44.4606 7.24526 44.4606 7.60349 44.2339 7.8346L24.5479 27.9066C24.4346 28.0222 24.2872 28.0799 24.1399 28.0799Z" fill="white"/>
<path d="M27.676 30.3448C27.5287 30.3448 27.3814 30.287 27.2794 30.1715C27.0527 29.9404 27.0527 29.5821 27.2794 29.351L45.662 10.6079C45.8887 10.3768 46.24 10.3768 46.4667 10.6079C46.6934 10.839 46.6934 11.1972 46.4667 11.4283L28.0727 30.183C27.9594 30.287 27.812 30.3448 27.676 30.3448Z" fill="white"/>
<path d="M32.8782 30.9111C32.7309 30.9111 32.5835 30.8533 32.4815 30.7378C32.2549 30.5066 32.2549 30.1484 32.4815 29.9173L46.2175 15.912C46.4442 15.6809 46.7955 15.6809 47.0222 15.912C47.2489 16.1431 47.2489 16.5013 47.0222 16.7324L33.2749 30.7378C33.1615 30.8533 33.0255 30.9111 32.8782 30.9111Z" fill="white"/>
<path d="M45.5032 18.0382C45.3559 18.0382 45.2085 17.9804 45.1065 17.8649L33.5919 6.13599C33.3652 5.90488 33.3652 5.54666 33.5919 5.31555C33.8185 5.08443 34.1699 5.08443 34.3965 5.31555L45.8999 17.056C46.1265 17.2871 46.1265 17.6453 45.8999 17.8764C45.7865 17.9804 45.6392 18.0382 45.5032 18.0382Z" fill="white"/>
<path d="M44.5515 22.9378C44.4041 22.9378 44.2568 22.88 44.1548 22.7644L28.7755 7.0951C28.5488 6.86399 28.5488 6.50576 28.7755 6.27465C29.0021 6.04354 29.3535 6.04354 29.5801 6.27465L44.9481 21.9555C45.1748 22.1866 45.1748 22.5449 44.9481 22.776C44.8461 22.88 44.6988 22.9378 44.5515 22.9378Z" fill="white"/>
<path d="M42.0241 26.2311C41.8767 26.2311 41.7294 26.1733 41.6274 26.0578L25.5567 9.672C25.3301 9.44089 25.3301 9.08267 25.5567 8.85156C25.7834 8.62044 26.1347 8.62044 26.3614 8.85156L42.4321 25.2373C42.6587 25.4684 42.6587 25.8267 42.4321 26.0578C42.3187 26.1733 42.1714 26.2311 42.0241 26.2311Z" fill="white"/>
<path d="M38.794 28.808C38.6467 28.808 38.4994 28.7502 38.3974 28.6347L23.0294 12.9653C22.8027 12.7342 22.8027 12.376 23.0294 12.1449C23.256 11.9138 23.6074 11.9138 23.834 12.1449L39.202 27.8142C39.4287 28.0453 39.4287 28.4036 39.202 28.6347C39.0887 28.7502 38.9414 28.808 38.794 28.808Z" fill="white"/>
<path d="M33.9886 29.7787C33.8412 29.7787 33.6939 29.7209 33.5919 29.6053L22.0772 17.8649C21.8506 17.6338 21.8506 17.2755 22.0772 17.0444C22.3039 16.8133 22.6552 16.8133 22.8819 17.0444L34.3966 28.7849C34.6232 29.016 34.6232 29.3742 34.3966 29.6053C34.2832 29.7209 34.1359 29.7787 33.9886 29.7787Z" fill="white"/>
<path d="M15.8561 38.9768C15.7087 38.9768 15.5614 38.9191 15.4594 38.8035C15.2327 38.5724 15.2327 38.2142 15.4594 37.9831L22.6674 30.6337C22.8941 30.4026 23.2454 30.4026 23.4721 30.6337C23.6987 30.8648 23.6987 31.2231 23.4721 31.4542L16.2641 38.8035C16.1394 38.9191 16.0034 38.9768 15.8561 38.9768ZM13.4534 36.5271C13.3061 36.5271 13.1587 36.4693 13.0567 36.3537C12.8301 36.1226 12.8301 35.7644 13.0567 35.5333L20.2647 28.184C20.4914 27.9528 20.8427 27.9528 21.0694 28.184C21.2961 28.4151 21.2961 28.7733 21.0694 29.0044L13.8614 36.3537C13.7367 36.4693 13.6007 36.5271 13.4534 36.5271Z" fill="white"/>
<path d="M3.60426 51.607C2.81093 51.607 2.00626 51.295 1.40559 50.6826C0.192927 49.4461 0.192927 47.4239 1.40559 46.1875L11.8436 35.5448C12.3989 34.9786 13.2943 34.9786 13.8496 35.5448L16.2523 37.9946C16.8076 38.5608 16.8076 39.4737 16.2523 40.0399L5.81426 50.6826C5.20226 51.3066 4.40893 51.607 3.60426 51.607ZM12.8523 36.2728C12.7843 36.2728 12.7049 36.2959 12.6483 36.3537L2.21026 46.9963C1.43959 47.7821 1.43959 49.0648 2.21026 49.8506C2.98093 50.6363 4.23893 50.6363 5.00959 49.8506L15.4476 39.2079C15.5156 39.1386 15.5269 39.0461 15.5269 38.9999C15.5269 38.9537 15.5156 38.8728 15.4476 38.7919L13.0449 36.3421C12.9996 36.3074 12.9203 36.2728 12.8523 36.2728Z" fill="white"/>
<path d="M15.6633 34.2737C15.618 34.2737 15.584 34.2737 15.5387 34.2621C15.278 34.2043 15.0967 33.9617 15.0967 33.6959C15.0967 33.6497 15.0967 33.615 15.108 33.5688L17.6013 22.4639C17.6693 22.1519 17.9753 21.9554 18.2813 22.0248C18.542 22.0826 18.7233 22.3252 18.7233 22.591C18.7233 22.6372 18.7233 22.6719 18.712 22.7181L16.2187 33.823C16.162 34.0888 15.924 34.2737 15.6633 34.2737Z" fill="white"/>
<path d="M18.0657 36.7235C17.805 36.7235 17.5784 36.5386 17.5104 36.2728C17.499 36.2266 17.499 36.1803 17.499 36.1457C17.499 35.8799 17.6804 35.6488 17.941 35.5795L28.8324 33.0372C29.1384 32.9679 29.4444 33.1643 29.5124 33.4763C29.5237 33.5226 29.5237 33.5688 29.5237 33.6035C29.5237 33.8692 29.3424 34.1003 29.0817 34.1697L18.1904 36.7119C18.1564 36.7119 18.111 36.7235 18.0657 36.7235Z" fill="white"/>
<path d="M7.66188 48.5564C7.51454 48.5564 7.36721 48.4987 7.26521 48.3831L3.66121 44.7084C3.55921 44.6044 3.49121 44.4542 3.49121 44.304C3.49121 44.1538 3.54788 44.0036 3.66121 43.8995L8.38721 39.0693C8.48921 38.9653 8.63654 38.896 8.78388 38.896C8.93121 38.896 9.07855 38.9538 9.18054 39.0693L12.7845 42.744C13.0112 42.9751 13.0112 43.3333 12.7845 43.5644L8.04721 48.3947C7.95654 48.4987 7.80921 48.5564 7.66188 48.5564ZM4.86254 44.304L7.66188 47.1582L11.5945 43.1484L8.79521 40.2942L4.86254 44.304Z" fill="white"/>
<path d="M25.2731 51.607C21.6805 51.607 18.7451 48.6257 18.7451 44.951C18.7451 41.2764 21.6691 38.295 25.2731 38.295C28.8658 38.295 31.8011 41.2764 31.8011 44.951C31.8011 48.6257 28.8771 51.607 25.2731 51.607ZM25.2731 39.4622C22.3038 39.4622 19.8785 41.9235 19.8785 44.9626C19.8785 48.0017 22.2925 50.463 25.2731 50.463C28.2425 50.463 30.6678 48.0017 30.6678 44.9626C30.6678 41.9235 28.2425 39.4622 25.2731 39.4622Z" fill="white"/>
<path d="M21.3407 50.0933C21.182 50.0933 21.0233 50.0239 20.91 49.8968C20.706 49.6542 20.7287 49.2959 20.9553 49.0764C22.1227 48.0364 22.78 46.5226 22.78 44.9511C22.78 43.3795 22.1113 41.8657 20.9553 40.8257C20.7173 40.6177 20.6947 40.2479 20.91 40.0053C21.114 39.7626 21.4767 39.7395 21.7147 39.9591C23.12 41.2186 23.9247 43.0444 23.9247 44.9511C23.9247 46.8577 23.12 48.6835 21.7147 49.9431C21.6013 50.0471 21.4767 50.0933 21.3407 50.0933Z" fill="white"/>
<path d="M29.2061 50.0933C29.0701 50.0933 28.9341 50.047 28.8321 49.9546C27.4267 48.695 26.6221 46.8693 26.6221 44.9626C26.6221 43.0559 27.4267 41.2301 28.8321 39.9706C29.0701 39.7626 29.4214 39.7857 29.6367 40.0168C29.8407 40.2595 29.8181 40.6177 29.5914 40.8373C28.4241 41.8773 27.7667 43.391 27.7667 44.9626C27.7667 46.5341 28.4354 48.0479 29.5914 49.0879C29.8294 49.2959 29.8521 49.6657 29.6367 49.9084C29.5234 50.0239 29.3647 50.0933 29.2061 50.0933Z" fill="white"/>
</g>
<defs>
<clipPath id="clip0_309_283">
<rect width="51" height="52" fill="white"/>
</clipPath>
</defs>
</svg>
