<svg width="49" height="49" viewBox="0 0 49 49" fill="none" xmlns="http://www.w3.org/2000/svg">
<g clip-path="url(#clip0_72_907)">
<path d="M41.65 26.1333C40.2024 26.1351 38.7876 26.565 37.5838 27.369C40.9616 19.5571 38.912 10.4581 32.511 4.84902C26.1101 -0.760104 16.8208 -1.59735 9.52003 2.77684C2.21928 7.15103 -1.42424 15.7369 0.502311 24.0268C2.42886 32.3167 9.48516 38.416 17.9666 39.1224V44.9738C17.9657 47.0075 19.4819 48.7223 21.5004 48.9703C23.5188 49.2183 25.4051 47.9215 25.8965 45.9481L27.2456 40.5745C28.2249 40.3065 29.1381 39.8385 29.9275 39.2H37.0391C37.8285 39.8385 38.7417 40.3065 39.721 40.5745L41.0693 45.9449C41.5592 47.9193 43.4454 49.2177 45.4645 48.9705C47.4837 48.7233 49.0009 47.0081 49 44.9738V33.4833C48.9955 29.4259 45.7074 26.1378 41.65 26.1333ZM12.005 28.7042L4.09065 28.6593C2.79204 26.4452 1.98566 23.9773 1.7264 21.4236L8.0719 16.7417L12.4133 18.375L14.6526 25.1713L12.005 28.7042ZM4.97674 9.18587L6.99227 15.5134L1.6333 19.4595C1.66011 15.7708 2.82772 12.1806 4.97592 9.18179L4.97674 9.18587ZM16.1528 24.5L14.0295 18.0606L19.6 14.0712L25.1696 18.0606L23.0471 24.5H16.1528ZM25.3166 26.1333H25.2856L24.5506 25.1656L26.7866 18.3693L31.115 16.7074L37.4719 21.3624C37.2501 23.5954 36.6134 25.7674 35.5944 27.7667H29.9275C28.6221 26.7118 26.995 26.1354 25.3166 26.1333ZM32.1922 15.4734L34.1889 9.13279C36.3479 12.1271 37.5262 15.7168 37.5617 19.4081L32.1922 15.4734ZM32.9582 7.60072L30.5768 15.1639L26.2485 16.8258L20.4166 12.6469V7.76896L26.8438 3.16377C29.1722 4.19471 31.256 5.70684 32.9582 7.60072ZM25.0112 2.46797L19.6 6.34551L14.1887 2.46797C17.7104 1.35511 21.4895 1.35511 25.0112 2.46797ZM12.3529 3.16377L18.7833 7.76896V12.6469L12.9458 16.8282L8.606 15.1949L6.20174 7.64646C7.9111 5.73159 10.0092 4.20336 12.3561 3.16377H12.3529ZM5.16865 30.2983L11.8245 30.3351L13.9331 36.6438C10.4262 35.4849 7.36442 33.2682 5.16865 30.2983ZM17.9666 33.4833V37.4646C17.2466 37.4023 16.531 37.2965 15.8237 37.1477L13.3223 29.6662L15.9699 26.1333H23.2309L23.4252 26.389C20.2108 27.2473 17.9726 30.1563 17.9666 33.4833ZM47.3666 44.9738C47.3656 46.1818 46.4641 47.1994 45.2651 47.3461C44.0661 47.4927 42.9459 46.7225 42.6537 45.5504L41.1837 39.6949C41.1066 39.3886 40.8598 39.1542 40.5499 39.093C39.558 38.8966 38.636 38.4407 37.8778 37.7717C37.7288 37.6399 37.5369 37.567 37.338 37.5667H29.6286C29.4295 37.5668 29.2372 37.6397 29.088 37.7717C28.3298 38.4407 27.4078 38.8966 26.4159 39.093C26.106 39.1542 25.8592 39.3886 25.7821 39.6949L24.3121 45.5537C24.0212 46.7276 22.8995 47.4994 21.6991 47.3517C20.4988 47.204 19.5977 46.1833 19.6 44.9738V33.4833C19.5974 31.237 20.9122 29.1979 22.9594 28.2731C25.0066 27.3483 27.4058 27.7098 29.0896 29.1967C29.2386 29.3277 29.4302 29.4 29.6286 29.4H37.338C37.5364 29.4 37.728 29.3277 37.877 29.1967C39.5608 27.7098 41.96 27.3483 44.0072 28.2731C46.0544 29.1979 47.3692 31.237 47.3666 33.4833V44.9738Z" fill="white"/>
<path d="M27.7665 32.6667H26.1331V31.0333C26.1331 30.5823 25.7675 30.2167 25.3165 30.2167C24.8654 30.2167 24.4998 30.5823 24.4998 31.0333V32.6667H22.8665C22.4154 32.6667 22.0498 33.0323 22.0498 33.4833C22.0498 33.9344 22.4154 34.3 22.8665 34.3H24.4998V35.9333C24.4998 36.3844 24.8654 36.75 25.3165 36.75C25.7675 36.75 26.1331 36.3844 26.1331 35.9333V34.3H27.7665C28.2175 34.3 28.5831 33.9344 28.5831 33.4833C28.5831 33.0323 28.2175 32.6667 27.7665 32.6667Z" fill="white"/>
<path d="M31.8501 31.0333H31.0335C30.5824 31.0333 30.2168 31.399 30.2168 31.85C30.2168 32.301 30.5824 32.6667 31.0335 32.6667H31.8501C32.3012 32.6667 32.6668 32.301 32.6668 31.85C32.6668 31.399 32.3012 31.0333 31.8501 31.0333Z" fill="white"/>
<path d="M35.9331 31.0333H35.1165C34.6654 31.0333 34.2998 31.399 34.2998 31.85C34.2998 32.301 34.6654 32.6667 35.1165 32.6667H35.9331C36.3842 32.6667 36.7498 32.301 36.7498 31.85C36.7498 31.399 36.3842 31.0333 35.9331 31.0333Z" fill="white"/>
<path d="M40.0171 32.6666H39.2005C38.7494 32.6666 38.3838 33.0323 38.3838 33.4833C38.3838 33.9343 38.7494 34.3 39.2005 34.3H40.0171C40.4682 34.3 40.8338 33.9343 40.8338 33.4833C40.8338 33.0323 40.4682 32.6666 40.0171 32.6666Z" fill="white"/>
<path d="M44.9165 32.6666H44.0999C43.6488 32.6666 43.2832 33.0323 43.2832 33.4833C43.2832 33.9343 43.6488 34.3 44.0999 34.3H44.9165C45.3676 34.3 45.7332 33.9343 45.7332 33.4833C45.7332 33.0323 45.3676 32.6666 44.9165 32.6666Z" fill="white"/>
<path d="M42.0579 34.7084C41.6068 34.7084 41.2412 35.074 41.2412 35.525V36.3417C41.2412 36.7927 41.6068 37.1584 42.0579 37.1584C42.5089 37.1584 42.8745 36.7927 42.8745 36.3417V35.525C42.8745 35.074 42.5089 34.7084 42.0579 34.7084Z" fill="white"/>
<path d="M42.0579 29.8083C41.6068 29.8083 41.2412 30.174 41.2412 30.625V31.4417C41.2412 31.8927 41.6068 32.2583 42.0579 32.2583C42.5089 32.2583 42.8745 31.8927 42.8745 31.4417V30.625C42.8745 30.174 42.5089 29.8083 42.0579 29.8083Z" fill="white"/>
</g>
<defs>
<clipPath id="clip0_72_907">
<rect width="49" height="49" fill="white"/>
</clipPath>
</defs>
</svg>
