<svg width="31" height="30" viewBox="0 0 31 30" fill="none" xmlns="http://www.w3.org/2000/svg">
<g clip-path="url(#clip0_506_156)">
<g filter="url(#filter0_d_506_156)">
<path d="M27.125 7.0625L16.7916 1.28812C16.3989 1.0687 15.9534 0.953186 15.5 0.953186C15.0465 0.953186 14.601 1.0687 14.2083 1.28812L3.87496 7.0625C3.67768 7.17285 3.49635 7.30798 3.33569 7.46437L15.5 14.2594L27.6642 7.46312C27.5035 7.30717 27.3222 7.17247 27.125 7.0625ZM16.944 7.94625C16.4979 8.16625 16.0043 8.28094 15.5035 8.28094C15.0028 8.28094 14.5091 8.16625 14.063 7.94625C13.2641 7.5 13.2557 6.775 14.0494 6.32875C14.4972 6.10872 14.9923 5.99404 15.4945 5.99404C15.9967 5.99404 16.4918 6.10872 16.9395 6.32875C17.1139 6.3861 17.2653 6.49473 17.3727 6.63945C17.4801 6.78417 17.5382 6.95775 17.5387 7.13594C17.5391 7.31412 17.4821 7.488 17.3755 7.63328C17.2689 7.77856 17.118 7.88798 16.944 7.94625Z" fill="white"/>
</g>
<g filter="url(#filter1_d_506_156)">
<path d="M2.684 8.54248C2.61789 8.76479 2.58398 8.9949 2.58325 9.22623V20.7737C2.58349 21.2123 2.70297 21.6432 2.92969 22.023C3.15642 22.4028 3.4824 22.7182 3.87492 22.9375L14.2083 28.7106C14.4105 28.8235 14.6278 28.9091 14.8541 28.965V15.34L2.684 8.54248ZM5.49273 15.63C5.14186 15.41 4.84991 15.1126 4.64087 14.7622C4.43182 14.4118 4.31164 14.0184 4.29019 13.6144C4.29019 12.8756 4.83269 12.5781 5.50113 12.9512C5.85026 13.171 6.14076 13.4675 6.34896 13.8166C6.55716 14.1657 6.67715 14.5575 6.69915 14.96C6.69721 15.7037 6.15729 16 5.49273 15.63ZM8.39575 20.5837C8.04483 20.3636 7.75286 20.0661 7.54382 19.7156C7.33477 19.3651 7.21461 18.9716 7.19321 18.5675C7.19321 17.8294 7.73506 17.5312 8.4035 17.905C8.75293 18.1245 9.0437 18.421 9.25204 18.7701C9.46037 19.1192 9.58036 19.5111 9.60217 19.9137C9.59829 20.6569 9.05838 20.9544 8.39575 20.5837ZM11.2968 25.5369C10.946 25.3169 10.654 25.0194 10.445 24.6691C10.2359 24.3187 10.1157 23.9253 10.0943 23.5212C10.0943 22.7825 10.6361 22.485 11.3046 22.8581C11.6539 23.0777 11.9446 23.3742 12.1529 23.7233C12.3612 24.0724 12.4813 24.4643 12.5033 24.8669C12.4994 25.61 11.9588 25.9081 11.2949 25.5369H11.2968Z" fill="white"/>
</g>
<g filter="url(#filter2_d_506_156)">
<path d="M28.3158 8.54248L16.1458 15.3419V28.9669C16.372 28.911 16.5893 28.8254 16.7916 28.7125L27.1249 22.9375C27.5176 22.7181 27.8437 22.4025 28.0705 22.0224C28.2972 21.6424 28.4166 21.2113 28.4166 20.7725V9.22623C28.4159 8.9949 28.3819 8.76479 28.3158 8.54248ZM20.1783 15.9444C20.8468 15.5694 21.3867 15.8687 21.3886 16.6119C21.3671 17.0154 21.247 17.4083 21.0382 17.7582C20.8294 18.1082 20.5378 18.4052 20.1874 18.625C19.5235 18.9962 18.979 18.7006 18.9764 17.9625C18.9982 17.5581 19.1185 17.1644 19.3277 16.8136C19.5368 16.4629 19.8287 16.165 20.1796 15.9444H20.1783ZM20.2016 23.9856C19.5377 24.3562 18.9932 24.0612 18.9913 23.3225C19.0131 22.9185 19.1334 22.5253 19.3425 22.1749C19.5515 21.8246 19.8432 21.5271 20.1938 21.3069C20.8623 20.9319 21.4022 21.2312 21.4048 21.9744C21.3823 22.3775 21.2618 22.7699 21.0529 23.1194C20.844 23.4689 20.5528 23.7657 20.2029 23.9856H20.2016ZM25.0014 13.25C25.6699 12.875 26.2098 13.1744 26.2124 13.9175C26.1903 14.3208 26.0698 14.7133 25.8607 15.0629C25.6517 15.4125 25.3601 15.7092 25.0098 15.9287C24.3453 16.3 23.8053 16.0019 23.8034 15.2637C23.8246 14.8604 23.9442 14.4676 24.1524 14.1176C24.3607 13.7676 24.6516 13.4703 25.0014 13.25ZM25.0253 21.2912C24.3614 21.6625 23.8215 21.3644 23.8189 20.6262C23.84 20.2228 23.9597 19.8299 24.168 19.4799C24.3764 19.1298 24.6675 18.8326 25.0176 18.6125C25.686 18.2375 26.2259 18.5369 26.2279 19.28C26.2059 19.6833 26.0855 20.0759 25.8765 20.4255C25.6674 20.7751 25.3757 21.0718 25.0253 21.2912Z" fill="white"/>
</g>
</g>
<defs>
<filter id="filter0_d_506_156" x="2.33569" y="-0.046814" width="26.3286" height="15.3062" filterUnits="userSpaceOnUse" color-interpolation-filters="sRGB">
<feFlood flood-opacity="0" result="BackgroundImageFix"/>
<feColorMatrix in="SourceAlpha" type="matrix" values="0 0 0 0 0 0 0 0 0 0 0 0 0 0 0 0 0 0 127 0" result="hardAlpha"/>
<feOffset/>
<feGaussianBlur stdDeviation="0.5"/>
<feComposite in2="hardAlpha" operator="out"/>
<feColorMatrix type="matrix" values="0 0 0 0 1 0 0 0 0 0.843137 0 0 0 0 0 0 0 0 1 0"/>
<feBlend mode="normal" in2="BackgroundImageFix" result="effect1_dropShadow_506_156"/>
<feBlend mode="normal" in="SourceGraphic" in2="effect1_dropShadow_506_156" result="shape"/>
</filter>
<filter id="filter1_d_506_156" x="1.58325" y="7.54248" width="14.2708" height="22.4225" filterUnits="userSpaceOnUse" color-interpolation-filters="sRGB">
<feFlood flood-opacity="0" result="BackgroundImageFix"/>
<feColorMatrix in="SourceAlpha" type="matrix" values="0 0 0 0 0 0 0 0 0 0 0 0 0 0 0 0 0 0 127 0" result="hardAlpha"/>
<feOffset/>
<feGaussianBlur stdDeviation="0.5"/>
<feComposite in2="hardAlpha" operator="out"/>
<feColorMatrix type="matrix" values="0 0 0 0 1 0 0 0 0 0.843137 0 0 0 0 0 0 0 0 1 0"/>
<feBlend mode="normal" in2="BackgroundImageFix" result="effect1_dropShadow_506_156"/>
<feBlend mode="normal" in="SourceGraphic" in2="effect1_dropShadow_506_156" result="shape"/>
</filter>
<filter id="filter2_d_506_156" x="15.1458" y="7.54248" width="14.2708" height="22.4244" filterUnits="userSpaceOnUse" color-interpolation-filters="sRGB">
<feFlood flood-opacity="0" result="BackgroundImageFix"/>
<feColorMatrix in="SourceAlpha" type="matrix" values="0 0 0 0 0 0 0 0 0 0 0 0 0 0 0 0 0 0 127 0" result="hardAlpha"/>
<feOffset/>
<feGaussianBlur stdDeviation="0.5"/>
<feComposite in2="hardAlpha" operator="out"/>
<feColorMatrix type="matrix" values="0 0 0 0 1 0 0 0 0 0.843137 0 0 0 0 0 0 0 0 1 0"/>
<feBlend mode="normal" in2="BackgroundImageFix" result="effect1_dropShadow_506_156"/>
<feBlend mode="normal" in="SourceGraphic" in2="effect1_dropShadow_506_156" result="shape"/>
</filter>
<clipPath id="clip0_506_156">
<rect width="31" height="30" fill="white"/>
</clipPath>
</defs>
</svg>
