<svg width="488" height="512" viewBox="0 0 488 512" fill="none" xmlns="http://www.w3.org/2000/svg">
<path d="M432.79 59.71C433.775 59.7124 434.751 59.5192 435.661 59.1416C436.57 58.7639 437.396 58.2093 438.09 57.51L451 44.62C452.408 43.2117 453.199 41.3017 453.199 39.31C453.199 37.3184 452.408 35.4083 451 34C449.592 32.5917 447.682 31.8005 445.69 31.8005C443.698 31.8005 441.788 32.5917 440.38 34L427.49 46.91C426.442 47.9589 425.729 49.2947 425.44 50.7487C425.151 52.2026 425.3 53.7096 425.867 55.0793C426.434 56.4489 427.395 57.6197 428.627 58.4439C429.859 59.2681 431.308 59.7087 432.79 59.71ZM410.85 38.46C411.093 38.4747 411.337 38.4747 411.58 38.46C413.43 38.4476 415.21 37.7529 416.579 36.5092C417.948 35.2654 418.81 33.5601 419 31.72L421.29 8.23002C421.339 6.33461 420.669 4.49087 419.414 3.06984C418.158 1.6488 416.411 0.755932 414.524 0.570907C412.637 0.385882 410.75 0.922433 409.243 2.07259C407.736 3.22274 406.72 4.90114 406.4 6.77002L404.11 30.27C404.015 31.2503 404.114 32.2398 404.401 33.182C404.688 34.1241 405.158 35.0004 405.784 35.761C406.41 36.5215 407.179 37.1513 408.048 37.6144C408.918 38.0775 409.87 38.3648 410.85 38.46ZM446.54 74.15C446.719 76.004 447.582 77.7248 448.962 78.9765C450.341 80.2283 452.137 80.9212 454 80.92H454.74L478.24 78.63C479.22 78.5342 480.172 78.2461 481.041 77.7824C481.91 77.3187 482.679 76.6884 483.305 75.9274C483.93 75.1664 484.4 74.2897 484.686 73.3473C484.973 72.4049 485.071 71.4153 484.975 70.435C484.879 69.4547 484.591 68.5029 484.127 67.6339C483.664 66.7648 483.033 65.9957 482.272 65.3703C481.511 64.7449 480.635 64.2755 479.692 63.9889C478.75 63.7023 477.76 63.6042 476.78 63.7L453.28 66C451.308 66.1925 449.492 67.1578 448.229 68.6848C446.966 70.2119 446.359 72.1767 446.54 74.15ZM9.77 78.6L33.27 80.89H34.01C34.9949 80.9366 35.9794 80.7888 36.9072 80.455C37.8349 80.1211 38.6879 79.6078 39.4173 78.9443C40.1467 78.2809 40.7383 77.4802 41.1582 76.5881C41.5782 75.696 41.8184 74.7299 41.865 73.745C41.9116 72.7601 41.7638 71.7757 41.43 70.8479C41.0961 69.9201 40.5828 69.0671 39.9193 68.3377C39.2558 67.6083 38.4552 67.0168 37.5631 66.5968C36.671 66.1768 35.7049 65.9366 34.72 65.89L11.23 63.67C9.25016 63.4764 7.2745 64.0772 5.73764 65.3403C4.20078 66.6033 3.22861 68.4252 3.035 70.405C2.84139 72.3849 3.4422 74.3605 4.70526 75.8974C5.96832 77.4342 7.79016 78.4064 9.77 78.6ZM479.23 408.91C476.555 406.217 473.374 404.079 469.869 402.62C466.365 401.162 462.606 400.411 458.81 400.411C455.014 400.411 451.255 401.162 447.751 402.62C444.246 404.079 441.065 406.217 438.39 408.91L436.44 410.86L358.83 316.86L304.4 250.91L332.62 227.4C365.886 199.558 407.096 182.934 450.37 179.9C454.457 183.471 459.702 185.437 465.13 185.43C469.589 185.43 473.949 184.11 477.658 181.635C481.368 179.16 484.261 175.641 485.972 171.523C487.684 167.406 488.138 162.873 487.276 158.498C486.414 154.123 484.275 150.101 481.13 146.94L342.23 7.38002C340.138 5.26509 337.646 3.58785 334.899 2.44612C332.152 1.30439 329.205 0.721015 326.23 0.730021C321.897 0.72593 317.655 1.97027 314.01 4.31417C310.366 6.65808 307.474 10.0023 305.681 13.9467C303.887 17.8911 303.268 22.2687 303.898 26.5557C304.527 30.8427 306.379 34.8576 309.23 38.12C306.072 81.5006 289.575 122.843 262 156.48L244.2 178L226.05 156C211.31 138.137 199.641 117.949 191.52 96.26C184.478 77.4359 180.177 57.6975 178.75 37.65C181.605 34.3878 183.459 30.372 184.09 26.0834C184.721 21.7947 184.103 17.415 182.309 13.4687C180.515 9.52245 177.622 6.1768 173.976 3.83241C170.329 1.48802 166.085 0.244245 161.75 0.250021C158.775 0.241015 155.828 0.824388 153.081 1.96612C150.334 3.10785 147.842 4.78509 145.75 6.90002L6.9 146.4C3.75459 149.561 1.61602 153.583 0.75421 157.958C-0.107602 162.333 0.34596 166.866 2.05765 170.983C3.76935 175.101 6.66246 178.62 10.3719 181.095C14.0813 183.57 18.4407 184.89 22.9 184.89C28.3285 184.901 33.5753 182.935 37.66 179.36C80.9342 182.392 122.145 199.016 155.41 226.86L184.11 250.77L129.22 317.27L51.56 411.35L49.56 409.35C46.8903 406.65 43.7097 404.509 40.2038 403.051C36.6979 401.594 32.9368 400.849 29.14 400.86C25.3432 400.849 21.5821 401.594 18.0762 403.051C14.5703 404.509 11.3897 406.65 8.72 409.35C3.32049 414.795 0.290833 422.152 0.290833 429.82C0.290833 437.488 3.32049 444.845 8.72 450.29L40 481.69C42.6718 484.391 45.8539 486.533 49.3613 487.992C52.8686 489.451 56.6312 490.198 60.43 490.19H60.61L76.16 505.8C78.0393 507.692 80.2743 509.193 82.7362 510.218C85.1981 511.242 87.8384 511.77 90.505 511.77C93.1716 511.77 95.8119 511.242 98.2738 510.218C100.736 509.193 102.971 507.692 104.85 505.8C108.631 501.977 110.752 496.817 110.752 491.44C110.752 486.063 108.631 480.903 104.85 477.08L89.27 461.43C89.3052 457.599 88.579 453.799 87.1336 450.25C85.6882 446.702 83.5523 443.476 80.85 440.76L78.85 438.76L172.56 360.7L244.29 300.94L409.17 438.26L407.17 440.26C404.467 442.976 402.33 446.201 400.885 449.75C399.439 453.298 398.714 457.099 398.75 460.93L383.17 476.57C379.389 480.391 377.269 485.55 377.269 490.925C377.269 496.3 379.389 501.459 383.17 505.28C385.05 507.173 387.285 508.676 389.748 509.701C392.211 510.727 394.852 511.255 397.52 511.255C400.188 511.255 402.829 510.727 405.292 509.701C407.755 508.676 409.991 507.173 411.87 505.28L427.4 489.67H427.59C431.383 489.68 435.141 488.936 438.644 487.482C442.148 486.028 445.328 483.893 448 481.2L479.21 449.84C484.612 444.4 487.645 437.046 487.648 429.379C487.652 421.713 484.626 414.356 479.23 408.91ZM320.87 18C321.571 17.2912 322.406 16.729 323.326 16.3462C324.246 15.9633 325.233 15.7674 326.23 15.77C327.228 15.7667 328.217 15.9621 329.139 16.345C330.061 16.7279 330.898 17.2905 331.6 18L470.47 157.47C471.877 158.891 472.666 160.81 472.666 162.81C472.666 164.81 471.877 166.729 470.47 168.15C469.769 168.859 468.934 169.421 468.014 169.804C467.094 170.187 466.107 170.383 465.11 170.38C464.112 170.383 463.123 170.188 462.201 169.805C461.279 169.422 460.442 168.86 459.74 168.15L320.87 28.64C319.475 27.2206 318.693 25.3101 318.693 23.32C318.693 21.3299 319.475 19.4194 320.87 18ZM273.51 166C300.307 133.363 317.424 93.87 322.92 52L436.6 166.16C394.763 171.516 355.339 188.753 323 215.83L296.46 237.94L251.38 192.85L273.51 166ZM28.26 167.66C27.5577 168.37 26.7212 168.932 25.7993 169.315C24.8773 169.698 23.8883 169.893 22.89 169.89C21.3989 169.885 19.9425 169.44 18.7035 168.61C17.4645 167.78 16.4981 166.603 15.9256 165.227C15.3531 163.85 15.1999 162.335 15.4853 160.871C15.7708 159.407 16.4821 158.061 17.53 157L156.4 17.47C157.821 16.0712 159.737 15.2897 161.731 15.2953C163.725 15.3009 165.637 16.0932 167.05 17.5C168.464 18.9068 169.265 20.8145 169.28 22.8086C169.295 24.8027 168.522 26.7222 167.13 28.15L28.26 167.66ZM165 215.34C132.658 188.267 93.2353 171.03 51.4 165.67L165.07 51.49C170.473 93.3873 187.605 132.905 214.49 165.49L234.49 189.7L193.66 239.2L165 215.34ZM70.2 471.11C68.9181 472.402 67.393 473.428 65.7127 474.128C64.0324 474.828 62.2302 475.188 60.41 475.188C58.5898 475.188 56.7875 474.828 55.1073 474.128C53.427 473.428 51.9019 472.402 50.62 471.11L19.4 439.75C16.7803 437.125 15.309 433.568 15.309 429.86C15.309 426.152 16.7803 422.595 19.4 419.97C20.6856 418.679 22.214 417.655 23.897 416.958C25.58 416.26 27.3844 415.902 29.2062 415.905C31.0281 415.908 32.8314 416.271 34.5123 416.974C36.1931 417.677 37.7183 418.705 39 420L46.78 427.82L62.43 443.55L62.52 443.63L70.22 451.36C72.8279 453.986 74.2898 457.538 74.2861 461.239C74.2823 464.94 72.8132 468.489 70.2 471.11ZM80.83 481.69C82.0741 480.434 83.202 479.069 84.2 477.61L94.2 487.61C95.1918 488.618 95.7476 489.976 95.7476 491.39C95.7476 492.804 95.1918 494.162 94.2 495.17C93.7137 495.661 93.1351 496.05 92.4975 496.316C91.8598 496.582 91.1758 496.719 90.485 496.719C89.7942 496.719 89.1102 496.582 88.4725 496.316C87.8349 496.05 87.2563 495.661 86.77 495.17L76.77 485.08C78.2235 484.076 79.5824 482.941 80.83 481.69ZM68.21 428.07L62.21 422.07L135.55 333.22L156.72 354.39L68.21 428.07ZM241.21 283.92C240.045 284.387 239.014 285.136 238.21 286.1C238.002 286.363 237.808 286.637 237.63 286.92L168.25 344.71L145.11 321.56L241.76 204.47L284.86 247.58L241.21 283.92ZM256 291.15L292.83 260.46L342.83 321.08L319.69 344.22L256 291.15ZM401.23 494.73C400.744 495.219 400.166 495.607 399.529 495.872C398.892 496.137 398.21 496.274 397.52 496.274C396.83 496.274 396.148 496.137 395.511 495.872C394.874 495.607 394.296 495.219 393.81 494.73C392.816 493.723 392.258 492.365 392.258 490.95C392.258 489.535 392.816 488.177 393.81 487.17L403.81 477.17C405.818 480.114 408.354 482.661 411.29 484.68L401.23 494.73ZM331.3 353.87L352.47 332.7L425.8 421.54L419.8 427.54L331.3 353.87ZM468.6 439.26L437.38 470.62C436.098 471.912 434.573 472.938 432.893 473.638C431.212 474.338 429.41 474.698 427.59 474.698C425.77 474.698 423.968 474.338 422.287 473.638C420.607 472.938 419.082 471.912 417.8 470.62C415.183 467.996 413.714 464.441 413.714 460.735C413.714 457.029 415.183 453.474 417.8 450.85L449 419.49C450.282 418.198 451.807 417.172 453.487 416.472C455.168 415.772 456.97 415.412 458.79 415.412C460.61 415.412 462.412 415.772 464.093 416.472C465.773 417.172 467.298 418.198 468.58 419.49C471.199 422.112 472.672 425.665 472.676 429.371C472.68 433.077 471.214 436.633 468.6 439.26ZM69 31.72C69.1811 33.5741 70.0448 35.2947 71.4234 36.5477C72.802 37.8006 74.5971 38.4964 76.46 38.5C76.7031 38.5147 76.9469 38.5147 77.19 38.5C78.1703 38.4048 79.1223 38.1175 79.9916 37.6544C80.8608 37.1913 81.6304 36.5615 82.2562 35.801C82.8821 35.0404 83.3521 34.1641 83.6392 33.222C83.9264 32.2798 84.0252 31.2903 83.93 30.31L81.6 6.77002C81.4064 4.79018 80.4342 2.96834 78.8974 1.70528C77.3605 0.442223 75.3848 -0.158587 73.405 0.0350207C71.4252 0.228629 69.6033 1.2008 68.3403 2.73766C67.0772 4.27452 66.4764 6.25018 66.67 8.23002L69 31.72ZM50 57.51C50.6866 58.2469 51.5146 58.8379 52.4346 59.2478C53.3546 59.6577 54.3477 59.8782 55.3548 59.8959C56.3618 59.9137 57.3621 59.7285 58.296 59.3512C59.2299 58.974 60.0782 58.4126 60.7904 57.7004C61.5026 56.9882 62.064 56.1399 62.4412 55.206C62.8184 54.2721 63.0037 53.2718 62.9859 52.2648C62.9681 51.2578 62.7477 50.2646 62.3378 49.3446C61.9279 48.4246 61.3369 47.5966 60.6 46.91L47.62 34C46.2117 32.5917 44.3016 31.8005 42.31 31.8005C40.3184 31.8005 38.4083 32.5917 37 34C35.5917 35.4083 34.8005 37.3184 34.8005 39.31C34.8005 41.3017 35.5917 43.2117 37 44.62L50 57.51Z" fill="white"/>
</svg>
