<svg width="32" height="32" viewBox="0 0 32 32" fill="none" xmlns="http://www.w3.org/2000/svg">
<g clip-path="url(#clip0_16_2)">
<path d="M28.354 1.354C28.4105 1.29723 28.4526 1.22772 28.4766 1.15132C28.5007 1.07491 28.506 0.993844 28.4922 0.914943C28.4784 0.836043 28.4458 0.761618 28.3972 0.697933C28.3486 0.634249 28.2854 0.58317 28.213 0.548996C27.0956 0.0212962 25.8422 -0.14752 24.625 0.0657336C23.4078 0.278987 22.2865 0.863849 21.415 1.74C19.717 3.449 19.124 6.133 19.916 8.377L8.377 19.916C7.73595 19.69 7.06071 19.5763 6.381 19.58C4.667 19.58 3.005 20.262 1.822 21.452C0.953615 22.3166 0.366678 23.4235 0.138096 24.6274C-0.0904858 25.8313 0.0499486 27.0762 0.540998 28.199C0.573185 28.2742 0.623384 28.3402 0.687161 28.3914C0.750938 28.4426 0.826332 28.4772 0.906686 28.4924C0.987039 28.5075 1.06988 28.5026 1.14789 28.4781C1.22591 28.4536 1.29669 28.4103 1.354 28.352L4.845 24.843C5.075 24.611 5.446 24.58 5.638 24.775L7.145 26.352C7.364 26.573 7.354 26.914 7.123 27.147L3.645 30.647C3.58847 30.7037 3.54641 30.7731 3.52235 30.8494C3.4983 30.9258 3.49296 31.0068 3.50678 31.0856C3.52061 31.1644 3.55319 31.2388 3.60179 31.3024C3.65039 31.366 3.71357 31.4169 3.786 31.451C4.59525 31.8371 5.48037 32.0379 6.377 32.039C7.949 32.039 9.442 31.407 10.584 30.259C12.282 28.551 12.875 25.867 12.082 23.623L23.621 12.083C24.2624 12.3089 24.938 12.4226 25.618 12.419C27.332 12.419 28.994 11.737 30.177 10.547C31.0454 9.68234 31.6323 8.57554 31.8609 7.3716C32.0895 6.16766 31.949 4.92275 31.458 3.8C31.4258 3.72483 31.3756 3.65875 31.3118 3.60759C31.2481 3.55642 31.1727 3.52175 31.0923 3.50663C31.012 3.49151 30.9291 3.4964 30.8511 3.52088C30.7731 3.54536 30.7023 3.58868 30.645 3.647L27.154 7.156C27.0461 7.26026 26.9015 7.31771 26.7514 7.31583C26.6014 7.31396 26.4582 7.25292 26.353 7.146L24.854 5.647C24.8005 5.59566 24.758 5.53405 24.7288 5.46587C24.6997 5.39769 24.6847 5.32434 24.6846 5.25021C24.6845 5.17608 24.6994 5.10269 24.7283 5.03443C24.7572 4.96618 24.7996 4.90447 24.853 4.853L28.354 1.354ZM24.146 6.354L25.645 7.853C26.244 8.455 27.27 8.458 27.863 7.862L30.793 4.918C31.0251 5.78298 31.0249 6.69389 30.7924 7.55877C30.56 8.42366 30.1035 9.21192 29.469 9.844C28.472 10.847 27.07 11.421 25.619 11.421C24.936 11.421 24.289 11.293 23.696 11.041C23.6043 11.002 23.5031 10.9912 23.4053 11.0101C23.3075 11.029 23.2175 11.0766 23.147 11.147L11.147 23.147C11.0768 23.2172 11.0291 23.3067 11.01 23.4042C10.9909 23.5016 11.0014 23.6025 11.04 23.694C11.843 25.604 11.354 28.069 9.877 29.555C9.24059 30.2005 8.43932 30.6592 7.56038 30.881C6.68144 31.1028 5.75851 31.0793 4.892 30.813L7.833 27.853C8.454 27.228 8.464 26.259 7.862 25.655L6.356 24.078C5.775 23.493 4.742 23.529 4.138 24.14L1.208 27.084C0.975909 26.219 0.976105 25.3081 1.20857 24.4432C1.44103 23.5783 1.89753 22.7901 2.532 22.158C3.529 21.155 4.931 20.581 6.382 20.581C7.065 20.581 7.712 20.709 8.305 20.961C8.39661 21.0003 8.4979 21.0112 8.59578 20.9923C8.69366 20.9734 8.78361 20.9256 8.854 20.855L20.854 8.85499C20.9242 8.78481 20.9719 8.69527 20.991 8.59783C21.01 8.50038 20.9996 8.39947 20.961 8.30799C20.158 6.39799 20.647 3.932 22.124 2.446C22.7602 1.80109 23.5609 1.34286 24.4393 1.12108C25.3176 0.899291 26.2399 0.922436 27.106 1.188L24.146 4.149C23.9996 4.29288 23.8834 4.46447 23.804 4.65376C23.7247 4.84305 23.6838 5.04625 23.6838 5.2515C23.6838 5.45675 23.7247 5.65994 23.804 5.84923C23.8834 6.03852 23.9996 6.21011 24.146 6.354Z" fill="white"/>
</g>
<defs>
<clipPath id="clip0_16_2">
<rect width="32" height="32" fill="white"/>
</clipPath>
</defs>
</svg>
