<svg width="16" height="15" viewBox="0 0 16 15" fill="none" xmlns="http://www.w3.org/2000/svg">
<path fill-rule="evenodd" clip-rule="evenodd" d="M7.9928 0.0771484C3.96185 0.0771484 0.68457 3.35443 0.68457 7.38538C0.68457 11.4163 3.96185 14.6936 7.9928 14.6936C12.0237 14.6936 15.301 11.4163 15.301 7.38538C15.301 3.35443 12.0237 0.0771484 7.9928 0.0771484Z" fill="#CCFF00"/>
<path fill-rule="evenodd" clip-rule="evenodd" d="M11.5273 4.92151C11.7043 5.09851 11.7043 5.38969 11.5273 5.56669L7.24518 9.84885C7.15668 9.93735 7.03964 9.98303 6.92259 9.98303C6.80555 9.98303 6.6885 9.93735 6.6 9.84885L4.45892 7.70777C4.28192 7.53077 4.28192 7.23959 4.45892 7.06259C4.63592 6.8856 4.9271 6.8856 5.1041 7.06259L6.92259 8.88108L10.8822 4.92151C11.0592 4.74166 11.3503 4.74166 11.5273 4.92151Z" fill="black"/>
</svg>
