<svg width="14" height="15" viewBox="0 0 14 15" fill="none" xmlns="http://www.w3.org/2000/svg">
<path d="M7.03307 0.37793H7.02961C3.2087 0.37793 0.101562 3.48594 0.101562 7.30771C0.101562 8.8236 0.590112 10.2286 1.42082 11.3694L0.557195 13.9438L3.22083 13.0923C4.3166 13.8182 5.62373 14.2375 7.03307 14.2375C10.854 14.2375 13.9611 11.1286 13.9611 7.30771C13.9611 3.4868 10.854 0.37793 7.03307 0.37793ZM11.0653 10.1636C10.8982 10.6357 10.2346 11.0273 9.70537 11.1416C9.34329 11.2187 8.87033 11.2802 7.27821 10.6201C5.24173 9.77644 3.93027 7.70704 3.82805 7.57277C3.73017 7.43851 3.00514 6.477 3.00514 5.48258C3.00514 4.48815 3.51015 4.00394 3.71371 3.79604C3.88089 3.6254 4.15722 3.54744 4.42228 3.54744C4.50804 3.54744 4.58513 3.55177 4.65443 3.55523C4.85799 3.5639 4.9602 3.57602 5.09447 3.89739C5.26165 4.30018 5.66877 5.29461 5.71728 5.39682C5.76666 5.49904 5.81603 5.63763 5.74673 5.7719C5.68177 5.91049 5.6246 5.97199 5.52238 6.0898C5.42017 6.20761 5.32315 6.29769 5.22094 6.42416C5.12738 6.53417 5.02171 6.65198 5.13951 6.85554C5.25732 7.05477 5.66444 7.71916 6.26387 8.25276C7.03741 8.9414 7.66455 9.16142 7.8889 9.25498C8.05608 9.32428 8.25531 9.30782 8.37745 9.17788C8.53251 9.0107 8.72394 8.73351 8.91884 8.46065C9.05744 8.26488 9.23241 8.24063 9.41605 8.30993C9.60316 8.37489 10.5932 8.86431 10.7968 8.96566C11.0004 9.06787 11.1346 9.11638 11.184 9.20214C11.2325 9.28789 11.2325 9.69069 11.0653 10.1636Z" fill="white"/>
</svg>
