<svg width="14" height="14" viewBox="0 0 14 14" fill="none" xmlns="http://www.w3.org/2000/svg">
<g id="account 1" clip-path="url(#clip0_0_630)">
<g id="Layer 2">
<path id="Vector" d="M6.66211 7.65723C6.18002 7.65723 5.70875 7.51427 5.30791 7.24643C4.90706 6.9786 4.59464 6.59791 4.41015 6.15252C4.22567 5.70712 4.17739 5.21702 4.27145 4.74419C4.3655 4.27137 4.59765 3.83705 4.93854 3.49615C5.27943 3.15526 5.71375 2.92312 6.18658 2.82906C6.65941 2.73501 7.14951 2.78328 7.5949 2.96777C8.0403 3.15226 8.42098 3.46468 8.68882 3.86553C8.95665 4.26637 9.09961 4.73764 9.09961 5.21973C9.09961 5.86619 8.8428 6.48618 8.38568 6.9433C7.92856 7.40042 7.30858 7.65723 6.66211 7.65723ZM6.66211 3.59473C6.34072 3.59473 6.02654 3.69003 5.75931 3.86859C5.49208 4.04715 5.2838 4.30094 5.16081 4.59787C5.03781 4.8948 5.00563 5.22153 5.06833 5.53675C5.13104 5.85197 5.2858 6.14152 5.51306 6.36878C5.74032 6.59604 6.02987 6.7508 6.34509 6.8135C6.66031 6.8762 6.98704 6.84402 7.28397 6.72103C7.5809 6.59804 7.83469 6.38976 8.01325 6.12253C8.19181 5.8553 8.28711 5.54112 8.28711 5.21973C8.28711 4.78875 8.1159 4.37543 7.81116 4.07068C7.50641 3.76593 7.09309 3.59473 6.66211 3.59473Z" fill="#FAF4F4" fill-opacity="0.88"/>
<path id="Vector_2" d="M6.66187 13.3447C5.76099 13.3441 4.87145 13.1437 4.05729 12.7581C3.24312 12.3724 2.5246 11.811 1.95344 11.1143L1.74219 10.8543L1.95344 10.5984C2.52508 9.90263 3.24382 9.3422 4.05795 8.95741C4.87209 8.57262 5.76139 8.37305 6.66187 8.37305C7.56236 8.37305 8.45166 8.57262 9.2658 8.95741C10.0799 9.3422 10.7987 9.90263 11.3703 10.5984L11.5816 10.8543L11.3703 11.1143C10.7992 11.811 10.0806 12.3724 9.26646 12.7581C8.4523 13.1437 7.56276 13.3441 6.66187 13.3447ZM2.80656 10.8584C3.30066 11.3874 3.89821 11.8091 4.56212 12.0974C5.22603 12.3858 5.94212 12.5346 6.66594 12.5346C7.38976 12.5346 8.10585 12.3858 8.76976 12.0974C9.43366 11.8091 10.0312 11.3874 10.5253 10.8584C10.0312 10.3295 9.43366 9.90774 8.76976 9.6194C8.10585 9.33106 7.38976 9.18227 6.66594 9.18227C5.94212 9.18227 5.22603 9.33106 4.56212 9.6194C3.89821 9.90774 3.30066 10.3295 2.80656 10.8584Z" fill="#FAF4F4" fill-opacity="0.88"/>
<path id="Vector_3" d="M6.66227 13.3447C5.27807 13.3457 3.9348 12.8753 2.85355 12.0111C1.7723 11.1468 1.01749 9.94023 0.713363 8.58986C0.409237 7.23948 0.573913 5.8258 1.18029 4.58149C1.78667 3.33718 2.79861 2.33639 4.04956 1.74383C5.30051 1.15127 6.71593 1.00227 8.06285 1.32133C9.40977 1.6404 10.6079 2.40852 11.4601 3.49928C12.3123 4.59004 12.7678 5.93844 12.7515 7.32254C12.7353 8.70664 12.2483 10.044 11.3707 11.1144C10.7995 11.8111 10.081 12.3725 9.26686 12.7581C8.4527 13.1438 7.56315 13.3441 6.66227 13.3447ZM6.66227 1.96973C5.61774 1.96973 4.59666 2.27947 3.72817 2.85978C2.85967 3.44009 2.18276 4.26491 1.78303 5.22993C1.38331 6.19496 1.27872 7.25684 1.4825 8.2813C1.68628 9.30576 2.18927 10.2468 2.92786 10.9854C3.66646 11.724 4.60749 12.227 5.63195 12.4308C6.65641 12.6345 7.7183 12.5299 8.68332 12.1302C9.64834 11.7305 10.4732 11.0536 11.0535 10.1851C11.6338 9.31659 11.9435 8.29551 11.9435 7.25098C11.9435 5.85031 11.3871 4.507 10.3967 3.51657C9.40625 2.52615 8.06295 1.96973 6.66227 1.96973Z" fill="#FAF4F4" fill-opacity="0.88"/>
<path id="Vector_4" d="M2.26758 10.8589C2.26758 10.8589 6.35852 15.4292 10.5226 11.3139L11.0588 10.8589C11.0588 10.8589 7.58133 7.25136 4.05102 9.41667L2.26758 10.8589Z" fill="#FAF4F4" fill-opacity="0.88"/>
<path id="Vector_5" d="M6.66211 7.25098C7.78394 7.25098 8.69336 6.34155 8.69336 5.21973C8.69336 4.0979 7.78394 3.18848 6.66211 3.18848C5.54028 3.18848 4.63086 4.0979 4.63086 5.21973C4.63086 6.34155 5.54028 7.25098 6.66211 7.25098Z" fill="#FAF4F4" fill-opacity="0.88"/>
</g>
</g>
<defs>
<clipPath id="clip0_0_630">
<rect width="13" height="13" fill="white" transform="translate(0.162109 0.750977)"/>
</clipPath>
</defs>
</svg>
