<svg width="24" height="24" viewBox="0 0 24 24" fill="none" xmlns="http://www.w3.org/2000/svg">
<path d="M13.3692 11.1194C13.1798 11.877 12.0006 11.4921 11.634 11.3882L11.97 10.0563C12.3489 10.1663 13.5647 10.3252 13.3692 11.1194ZM11.469 12.0725L11.1024 13.5449C11.5546 13.661 12.9537 14.107 13.1615 13.2761C13.3814 12.4085 11.9212 12.1825 11.469 12.0725ZM17.9273 13.4777C17.1085 16.7524 13.7969 18.7441 10.522 17.9254C7.24704 17.1067 5.25702 13.7954 6.07392 10.5207C6.268 9.74237 6.61352 9.00992 7.09073 8.36516C7.56794 7.72041 8.1675 7.17597 8.85517 6.76294C9.54284 6.34992 10.3051 6.07639 11.0985 5.958C11.8919 5.83961 12.7009 5.87866 13.4792 6.07293C16.748 6.89161 18.7399 10.203 17.9273 13.4777ZM13.3509 9.58591L13.6258 8.48619L12.9537 8.33346L12.6849 9.3904C12.5077 9.34764 12.3305 9.30487 12.1472 9.26821L12.4161 8.18683L11.7501 8.02798L11.4751 9.12158C11.3285 9.08493 11.1819 9.05438 11.0474 9.01772L10.1248 8.78556L9.94153 9.50038C9.94153 9.50038 10.4426 9.61646 10.4303 9.62257C10.7053 9.68977 10.7542 9.86084 10.7419 10.0136L9.99041 13.0256C9.95986 13.1111 9.8621 13.2211 9.68492 13.1905C9.69103 13.1966 9.19612 13.0683 9.19612 13.0683L8.86618 13.832L9.7338 14.052C9.89876 14.0947 10.0576 14.1375 10.2165 14.1742L9.93542 15.2861L10.6075 15.4572L10.8825 14.3513C11.0658 14.4002 11.243 14.443 11.414 14.4919L11.1391 15.5855L11.8112 15.7565L12.0922 14.6446C13.2226 14.8584 14.0902 14.7729 14.4446 13.7404C14.7501 12.9156 14.4446 12.4268 13.8336 12.1153C14.2735 11.9992 14.6034 11.7242 14.6951 11.1255C14.8173 10.3129 14.1941 9.87917 13.3509 9.58591Z" fill="white"/>
<path fill-rule="evenodd" clip-rule="evenodd" d="M12.7377 3.88196C16.878 4.25497 20.1225 7.73455 20.1225 11.9719C20.1225 12.7399 20.0159 13.483 19.8168 14.1872H21.3426C21.5105 13.476 21.5994 12.7344 21.5994 11.9719C21.5994 6.91842 17.6947 2.7769 12.7377 2.3999V3.88196ZM3.87634 11.9719C3.87634 16.2098 7.12158 19.6897 11.2625 20.062V21.5441C6.30488 21.1677 2.39941 17.0259 2.39941 11.9719C2.39941 11.2091 2.48838 10.4671 2.65651 9.75563H4.18237C3.98301 10.4601 3.87634 11.2036 3.87634 11.9719ZM11.9994 21.5719L11.9245 21.5717H12.0743L11.9994 21.5719Z" fill="white"/>
</svg>
