<svg width="18" height="17" viewBox="0 0 18 17" fill="none" xmlns="http://www.w3.org/2000/svg">
<path d="M13.3838 0.000976562H4.38379C3.38959 0.00216746 2.43646 0.397638 1.73345 1.10064C1.03045 1.80364 0.63498 2.75678 0.633789 3.75098V9.75098C0.63488 10.6151 0.933857 11.4525 1.48033 12.1219C2.0268 12.7913 2.78735 13.2519 3.63379 13.426V15.751C3.63377 15.8868 3.67061 16.02 3.74038 16.1365C3.81016 16.253 3.91024 16.3483 4.02997 16.4124C4.14969 16.4764 4.28455 16.5068 4.42018 16.5002C4.5558 16.4936 4.68709 16.4503 4.80004 16.375L9.10879 13.501H13.3838C14.378 13.4998 15.3311 13.1043 16.0341 12.4013C16.7371 11.6983 17.1326 10.7452 17.1338 9.75098V3.75098C17.1326 2.75678 16.7371 1.80364 16.0341 1.10064C15.3311 0.397638 14.378 0.00216746 13.3838 0.000976562ZM11.8838 9.00098H5.88379C5.68488 9.00098 5.49411 8.92196 5.35346 8.78131C5.21281 8.64065 5.13379 8.44989 5.13379 8.25098C5.13379 8.05206 5.21281 7.8613 5.35346 7.72065C5.49411 7.57999 5.68488 7.50098 5.88379 7.50098H11.8838C12.0827 7.50098 12.2735 7.57999 12.4141 7.72065C12.5548 7.8613 12.6338 8.05206 12.6338 8.25098C12.6338 8.44989 12.5548 8.64065 12.4141 8.78131C12.2735 8.92196 12.0827 9.00098 11.8838 9.00098ZM13.3838 6.00098H4.38379C4.18488 6.00098 3.99411 5.92196 3.85346 5.78131C3.71281 5.64065 3.63379 5.44989 3.63379 5.25098C3.63379 5.05206 3.71281 4.8613 3.85346 4.72065C3.99411 4.57999 4.18488 4.50098 4.38379 4.50098H13.3838C13.5827 4.50098 13.7735 4.57999 13.9141 4.72065C14.0548 4.8613 14.1338 5.05206 14.1338 5.25098C14.1338 5.44989 14.0548 5.64065 13.9141 5.78131C13.7735 5.92196 13.5827 6.00098 13.3838 6.00098Z" fill="#B2B6C5"/>
</svg>
