<svg width="25" height="21" viewBox="0 0 25 21" fill="none" xmlns="http://www.w3.org/2000/svg">
<g id="Group 713">
<path id="Vector" d="M15.7864 19.1226C20.4021 19.1226 24.144 15.3807 24.144 10.7649C24.144 6.14909 20.4021 2.40723 15.7864 2.40723C11.1706 2.40723 7.42871 6.14908 7.42871 10.7649C7.42871 15.3807 11.1705 19.1226 15.7864 19.1226Z" fill="url(#paint0_linear_0_921)"/>
<path id="Vector_2" d="M23.9608 9.02246L20.4261 9.77828C19.9124 9.88808 19.3766 9.76121 18.9666 9.43317L16.357 7.34475C15.9421 7.01239 15.7005 6.50963 15.7002 5.97837V5.9751L15.7058 2.40754C15.7323 2.40723 15.7589 2.40723 15.7854 2.40723C19.8036 2.40714 23.1598 5.2432 23.9608 9.02246Z" fill="url(#paint1_linear_0_921)"/>
<path id="Vector_3" d="M15.7013 5.97548V5.97875C15.7013 6.51002 15.4594 7.01282 15.0448 7.34513L12.4352 9.43356C12.0793 9.71802 11.6289 9.85143 11.1806 9.80981C11.1121 9.80359 11.0436 9.7931 10.9754 9.77867L7.98635 9.13955L7.60352 9.05762C8.38584 5.28948 11.7056 2.45051 15.6957 2.4082L15.7013 5.97548Z" fill="url(#paint2_linear_0_921)"/>
<path id="Vector_4" d="M12.8087 14.9605L12.7864 14.9857L10.7875 17.2007C10.7399 17.2534 10.6888 17.3019 10.6351 17.3462C8.68302 15.8162 7.42871 13.4371 7.42871 10.7646C7.42871 10.2189 7.48082 9.68566 7.58077 9.16947C7.71286 9.14028 7.84922 9.12979 7.98621 9.13896C8.05307 9.14355 8.12057 9.15272 8.18743 9.16715L11.1054 9.79088C11.1306 9.79646 11.1559 9.80236 11.1804 9.80922C11.6452 9.93509 12.0172 10.2874 12.1666 10.7489L13.0853 13.5875C13.2391 14.0628 13.1335 14.5832 12.8087 14.9605Z" fill="url(#paint3_linear_0_921)"/>
<path id="Vector_5" d="M24.145 10.7647C24.145 13.4372 22.8907 15.8163 20.9386 17.3463C20.8849 17.302 20.8338 17.2535 20.7863 17.2007L18.7873 14.9858L18.765 14.9606C18.4402 14.5833 18.3347 14.0629 18.4884 13.5876L19.4071 10.7489C19.5644 10.2629 19.9688 9.89776 20.4683 9.79091L23.3863 9.16718C23.5898 9.12393 23.7963 9.12588 23.9929 9.1695C24.0929 9.68574 24.145 10.219 24.145 10.7647Z" fill="url(#paint4_linear_0_921)"/>
<path id="Vector_6" d="M20.866 17.4029C19.4584 18.4819 17.6973 19.123 15.7865 19.123C13.8757 19.123 12.1147 18.4819 10.707 17.4029C10.7664 17.2948 10.8381 17.1922 10.9221 17.0971L12.7866 14.9864L12.8089 14.9612L12.8407 14.9255C13.1635 14.56 13.6279 14.3506 14.1156 14.3506H17.4574C17.945 14.3506 18.4095 14.56 18.7323 14.9255L18.7641 14.9612L18.7864 14.9864L20.651 17.0971C20.7349 17.1922 20.8067 17.2948 20.866 17.4029Z" fill="url(#paint5_linear_0_921)"/>
<path id="Vector_7" d="M14.8687 7.47781L12.7402 9.02426C12.1931 9.4217 11.9642 10.1263 12.1732 10.7694L12.9862 13.2716C13.1951 13.9147 13.7945 14.3501 14.4707 14.3501H17.1017C17.7779 14.3501 18.3772 13.9147 18.5861 13.2716L19.3992 10.7694C19.6081 10.1263 19.3792 9.42175 18.8321 9.02426L16.7036 7.47781C16.1566 7.08031 15.4158 7.08031 14.8687 7.47781Z" fill="url(#paint6_linear_0_921)"/>
<path id="Vector_8" d="M17.9576 2.69206L16.7033 3.6032C16.1563 4.00074 15.4156 4.00074 14.8686 3.6032L13.6143 2.69206C14.3068 2.50623 15.0347 2.40723 15.7859 2.40723C16.5372 2.40723 17.2651 2.50623 17.9576 2.69206Z" fill="url(#paint7_linear_0_921)"/>
<path id="Vector_9" d="M24.1374 10.4501L23.575 10.0581C23.0201 9.67172 22.7772 8.97164 22.9736 8.32468L23.3272 7.1582C23.8077 8.16113 24.0942 9.2745 24.1374 10.4501Z" fill="url(#paint8_linear_0_921)"/>
<path id="Vector_10" d="M7.99702 10.0581L7.43457 10.4501C7.47783 9.2745 7.7643 8.16113 8.24477 7.1582L8.59841 8.32468C8.79478 8.97164 8.55189 9.67172 7.99702 10.0581Z" fill="url(#paint9_linear_0_921)"/>
<path id="Vector_11" d="M12.6373 18.509C11.3256 17.9754 10.1802 17.118 9.2998 16.0361L10.9071 16.1335C11.5822 16.1745 12.1542 16.6451 12.3236 17.2997L12.6373 18.509Z" fill="url(#paint10_linear_0_921)"/>
<path id="Vector_12" d="M22.272 16.0361C21.3917 17.118 20.2462 17.9754 18.9346 18.509L19.2482 17.2996C19.4177 16.6451 19.9896 16.1744 20.6648 16.1335L22.272 16.0361Z" fill="url(#paint11_linear_0_921)"/>
<path id="Vector_13" d="M16.5578 3.17969C11.9421 3.17969 8.2002 6.92155 8.2002 11.5373C8.2002 13.6488 8.98352 15.577 10.275 17.0482C11.7461 18.3396 13.6744 19.1229 15.7858 19.1229C20.4016 19.1229 24.1435 15.3811 24.1435 10.7653C24.1435 8.65387 23.3601 6.72564 22.0687 5.25445C20.5975 3.96301 18.6693 3.17969 16.5578 3.17969Z" fill="url(#paint12_linear_0_921)"/>
<path id="Vector_14" d="M20.2454 3.69531C21.0611 4.9858 21.5336 6.51486 21.5336 8.15445C21.5336 12.7702 17.7917 16.5121 13.1759 16.5121C11.5363 16.5121 10.0073 16.0396 8.7168 15.2239C10.1975 17.5664 12.81 19.1224 15.7862 19.1224C20.402 19.1224 24.1439 15.3805 24.1439 10.7647C24.1439 7.7885 22.5879 5.17603 20.2454 3.69531Z" fill="url(#paint13_linear_0_921)"/>
<path id="Vector_15" d="M7.61642 17.673H1.21565C1.09332 17.673 0.994141 17.5738 0.994141 17.4514V16.4266C0.994141 16.3043 1.09332 16.2051 1.21565 16.2051H7.61637C7.7387 16.2051 7.83788 16.3043 7.83788 16.4266V17.4514C7.83793 17.5738 7.73875 17.673 7.61642 17.673Z" fill="url(#paint14_linear_0_921)"/>
<path id="Vector_16" d="M6.80405 17.673H2.02831C1.92209 17.673 1.83594 17.5869 1.83594 17.4806V16.3974C1.83594 16.2912 1.92205 16.2051 2.02831 16.2051H6.804C6.91022 16.2051 6.99637 16.2912 6.99637 16.3974V17.4806C6.99642 17.5869 6.91027 17.673 6.80405 17.673Z" fill="url(#paint15_linear_0_921)"/>
<path id="Vector_17" d="M5.2381 17.673H3.59356C3.52951 17.673 3.47754 17.621 3.47754 17.5569V16.3211C3.47754 16.257 3.52947 16.2051 3.59356 16.2051H5.2381C5.30215 16.2051 5.35412 16.257 5.35412 16.3211V17.5569C5.35407 17.621 5.30215 17.673 5.2381 17.673Z" fill="url(#paint16_linear_0_921)"/>
<path id="Vector_18" d="M1.40901 16.3828C1.28668 16.3828 1.1875 16.482 1.1875 16.6043V17.6292C1.1875 17.6434 1.18895 17.6572 1.19154 17.6707C1.19953 17.6716 1.20765 17.6721 1.21587 17.6721H7.61659C7.73892 17.6721 7.8381 17.5729 7.8381 17.4506V16.4258C7.8381 16.4115 7.83665 16.3977 7.83406 16.3842C7.82607 16.3834 7.81795 16.3828 7.80973 16.3828H1.40901Z" fill="url(#paint17_linear_0_921)"/>
<path id="Vector_19" d="M7.61642 16.2042H1.21565C1.09332 16.2042 0.994141 16.105 0.994141 15.9827V14.9578C0.994141 14.8355 1.09332 14.7363 1.21565 14.7363H7.61637C7.7387 14.7363 7.83788 14.8355 7.83788 14.9578V15.9827C7.83793 16.105 7.73875 16.2042 7.61642 16.2042Z" fill="url(#paint18_linear_0_921)"/>
<path id="Vector_20" d="M6.80405 16.2042H2.02831C1.92209 16.2042 1.83594 16.1181 1.83594 16.0119V14.9287C1.83594 14.8224 1.92205 14.7363 2.02831 14.7363H6.804C6.91022 14.7363 6.99637 14.8224 6.99637 14.9287V16.0119C6.99642 16.1181 6.91027 16.2042 6.80405 16.2042Z" fill="url(#paint19_linear_0_921)"/>
<path id="Vector_21" d="M5.2381 16.2042H3.59356C3.52951 16.2042 3.47754 16.1523 3.47754 16.0882V14.8523C3.47754 14.7883 3.52947 14.7363 3.59356 14.7363H5.2381C5.30215 14.7363 5.35412 14.7883 5.35412 14.8523V16.0882C5.35407 16.1523 5.30215 16.2042 5.2381 16.2042Z" fill="url(#paint20_linear_0_921)"/>
<path id="Vector_22" d="M1.40901 14.915C1.28668 14.915 1.1875 15.0142 1.1875 15.1366V16.1614C1.1875 16.1756 1.18895 16.1895 1.19154 16.2029C1.19953 16.2038 1.20765 16.2043 1.21587 16.2043H7.61659C7.73892 16.2043 7.8381 16.1052 7.8381 15.9828V14.958C7.8381 14.9438 7.83665 14.9299 7.83406 14.9164C7.82607 14.9156 7.81795 14.915 7.80973 14.915H1.40901Z" fill="url(#paint21_linear_0_921)"/>
<path id="Vector_23" d="M7.61642 14.7364H1.21565C1.09332 14.7364 0.994141 14.6372 0.994141 14.5149V13.4901C0.994141 13.3677 1.09332 13.2686 1.21565 13.2686H7.61637C7.7387 13.2686 7.83788 13.3677 7.83788 13.4901V14.5149C7.83793 14.6372 7.73875 14.7364 7.61642 14.7364Z" fill="url(#paint22_linear_0_921)"/>
<path id="Vector_24" d="M6.80405 14.7364H2.02831C1.92209 14.7364 1.83594 14.6503 1.83594 14.5441V13.4609C1.83594 13.3547 1.92205 13.2686 2.02831 13.2686H6.804C6.91022 13.2686 6.99637 13.3547 6.99637 13.4609V14.5441C6.99642 14.6503 6.91027 14.7364 6.80405 14.7364Z" fill="url(#paint23_linear_0_921)"/>
<path id="Vector_25" d="M5.2381 14.7364H3.59356C3.52951 14.7364 3.47754 14.6845 3.47754 14.6204V13.3845C3.47754 13.3205 3.52947 13.2686 3.59356 13.2686H5.2381C5.30215 13.2686 5.35412 13.3205 5.35412 13.3845V14.6204C5.35407 14.6845 5.30215 14.7364 5.2381 14.7364Z" fill="url(#paint24_linear_0_921)"/>
<path id="Vector_26" d="M1.40901 13.4473C1.28668 13.4473 1.1875 13.5464 1.1875 13.6688V14.6936C1.1875 14.7078 1.18895 14.7217 1.19154 14.7352C1.19953 14.736 1.20765 14.7366 1.21587 14.7366H7.61659C7.73892 14.7366 7.8381 14.6374 7.8381 14.5151V13.4902C7.8381 13.476 7.83665 13.4622 7.83406 13.4487C7.82607 13.4478 7.81795 13.4473 7.80973 13.4473H1.40901Z" fill="url(#paint25_linear_0_921)"/>
<path id="Vector_27" d="M7.61642 13.2687H1.21565C1.09332 13.2687 0.994141 13.1695 0.994141 13.0471V12.0223C0.994141 11.9 1.09332 11.8008 1.21565 11.8008H7.61637C7.7387 11.8008 7.83788 11.9 7.83788 12.0223V13.0471C7.83793 13.1695 7.73875 13.2687 7.61642 13.2687Z" fill="url(#paint26_linear_0_921)"/>
<path id="Vector_28" d="M6.80405 13.2687H2.02831C1.92209 13.2687 1.83594 13.1825 1.83594 13.0763V11.9932C1.83594 11.8869 1.92205 11.8008 2.02831 11.8008H6.804C6.91022 11.8008 6.99637 11.8869 6.99637 11.9932V13.0763C6.99642 13.1825 6.91027 13.2687 6.80405 13.2687Z" fill="url(#paint27_linear_0_921)"/>
<path id="Vector_29" d="M5.2381 13.2687H3.59356C3.52951 13.2687 3.47754 13.2168 3.47754 13.1527V11.9168C3.47754 11.8528 3.52947 11.8008 3.59356 11.8008H5.2381C5.30215 11.8008 5.35412 11.8527 5.35412 11.9168V13.1527C5.35407 13.2168 5.30215 13.2687 5.2381 13.2687Z" fill="url(#paint28_linear_0_921)"/>
<path id="Vector_30" d="M1.40901 11.9795C1.28668 11.9795 1.1875 12.0787 1.1875 12.201V13.2259C1.1875 13.2401 1.18895 13.2539 1.19154 13.2674C1.19953 13.2683 1.20765 13.2688 1.21587 13.2688H7.61659C7.73892 13.2688 7.8381 13.1696 7.8381 13.0473V12.0224C7.8381 12.0082 7.83665 11.9944 7.83406 11.9809C7.82607 11.98 7.81795 11.9795 7.80973 11.9795H1.40901Z" fill="url(#paint29_linear_0_921)"/>
<path id="Vector_31" d="M7.61642 11.8008H1.21565C1.09332 11.8008 0.994141 11.7017 0.994141 11.5793V10.5545C0.994141 10.4322 1.09332 10.333 1.21565 10.333H7.61637C7.7387 10.333 7.83788 10.4322 7.83788 10.5545V11.5793C7.83793 11.7017 7.73875 11.8008 7.61642 11.8008Z" fill="url(#paint30_linear_0_921)"/>
<path id="Vector_32" d="M6.80405 11.8009H2.02831C1.92209 11.8009 1.83594 11.7148 1.83594 11.6086V10.5254C1.83594 10.4192 1.92205 10.333 2.02831 10.333H6.804C6.91022 10.333 6.99637 10.4191 6.99637 10.5254V11.6086C6.99642 11.7148 6.91027 11.8009 6.80405 11.8009Z" fill="url(#paint31_linear_0_921)"/>
<path id="Vector_33" d="M5.2381 11.8009H3.59356C3.52951 11.8009 3.47754 11.749 3.47754 11.6849V10.449C3.47754 10.3849 3.52947 10.333 3.59356 10.333H5.2381C5.30215 10.333 5.35412 10.3849 5.35412 10.449V11.6849C5.35407 11.7489 5.30215 11.8009 5.2381 11.8009Z" fill="url(#paint32_linear_0_921)"/>
<path id="Vector_34" d="M1.40901 10.5117C1.28668 10.5117 1.1875 10.6109 1.1875 10.7332V11.7581C1.1875 11.7723 1.18895 11.7861 1.19154 11.7996C1.19953 11.8005 1.20765 11.801 1.21587 11.801H7.61659C7.73892 11.801 7.8381 11.7018 7.8381 11.5795V10.5547C7.8381 10.5405 7.83665 10.5266 7.83406 10.5131C7.82607 10.5123 7.81795 10.5117 7.80973 10.5117H1.40901Z" fill="url(#paint33_linear_0_921)"/>
<path id="Vector_35" d="M7.61642 10.3331H1.21565C1.09332 10.3331 0.994141 10.2339 0.994141 10.1116V9.08675C0.994141 8.96441 1.09332 8.86523 1.21565 8.86523H7.61637C7.7387 8.86523 7.83788 8.96441 7.83788 9.08675V10.1116C7.83793 10.2339 7.73875 10.3331 7.61642 10.3331Z" fill="url(#paint34_linear_0_921)"/>
<path id="Vector_36" d="M6.80405 10.3332H2.02831C1.92209 10.3332 1.83594 10.247 1.83594 10.1408V9.0576C1.83594 8.95139 1.92205 8.86523 2.02831 8.86523H6.804C6.91022 8.86523 6.99637 8.95134 6.99637 9.0576V10.1408C6.99642 10.247 6.91027 10.3332 6.80405 10.3332Z" fill="url(#paint35_linear_0_921)"/>
<path id="Vector_37" d="M5.2381 10.3331H3.59356C3.52951 10.3331 3.47754 10.2811 3.47754 10.2171V8.98121C3.47754 8.91716 3.52947 8.86523 3.59356 8.86523H5.2381C5.30215 8.86523 5.35412 8.91716 5.35412 8.98121V10.2171C5.35407 10.2811 5.30215 10.3331 5.2381 10.3331Z" fill="url(#paint36_linear_0_921)"/>
<path id="Vector_38" d="M1.40901 9.04395C1.28668 9.04395 1.1875 9.14313 1.1875 9.26546V10.2903C1.1875 10.3045 1.18895 10.3183 1.19154 10.3318C1.19953 10.3327 1.20765 10.3332 1.21587 10.3332H7.61659C7.73892 10.3332 7.8381 10.234 7.8381 10.1117V9.08689C7.8381 9.07268 7.83665 9.05883 7.83406 9.04535C7.82607 9.04449 7.81795 9.04395 7.80973 9.04395H1.40901Z" fill="url(#paint37_linear_0_921)"/>
<path id="Vector_39" d="M20.3809 17.7464C21.5651 16.9655 22.5388 15.8915 23.1988 14.6275L20.3809 11.8096V17.7464Z" fill="url(#paint38_linear_0_921)"/>
<path id="Vector_40" d="M20.032 19.8869H5.79998C5.56903 19.8869 5.38184 19.6997 5.38184 19.4688V12.0402C5.38184 11.8093 5.56903 11.6221 5.79998 11.6221H20.032C20.263 11.6221 20.4502 11.8093 20.4502 12.0402V19.4688C20.4502 19.6997 20.263 19.8869 20.032 19.8869Z" fill="url(#paint39_linear_0_921)"/>
<path id="Vector_41" d="M19.7244 19.6009H6.11116C5.89337 19.6009 5.7168 19.4244 5.7168 19.2066V12.3035C5.7168 12.0858 5.89337 11.9092 6.11116 11.9092H19.7244C19.9422 11.9092 20.1187 12.0858 20.1187 12.3035V19.2066C20.1188 19.4244 19.9422 19.6009 19.7244 19.6009Z" fill="url(#paint40_linear_0_921)"/>
<path id="Vector_42" d="M19.1872 14.1499C18.4892 14.1499 17.9234 13.5841 17.9234 12.8861C17.9234 12.8574 17.9244 12.829 17.9263 12.8008C17.9354 12.6655 17.8286 12.5508 17.693 12.5508H8.14064C8.00506 12.5508 7.89825 12.6655 7.90742 12.8008C7.90933 12.829 7.91028 12.8574 7.91028 12.8861C7.91028 13.5841 7.34447 14.1499 6.64648 14.1499C6.64567 14.1499 6.64485 14.1499 6.64399 14.1499C6.5129 14.1496 6.40527 14.2528 6.40527 14.3839V17.1255C6.40527 17.2566 6.5129 17.3598 6.64399 17.3595H6.64648C7.34447 17.3595 7.91028 17.9253 7.91028 18.6233C7.91028 18.652 7.90933 18.6804 7.90742 18.7086C7.89825 18.8439 8.00506 18.9586 8.14064 18.9586H17.693C17.8286 18.9586 17.9354 18.8439 17.9263 18.7086C17.9244 18.6804 17.9234 18.652 17.9234 18.6233C17.9234 17.9253 18.4892 17.3595 19.1872 17.3595H19.1896C19.3207 17.3598 19.4284 17.2566 19.4284 17.1255V14.3839C19.4284 14.2528 19.3207 14.1496 19.1896 14.1499C19.1888 14.1498 19.188 14.1499 19.1872 14.1499Z" fill="url(#paint41_linear_0_921)"/>
<path id="Vector_43" d="M12.917 18.6339C14.5071 18.6339 15.796 17.3449 15.796 15.7549C15.796 14.1649 14.5071 12.876 12.917 12.876C11.327 12.876 10.0381 14.1649 10.0381 15.7549C10.0381 17.3449 11.327 18.6339 12.917 18.6339Z" fill="url(#paint42_linear_0_921)"/>
<path id="Vector_44" d="M14.0461 14.0171C14.0023 13.9486 13.9176 13.8916 13.7914 13.8462C13.6554 13.7974 13.5105 13.7642 13.3569 13.746C13.3487 13.7408 13.3403 13.7362 13.3318 13.7323L13.1043 13.4886C13.0686 13.4624 13.0302 13.4492 12.9889 13.4492C12.9438 13.4492 12.9053 13.4624 12.8735 13.4886C12.8416 13.5149 12.8256 13.5449 12.8256 13.5787V13.742C12.5215 13.7758 12.2671 13.8772 12.0625 14.0461C11.8578 14.2151 11.7556 14.4627 11.7556 14.7888C11.7556 14.9049 11.7687 15.0108 11.795 15.1063C11.8212 15.2019 11.8645 15.2852 11.9246 15.3564C11.9846 15.4276 12.0419 15.4885 12.0963 15.539C12.0967 15.5394 12.0971 15.5398 12.0975 15.5401C12.0975 15.5401 12.8057 16.2482 12.8061 16.2486C12.8126 16.2556 12.8191 16.2622 12.8256 16.269V17.211C12.6592 17.1997 12.5127 17.1567 12.386 17.0817C12.2593 17.0068 12.1598 16.9366 12.0873 16.8709C12.0148 16.8054 11.9563 16.7726 11.9118 16.7726C11.8445 16.7726 11.7849 16.8082 11.7326 16.8794C11.6803 16.9505 11.6543 17.0218 11.6543 17.0929C11.6543 17.2067 11.7184 17.3189 11.8467 17.4294L14.3048 19.8876H19.9167L14.0461 14.0171Z" fill="url(#paint43_linear_0_921)"/>
<path id="Vector_45" d="M11.6543 17.093C11.6543 17.0218 11.6804 16.9506 11.7326 16.8794C11.7848 16.8082 11.8445 16.7726 11.9118 16.7726C11.9563 16.7726 12.0148 16.8054 12.0873 16.871C12.1598 16.9366 12.2593 17.0068 12.386 17.0817C12.5127 17.1567 12.6592 17.1997 12.8256 17.211V15.8903C12.713 15.8492 12.6266 15.8163 12.5666 15.792C12.5065 15.7677 12.4267 15.7321 12.3273 15.6852C12.2278 15.6384 12.1507 15.5897 12.0964 15.539C12.0419 15.4885 11.9846 15.4276 11.9246 15.3564C11.8645 15.2852 11.8213 15.2019 11.7951 15.1063C11.7688 15.0108 11.7557 14.9049 11.7557 14.7888C11.7557 14.4627 11.8579 14.2151 12.0625 14.0461C12.2671 13.8772 12.5215 13.7758 12.8256 13.742V13.5787C12.8256 13.5449 12.8415 13.5149 12.8735 13.4886C12.9053 13.4624 12.9439 13.4492 12.9889 13.4492C13.0302 13.4492 13.0687 13.4624 13.1043 13.4886C13.14 13.5149 13.1578 13.5449 13.1578 13.5787V13.7308C13.3868 13.7384 13.598 13.7768 13.7914 13.8462C13.9847 13.9157 14.0814 14.0123 14.0814 14.1362C14.0814 14.2038 14.0586 14.2742 14.0132 14.3474C13.9678 14.4206 13.9072 14.4572 13.8315 14.4572C13.8016 14.4572 13.7193 14.4253 13.5849 14.3615C13.4504 14.2976 13.308 14.2601 13.1578 14.2488V15.3901C13.3072 15.4463 13.4313 15.4997 13.5302 15.5503C13.6292 15.6009 13.7338 15.6711 13.8439 15.7611C13.9541 15.851 14.0372 15.9643 14.0931 16.101C14.1491 16.2378 14.1772 16.398 14.1772 16.5816C14.1772 16.917 14.0857 17.1836 13.9027 17.3814C13.7197 17.5792 13.4715 17.7007 13.1578 17.7459V17.9341C13.1578 17.9673 13.14 17.9967 13.1043 18.0226C13.0686 18.0484 13.0302 18.0613 12.9889 18.0613C12.9439 18.0613 12.9053 18.0484 12.8735 18.0227C12.8415 17.9968 12.8256 17.9674 12.8256 17.9342V17.7629C12.499 17.7591 12.2221 17.6844 11.995 17.5387C11.7678 17.3929 11.6543 17.2444 11.6543 17.093ZM12.3132 14.7326C12.3132 14.8787 12.3587 14.9902 12.4497 15.0669C12.5407 15.1437 12.6773 15.2159 12.8594 15.2833V14.2595C12.4952 14.3046 12.3132 14.4623 12.3132 14.7326ZM13.1241 17.1997C13.4544 17.1398 13.6197 16.9543 13.6197 16.6433C13.6197 16.4785 13.5765 16.3492 13.4902 16.2556C13.4037 16.162 13.2818 16.0814 13.1241 16.0139V17.1997Z" fill="url(#paint44_linear_0_921)"/>
<path id="Vector_46" d="M6.78038 13.7619C7.11051 13.7619 7.37814 13.4943 7.37814 13.1642C7.37814 12.834 7.11051 12.5664 6.78038 12.5664C6.45024 12.5664 6.18262 12.834 6.18262 13.1642C6.18262 13.4943 6.45024 13.7619 6.78038 13.7619Z" fill="url(#paint45_linear_0_921)"/>
<path id="Vector_47" d="M19.0519 13.7619C19.382 13.7619 19.6496 13.4943 19.6496 13.1642C19.6496 12.834 19.382 12.5664 19.0519 12.5664C18.7217 12.5664 18.4541 12.834 18.4541 13.1642C18.4541 13.4943 18.7217 13.7619 19.0519 13.7619Z" fill="url(#paint46_linear_0_921)"/>
<path id="Vector_48" d="M6.78038 18.9436C7.11051 18.9436 7.37814 18.6759 7.37814 18.3458C7.37814 18.0157 7.11051 17.748 6.78038 17.748C6.45024 17.748 6.18262 18.0157 6.18262 18.3458C6.18262 18.6759 6.45024 18.9436 6.78038 18.9436Z" fill="url(#paint47_linear_0_921)"/>
<path id="Vector_49" d="M19.0519 18.9436C19.382 18.9436 19.6496 18.6759 19.6496 18.3458C19.6496 18.0157 19.382 17.748 19.0519 17.748C18.7217 17.748 18.4541 18.0157 18.4541 18.3458C18.4541 18.6759 18.7217 18.9436 19.0519 18.9436Z" fill="url(#paint48_linear_0_921)"/>
<path id="Vector_50" d="M14.7334 19.8869H20.0325C20.2635 19.8869 20.4507 19.6997 20.4507 19.4688V16.3299L15.7428 11.6221H14.7334V19.8869Z" fill="url(#paint49_linear_0_921)"/>
<path id="Vector_51" d="M15.3651 20.1109H10.4671C10.2296 20.1109 10.0371 19.9184 10.0371 19.681V11.8284C10.0371 11.5909 10.2296 11.3984 10.4671 11.3984H15.3651C15.6026 11.3984 15.7951 11.5909 15.7951 11.8284V19.681C15.7951 19.9184 15.6026 20.1109 15.3651 20.1109Z" fill="url(#paint50_linear_0_921)"/>
<path id="Vector_52" d="M10.8792 11.8096C10.6417 11.8096 10.4492 12.0021 10.4492 12.2396V20.0921C10.4492 20.0982 10.4499 20.104 10.4501 20.11C10.4561 20.1102 10.4619 20.1109 10.468 20.1109H15.3659C15.6034 20.1109 15.7959 19.9184 15.7959 19.6809V11.8283C15.7959 11.8223 15.7953 11.8164 15.795 11.8105C15.7891 11.8103 15.7832 11.8096 15.7772 11.8096H10.8792Z" fill="url(#paint51_linear_0_921)"/>
<path id="Vector_53" d="M15.7946 19.6816V15.7656L14.0461 14.0171C14.0023 13.9486 13.9176 13.8916 13.7914 13.8462C13.6554 13.7974 13.5105 13.7642 13.3569 13.746C13.3487 13.7408 13.3403 13.7362 13.3318 13.7323L13.1043 13.4886C13.0686 13.4624 13.0302 13.4492 12.9889 13.4492C12.9438 13.4492 12.9053 13.4624 12.8735 13.4886C12.8416 13.5149 12.8256 13.5449 12.8256 13.5787V13.742C12.5215 13.7758 12.2671 13.8772 12.0625 14.0461C11.8578 14.2151 11.7556 14.4627 11.7556 14.7888C11.7556 14.9049 11.7687 15.0108 11.795 15.1063C11.8212 15.2019 11.8645 15.2852 11.9246 15.3564C11.9846 15.4276 12.0419 15.4885 12.0963 15.539C12.0967 15.5394 12.0971 15.5398 12.0975 15.5401C12.0975 15.5401 12.8057 16.2482 12.8061 16.2486C12.8126 16.2556 12.8191 16.2622 12.8256 16.269V17.211C12.6592 17.1997 12.5127 17.1567 12.386 17.0817C12.2593 17.0068 12.1598 16.9366 12.0873 16.8709C12.0148 16.8054 11.9563 16.7726 11.9118 16.7726C11.8445 16.7726 11.7849 16.8082 11.7326 16.8794C11.6803 16.9505 11.6543 17.0218 11.6543 17.0929C11.6543 17.2067 11.7184 17.3189 11.8467 17.4294L14.5287 20.1115H15.3647C15.6021 20.1115 15.7946 19.919 15.7946 19.6816Z" fill="url(#paint52_linear_0_921)"/>
<path id="Vector_54" d="M11.6543 17.093C11.6543 17.0218 11.6804 16.9506 11.7326 16.8794C11.7848 16.8082 11.8445 16.7726 11.9118 16.7726C11.9563 16.7726 12.0148 16.8054 12.0873 16.871C12.1598 16.9366 12.2593 17.0068 12.386 17.0817C12.5127 17.1567 12.6592 17.1997 12.8256 17.211V15.8903C12.713 15.8492 12.6266 15.8163 12.5666 15.792C12.5065 15.7677 12.4267 15.7321 12.3273 15.6852C12.2278 15.6384 12.1507 15.5897 12.0964 15.539C12.0419 15.4885 11.9846 15.4276 11.9246 15.3564C11.8645 15.2852 11.8213 15.2019 11.7951 15.1063C11.7688 15.0108 11.7557 14.9049 11.7557 14.7888C11.7557 14.4627 11.8579 14.2151 12.0625 14.0461C12.2671 13.8772 12.5215 13.7758 12.8256 13.742V13.5787C12.8256 13.5449 12.8415 13.5149 12.8735 13.4886C12.9053 13.4624 12.9439 13.4492 12.9889 13.4492C13.0302 13.4492 13.0687 13.4624 13.1043 13.4886C13.14 13.5149 13.1578 13.5449 13.1578 13.5787V13.7308C13.3868 13.7384 13.598 13.7768 13.7914 13.8462C13.9847 13.9157 14.0814 14.0123 14.0814 14.1362C14.0814 14.2038 14.0586 14.2742 14.0132 14.3474C13.9678 14.4206 13.9072 14.4572 13.8315 14.4572C13.8016 14.4572 13.7193 14.4253 13.5849 14.3615C13.4504 14.2976 13.308 14.2601 13.1578 14.2488V15.3901C13.3072 15.4463 13.4313 15.4997 13.5302 15.5503C13.6292 15.6009 13.7338 15.6711 13.8439 15.7611C13.9541 15.851 14.0372 15.9643 14.0931 16.101C14.1491 16.2378 14.1772 16.398 14.1772 16.5816C14.1772 16.917 14.0857 17.1836 13.9027 17.3814C13.7197 17.5792 13.4715 17.7007 13.1578 17.7459V17.9341C13.1578 17.9673 13.14 17.9967 13.1043 18.0226C13.0686 18.0484 13.0302 18.0613 12.9889 18.0613C12.9439 18.0613 12.9053 18.0484 12.8735 18.0227C12.8415 17.9968 12.8256 17.9674 12.8256 17.9342V17.7629C12.499 17.7591 12.2221 17.6844 11.995 17.5387C11.7678 17.3929 11.6543 17.2444 11.6543 17.093ZM12.3132 14.7326C12.3132 14.8787 12.3587 14.9902 12.4497 15.0669C12.5407 15.1437 12.6773 15.2159 12.8594 15.2833V14.2595C12.4952 14.3046 12.3132 14.4623 12.3132 14.7326ZM13.1241 17.1997C13.4544 17.1398 13.6197 16.9543 13.6197 16.6433C13.6197 16.4785 13.5765 16.3492 13.4902 16.2556C13.4037 16.162 13.2818 16.0814 13.1241 16.0139V17.1997Z" fill="url(#paint53_linear_0_921)"/>
<path id="Vector_55" d="M7.97164 6.27781C7.39689 6.65238 6.90652 7.1457 6.53513 7.72285C6.45161 7.85263 6.25888 7.85226 6.17586 7.72222C5.80659 7.14375 5.31804 6.64861 4.74466 6.272C4.61738 6.18839 4.61774 5.99829 4.74529 5.91518C5.32004 5.54065 5.81041 5.04729 6.18176 4.47018C6.26528 4.3404 6.45801 4.34072 6.54103 4.47082C6.91029 5.04929 7.39889 5.54442 7.97227 5.92103C8.09955 6.0046 8.09919 6.19465 7.97164 6.27781Z" fill="url(#paint54_linear_0_921)"/>
<path id="Vector_56" d="M5.19116 3.49446C4.78473 3.75932 4.43794 4.1082 4.1753 4.51631C4.11625 4.6081 3.97994 4.60782 3.92124 4.51586C3.66011 4.10679 3.31463 3.75664 2.90915 3.49033C2.81914 3.43123 2.81941 3.29678 2.9096 3.23799C3.31604 2.97313 3.66283 2.62425 3.92542 2.21614C3.98447 2.12436 4.12079 2.12463 4.17948 2.21659C4.44061 2.62566 4.78614 2.97581 5.19162 3.24213C5.28163 3.30123 5.2814 3.43568 5.19116 3.49446Z" fill="url(#paint55_linear_0_921)"/>
<path id="Vector_57" d="M11.1794 2.06379C10.773 2.32865 10.4262 2.67753 10.1636 3.08565C10.1045 3.17743 9.96822 3.17716 9.90953 3.0852C9.64839 2.67613 9.30291 2.32598 8.89743 2.05966C8.80742 2.00056 8.80769 1.86611 8.89788 1.80733C9.30432 1.54247 9.65111 1.19359 9.9137 0.785475C9.97276 0.693693 10.1091 0.693965 10.1678 0.785929C10.4289 1.195 10.7744 1.54515 11.1799 1.81146C11.2699 1.87061 11.2696 2.00501 11.1794 2.06379Z" fill="url(#paint56_linear_0_921)"/>
</g>
<defs>
<linearGradient id="paint0_linear_0_921" x1="14.3269" y1="9.30544" x2="19.2218" y2="14.2003" gradientUnits="userSpaceOnUse">
<stop stop-color="#E4F2FF"/>
<stop offset="1" stop-color="#B2CBFF"/>
</linearGradient>
<linearGradient id="paint1_linear_0_921" x1="15.4517" y1="2.53305" x2="22.9458" y2="10.0272" gradientUnits="userSpaceOnUse">
<stop stop-color="#E4F2FF"/>
<stop offset="1" stop-color="#B2CBFF"/>
</linearGradient>
<linearGradient id="paint2_linear_0_921" x1="11.1323" y1="5.21554" x2="14.5468" y2="8.63017" gradientUnits="userSpaceOnUse">
<stop stop-color="#E4F2FF"/>
<stop offset="1" stop-color="#B2CBFF"/>
</linearGradient>
<linearGradient id="paint3_linear_0_921" x1="9.20171" y1="11.7808" x2="11.5293" y2="14.1084" gradientUnits="userSpaceOnUse">
<stop stop-color="#E4F2FF"/>
<stop offset="1" stop-color="#B2CBFF"/>
</linearGradient>
<linearGradient id="paint4_linear_0_921" x1="19.5323" y1="10.3292" x2="23.7843" y2="14.5811" gradientUnits="userSpaceOnUse">
<stop stop-color="#E4F2FF"/>
<stop offset="1" stop-color="#B2CBFF"/>
</linearGradient>
<linearGradient id="paint5_linear_0_921" x1="13.363" y1="14.8051" x2="17.6006" y2="19.0428" gradientUnits="userSpaceOnUse">
<stop stop-color="#E4F2FF"/>
<stop offset="1" stop-color="#B2CBFF"/>
</linearGradient>
<linearGradient id="paint6_linear_0_921" x1="15.1465" y1="10.4919" x2="17.2919" y2="12.6374" gradientUnits="userSpaceOnUse">
<stop stop-color="#8A7889"/>
<stop offset="1" stop-color="#6E566E"/>
</linearGradient>
<linearGradient id="paint7_linear_0_921" x1="15.5178" y1="2.42389" x2="16.4172" y2="3.32327" gradientUnits="userSpaceOnUse">
<stop stop-color="#8A7889"/>
<stop offset="1" stop-color="#6E566E"/>
</linearGradient>
<linearGradient id="paint8_linear_0_921" x1="23.4278" y1="8.6022" x2="24.2773" y2="9.45161" gradientUnits="userSpaceOnUse">
<stop stop-color="#8A7889"/>
<stop offset="1" stop-color="#6E566E"/>
</linearGradient>
<linearGradient id="paint9_linear_0_921" x1="7.72508" y1="8.68958" x2="8.28144" y2="9.2459" gradientUnits="userSpaceOnUse">
<stop stop-color="#8A7889"/>
<stop offset="1" stop-color="#6E566E"/>
</linearGradient>
<linearGradient id="paint10_linear_0_921" x1="10.8944" y1="16.6293" x2="12.0976" y2="17.8324" gradientUnits="userSpaceOnUse">
<stop stop-color="#8A7889"/>
<stop offset="1" stop-color="#6E566E"/>
</linearGradient>
<linearGradient id="paint11_linear_0_921" x1="20.1874" y1="16.8566" x2="20.6279" y2="17.2972" gradientUnits="userSpaceOnUse">
<stop stop-color="#8A7889"/>
<stop offset="1" stop-color="#6E566E"/>
</linearGradient>
<linearGradient id="paint12_linear_0_921" x1="17.8246" y1="13.3189" x2="6.49107" y2="-1.54481" gradientUnits="userSpaceOnUse">
<stop stop-color="white" stop-opacity="0"/>
<stop offset="1" stop-color="white"/>
</linearGradient>
<linearGradient id="paint13_linear_0_921" x1="16.2979" y1="11.3191" x2="41.2775" y2="12.7213" gradientUnits="userSpaceOnUse">
<stop stop-color="#3F3CED" stop-opacity="0"/>
<stop offset="0.2796" stop-color="#3C3DE4" stop-opacity="0.28"/>
<stop offset="0.7305" stop-color="#3541CC" stop-opacity="0.731"/>
<stop offset="1" stop-color="#2F43BB"/>
</linearGradient>
<linearGradient id="paint14_linear_0_921" x1="4.41603" y1="16.2354" x2="4.41603" y2="18.1385" gradientUnits="userSpaceOnUse">
<stop stop-color="#FFD945"/>
<stop offset="0.3043" stop-color="#FFCD3E"/>
<stop offset="0.8558" stop-color="#FFAD2B"/>
<stop offset="1" stop-color="#FFA325"/>
</linearGradient>
<linearGradient id="paint15_linear_0_921" x1="4.41618" y1="16.263" x2="4.41618" y2="19.4637" gradientUnits="userSpaceOnUse">
<stop stop-color="#E87264" stop-opacity="0"/>
<stop offset="1" stop-color="#FF7044"/>
</linearGradient>
<linearGradient id="paint16_linear_0_921" x1="4.41583" y1="16.263" x2="4.41583" y2="19.4636" gradientUnits="userSpaceOnUse">
<stop stop-color="#E87264" stop-opacity="0"/>
<stop offset="1" stop-color="#FF7044"/>
</linearGradient>
<linearGradient id="paint17_linear_0_921" x1="4.40831" y1="16.7748" x2="3.64945" y2="14.9397" gradientUnits="userSpaceOnUse">
<stop stop-color="#FFD945" stop-opacity="0"/>
<stop offset="1" stop-color="#FBED21"/>
</linearGradient>
<linearGradient id="paint18_linear_0_921" x1="4.41603" y1="14.7666" x2="4.41603" y2="16.6697" gradientUnits="userSpaceOnUse">
<stop stop-color="#FFD945"/>
<stop offset="0.3043" stop-color="#FFCD3E"/>
<stop offset="0.8558" stop-color="#FFAD2B"/>
<stop offset="1" stop-color="#FFA325"/>
</linearGradient>
<linearGradient id="paint19_linear_0_921" x1="4.41618" y1="14.7942" x2="4.41618" y2="17.9949" gradientUnits="userSpaceOnUse">
<stop stop-color="#E87264" stop-opacity="0"/>
<stop offset="1" stop-color="#FF7044"/>
</linearGradient>
<linearGradient id="paint20_linear_0_921" x1="4.41583" y1="14.7942" x2="4.41583" y2="17.9949" gradientUnits="userSpaceOnUse">
<stop stop-color="#E87264" stop-opacity="0"/>
<stop offset="1" stop-color="#FF7044"/>
</linearGradient>
<linearGradient id="paint21_linear_0_921" x1="4.40831" y1="15.307" x2="3.64945" y2="13.4719" gradientUnits="userSpaceOnUse">
<stop stop-color="#FFD945" stop-opacity="0"/>
<stop offset="1" stop-color="#FBED21"/>
</linearGradient>
<linearGradient id="paint22_linear_0_921" x1="4.41603" y1="13.2988" x2="4.41603" y2="15.202" gradientUnits="userSpaceOnUse">
<stop stop-color="#FFD945"/>
<stop offset="0.3043" stop-color="#FFCD3E"/>
<stop offset="0.8558" stop-color="#FFAD2B"/>
<stop offset="1" stop-color="#FFA325"/>
</linearGradient>
<linearGradient id="paint23_linear_0_921" x1="4.41618" y1="13.3264" x2="4.41618" y2="16.5271" gradientUnits="userSpaceOnUse">
<stop stop-color="#E87264" stop-opacity="0"/>
<stop offset="1" stop-color="#FF7044"/>
</linearGradient>
<linearGradient id="paint24_linear_0_921" x1="4.41583" y1="13.3264" x2="4.41583" y2="16.5271" gradientUnits="userSpaceOnUse">
<stop stop-color="#E87264" stop-opacity="0"/>
<stop offset="1" stop-color="#FF7044"/>
</linearGradient>
<linearGradient id="paint25_linear_0_921" x1="4.40831" y1="13.8393" x2="3.64945" y2="12.0041" gradientUnits="userSpaceOnUse">
<stop stop-color="#FFD945" stop-opacity="0"/>
<stop offset="1" stop-color="#FBED21"/>
</linearGradient>
<linearGradient id="paint26_linear_0_921" x1="4.41603" y1="11.831" x2="4.41603" y2="13.7342" gradientUnits="userSpaceOnUse">
<stop stop-color="#FFD945"/>
<stop offset="0.3043" stop-color="#FFCD3E"/>
<stop offset="0.8558" stop-color="#FFAD2B"/>
<stop offset="1" stop-color="#FFA325"/>
</linearGradient>
<linearGradient id="paint27_linear_0_921" x1="4.41618" y1="11.8586" x2="4.41618" y2="15.0593" gradientUnits="userSpaceOnUse">
<stop stop-color="#E87264" stop-opacity="0"/>
<stop offset="1" stop-color="#FF7044"/>
</linearGradient>
<linearGradient id="paint28_linear_0_921" x1="4.41583" y1="11.8587" x2="4.41583" y2="15.0594" gradientUnits="userSpaceOnUse">
<stop stop-color="#E87264" stop-opacity="0"/>
<stop offset="1" stop-color="#FF7044"/>
</linearGradient>
<linearGradient id="paint29_linear_0_921" x1="4.40831" y1="12.3715" x2="3.64945" y2="10.5364" gradientUnits="userSpaceOnUse">
<stop stop-color="#FFD945" stop-opacity="0"/>
<stop offset="1" stop-color="#FBED21"/>
</linearGradient>
<linearGradient id="paint30_linear_0_921" x1="4.41603" y1="10.3632" x2="4.41603" y2="12.2663" gradientUnits="userSpaceOnUse">
<stop stop-color="#FFD945"/>
<stop offset="0.3043" stop-color="#FFCD3E"/>
<stop offset="0.8558" stop-color="#FFAD2B"/>
<stop offset="1" stop-color="#FFA325"/>
</linearGradient>
<linearGradient id="paint31_linear_0_921" x1="4.41618" y1="10.3909" x2="4.41618" y2="13.5916" gradientUnits="userSpaceOnUse">
<stop stop-color="#E87264" stop-opacity="0"/>
<stop offset="1" stop-color="#FF7044"/>
</linearGradient>
<linearGradient id="paint32_linear_0_921" x1="4.41583" y1="10.3908" x2="4.41583" y2="13.5915" gradientUnits="userSpaceOnUse">
<stop stop-color="#E87264" stop-opacity="0"/>
<stop offset="1" stop-color="#FF7044"/>
</linearGradient>
<linearGradient id="paint33_linear_0_921" x1="4.40831" y1="10.9037" x2="3.64945" y2="9.06858" gradientUnits="userSpaceOnUse">
<stop stop-color="#FFD945" stop-opacity="0"/>
<stop offset="1" stop-color="#FBED21"/>
</linearGradient>
<linearGradient id="paint34_linear_0_921" x1="4.41603" y1="8.89547" x2="4.41603" y2="10.7986" gradientUnits="userSpaceOnUse">
<stop stop-color="#FFD945"/>
<stop offset="0.3043" stop-color="#FFCD3E"/>
<stop offset="0.8558" stop-color="#FFAD2B"/>
<stop offset="1" stop-color="#FFA325"/>
</linearGradient>
<linearGradient id="paint35_linear_0_921" x1="4.41618" y1="8.92311" x2="4.41618" y2="12.1239" gradientUnits="userSpaceOnUse">
<stop stop-color="#E87264" stop-opacity="0"/>
<stop offset="1" stop-color="#FF7044"/>
</linearGradient>
<linearGradient id="paint36_linear_0_921" x1="4.41583" y1="8.92302" x2="4.41583" y2="12.1238" gradientUnits="userSpaceOnUse">
<stop stop-color="#E87264" stop-opacity="0"/>
<stop offset="1" stop-color="#FF7044"/>
</linearGradient>
<linearGradient id="paint37_linear_0_921" x1="4.40831" y1="9.43599" x2="3.64945" y2="7.60085" gradientUnits="userSpaceOnUse">
<stop stop-color="#FFD945" stop-opacity="0"/>
<stop offset="1" stop-color="#FBED21"/>
</linearGradient>
<linearGradient id="paint38_linear_0_921" x1="23.1694" y1="15.6556" x2="19.2779" y2="14.4308" gradientUnits="userSpaceOnUse">
<stop stop-color="#3F3CED" stop-opacity="0"/>
<stop offset="0.2796" stop-color="#3C3DE4" stop-opacity="0.28"/>
<stop offset="0.7305" stop-color="#3541CC" stop-opacity="0.731"/>
<stop offset="1" stop-color="#2F43BB"/>
</linearGradient>
<linearGradient id="paint39_linear_0_921" x1="12.1243" y1="13.7514" x2="16.349" y2="24.4395" gradientUnits="userSpaceOnUse">
<stop stop-color="#4AB272"/>
<stop offset="1" stop-color="#077565"/>
</linearGradient>
<linearGradient id="paint40_linear_0_921" x1="13.5533" y1="17.122" x2="5.42883" y2="-0.354501" gradientUnits="userSpaceOnUse">
<stop stop-color="#92F37F" stop-opacity="0"/>
<stop offset="1" stop-color="#FFEE83"/>
</linearGradient>
<linearGradient id="paint41_linear_0_921" x1="12.3951" y1="14.172" x2="14.7482" y2="21.3098" gradientUnits="userSpaceOnUse">
<stop stop-color="#91F27F"/>
<stop offset="1" stop-color="#00B302"/>
</linearGradient>
<linearGradient id="paint42_linear_0_921" x1="15.1254" y1="17.1904" x2="6.46163" y2="11.5589" gradientUnits="userSpaceOnUse">
<stop stop-color="#92F37F"/>
<stop offset="1" stop-color="#4AB272"/>
</linearGradient>
<linearGradient id="paint43_linear_0_921" x1="14.9461" y1="17.235" x2="8.85581" y2="14.5388" gradientUnits="userSpaceOnUse">
<stop stop-color="#4AB272" stop-opacity="0"/>
<stop offset="1" stop-color="#009245"/>
</linearGradient>
<linearGradient id="paint44_linear_0_921" x1="12.6422" y1="15.5086" x2="15.0012" y2="17.0974" gradientUnits="userSpaceOnUse">
<stop stop-color="#4AB272"/>
<stop offset="1" stop-color="#077565"/>
</linearGradient>
<linearGradient id="paint45_linear_0_921" x1="6.59078" y1="12.9594" x2="7.71704" y2="14.1758" gradientUnits="userSpaceOnUse">
<stop stop-color="#91F27F"/>
<stop offset="1" stop-color="#00B302"/>
</linearGradient>
<linearGradient id="paint46_linear_0_921" x1="18.8623" y1="12.9594" x2="19.9886" y2="14.1758" gradientUnits="userSpaceOnUse">
<stop stop-color="#91F27F"/>
<stop offset="1" stop-color="#00B302"/>
</linearGradient>
<linearGradient id="paint47_linear_0_921" x1="6.59078" y1="18.141" x2="7.71703" y2="19.3574" gradientUnits="userSpaceOnUse">
<stop stop-color="#91F27F"/>
<stop offset="1" stop-color="#00B302"/>
</linearGradient>
<linearGradient id="paint48_linear_0_921" x1="18.8623" y1="18.141" x2="19.9886" y2="19.3574" gradientUnits="userSpaceOnUse">
<stop stop-color="#91F27F"/>
<stop offset="1" stop-color="#00B302"/>
</linearGradient>
<linearGradient id="paint49_linear_0_921" x1="19.1719" y1="15.8669" x2="11.6351" y2="15.6516" gradientUnits="userSpaceOnUse">
<stop stop-color="#005A01" stop-opacity="0"/>
<stop offset="1" stop-color="#005A01"/>
</linearGradient>
<linearGradient id="paint50_linear_0_921" x1="10.9607" y1="14.2582" x2="18.1166" y2="19.735" gradientUnits="userSpaceOnUse">
<stop stop-color="#FFD945"/>
<stop offset="0.3043" stop-color="#FFCD3E"/>
<stop offset="0.8558" stop-color="#FFAD2B"/>
<stop offset="1" stop-color="#FFA325"/>
</linearGradient>
<linearGradient id="paint51_linear_0_921" x1="15.3551" y1="17.4791" x2="8.78739" y2="13.0109" gradientUnits="userSpaceOnUse">
<stop stop-color="#FFD945" stop-opacity="0"/>
<stop offset="1" stop-color="#FBED21"/>
</linearGradient>
<linearGradient id="paint52_linear_0_921" x1="14.4136" y1="17.1053" x2="9.99242" y2="14.8241" gradientUnits="userSpaceOnUse">
<stop stop-color="#E87264" stop-opacity="0"/>
<stop offset="1" stop-color="#FF7044"/>
</linearGradient>
<linearGradient id="paint53_linear_0_921" x1="10.3162" y1="14.1405" x2="13.3847" y2="15.9776" gradientUnits="userSpaceOnUse">
<stop stop-color="#FFD945"/>
<stop offset="0.3043" stop-color="#FFCD3E"/>
<stop offset="0.8558" stop-color="#FFAD2B"/>
<stop offset="1" stop-color="#FFA325"/>
</linearGradient>
<linearGradient id="paint54_linear_0_921" x1="5.79994" y1="5.35171" x2="7.60823" y2="7.7729" gradientUnits="userSpaceOnUse">
<stop stop-color="#FFD945"/>
<stop offset="0.3043" stop-color="#FFCD3E"/>
<stop offset="0.8558" stop-color="#FFAD2B"/>
<stop offset="1" stop-color="#FFA325"/>
</linearGradient>
<linearGradient id="paint55_linear_0_921" x1="3.65556" y1="2.83945" x2="4.93432" y2="4.5516" gradientUnits="userSpaceOnUse">
<stop stop-color="#FFD945"/>
<stop offset="0.3043" stop-color="#FFCD3E"/>
<stop offset="0.8558" stop-color="#FFAD2B"/>
<stop offset="1" stop-color="#FFA325"/>
</linearGradient>
<linearGradient id="paint56_linear_0_921" x1="9.64409" y1="1.41" x2="10.9228" y2="3.12215" gradientUnits="userSpaceOnUse">
<stop stop-color="#FFD945"/>
<stop offset="0.3043" stop-color="#FFCD3E"/>
<stop offset="0.8558" stop-color="#FFAD2B"/>
<stop offset="1" stop-color="#FFA325"/>
</linearGradient>
</defs>
</svg>
