<svg width="14" height="15" viewBox="0 0 14 15" fill="none" xmlns="http://www.w3.org/2000/svg">
<path d="M5.33366 7.50033V14.5837H1.83366C1.28216 14.5837 0.833659 14.1071 0.833659 13.5212V7.46456C0.941326 7.48793 1.05283 7.50033 1.16699 7.50033H5.33366ZM6.00033 7.50033V14.5837H8.00033V7.50033H6.00033ZM12.8337 7.50033H8.66699V14.5837H12.167C12.7185 14.5837 13.167 14.1071 13.167 13.5212V7.46456C13.0593 7.48793 12.9478 7.50033 12.8337 7.50033ZM13.8337 4.31283V5.72949C13.8337 6.31546 13.3852 6.79199 12.8337 6.79199H1.16699C0.615492 6.79199 0.166992 6.31546 0.166992 5.72949V4.31283C0.166992 3.72686 0.615492 3.25033 1.16699 3.25033H4.33683C4.12666 2.95389 4.00033 2.58662 4.00033 2.18783C4.00033 1.21139 4.74799 0.416992 5.66699 0.416992C6.21249 0.416992 6.69616 0.698201 7.00033 1.12993C7.30466 0.698201 7.78816 0.416992 8.33366 0.416992C9.25266 0.416992 10.0003 1.21139 10.0003 2.18783C10.0003 2.58662 9.87399 2.95389 9.66383 3.25033H12.8337C13.3852 3.25033 13.8337 3.72686 13.8337 4.31283ZM7.33366 2.18783V3.25033H8.33366C8.88516 3.25033 9.33366 2.77379 9.33366 2.18783C9.33366 1.60186 8.88516 1.12533 8.33366 1.12533C7.78216 1.12533 7.33366 1.60186 7.33366 2.18783ZM5.66699 3.25033H6.66699V2.18783C6.66699 1.60186 6.21849 1.12533 5.66699 1.12533C5.11549 1.12533 4.66699 1.60186 4.66699 2.18783C4.66699 2.77379 5.11549 3.25033 5.66699 3.25033Z" fill="white"/>
</svg>
