<svg width="24" height="24" viewBox="0 0 24 24" fill="none" xmlns="http://www.w3.org/2000/svg">
<g clip-path="url(#clip0_55_739)">
<mask id="path-1-inside-1_55_739" fill="white">
<path fill-rule="evenodd" clip-rule="evenodd" d="M16.6476 5.6001H6.89524L4 12.0001L6.89524 18.4001H16.6476L19.5 12.0001L16.6476 5.6001ZM11.5 15.2501C13.433 15.2501 15 13.6831 15 11.7501C15 9.8171 13.433 8.2501 11.5 8.2501C9.567 8.2501 8 9.8171 8 11.7501C8 13.6831 9.567 15.2501 11.5 15.2501Z"/>
</mask>
<path fill-rule="evenodd" clip-rule="evenodd" d="M16.6476 5.6001H6.89524L4 12.0001L6.89524 18.4001H16.6476L19.5 12.0001L16.6476 5.6001ZM11.5 15.2501C13.433 15.2501 15 13.6831 15 11.7501C15 9.8171 13.433 8.2501 11.5 8.2501C9.567 8.2501 8 9.8171 8 11.7501C8 13.6831 9.567 15.2501 11.5 15.2501Z" fill="white"/>
<path d="M6.89524 5.6001V4.6001H6.25005L5.98413 5.18793L6.89524 5.6001ZM16.6476 5.6001L17.561 5.19301L17.2968 4.6001H16.6476V5.6001ZM4 12.0001L3.08889 11.5879L2.90244 12.0001L3.08889 12.4123L4 12.0001ZM6.89524 18.4001L5.98413 18.8123L6.25005 19.4001H6.89524V18.4001ZM16.6476 18.4001V19.4001H17.2968L17.561 18.8072L16.6476 18.4001ZM19.5 12.0001L20.4134 12.4072L20.5948 12.0001L20.4134 11.593L19.5 12.0001ZM6.89524 6.6001H16.6476V4.6001H6.89524V6.6001ZM4.91111 12.4123L7.80635 6.01227L5.98413 5.18793L3.08889 11.5879L4.91111 12.4123ZM7.80635 17.9879L4.91111 11.5879L3.08889 12.4123L5.98413 18.8123L7.80635 17.9879ZM16.6476 17.4001H6.89524V19.4001H16.6476V17.4001ZM18.5866 11.593L15.7342 17.993L17.561 18.8072L20.4134 12.4072L18.5866 11.593ZM15.7342 6.00718L18.5866 12.4072L20.4134 11.593L17.561 5.19301L15.7342 6.00718ZM14 11.7501C14 13.1308 12.8807 14.2501 11.5 14.2501V16.2501C13.9853 16.2501 16 14.2354 16 11.7501H14ZM11.5 9.2501C12.8807 9.2501 14 10.3694 14 11.7501H16C16 9.26482 13.9853 7.2501 11.5 7.2501V9.2501ZM9 11.7501C9 10.3694 10.1193 9.2501 11.5 9.2501V7.2501C9.01472 7.2501 7 9.26482 7 11.7501H9ZM11.5 14.2501C10.1193 14.2501 9 13.1308 9 11.7501H7C7 14.2354 9.01472 16.2501 11.5 16.2501V14.2501Z" fill="white" mask="url(#path-1-inside-1_55_739)"/>
</g>
<defs>
<clipPath id="clip0_55_739">
<rect width="24" height="24" fill="white"/>
</clipPath>
</defs>
</svg>
