<svg width="14" height="14" viewBox="0 0 14 14" fill="none" xmlns="http://www.w3.org/2000/svg">
<g id="lock-padlock-symbol-for-security-interface 3" clip-path="url(#clip0_0_1574)">
<g id="Group">
<g id="Group_2">
<path id="Vector" d="M6.84677 0.583984C4.75051 0.583984 3.04501 2.28942 3.04501 4.38575V6.55704C3.04501 6.58171 3.01456 6.62329 2.99064 6.63124C2.78505 6.69979 2.61809 6.7592 2.46525 6.81812C2.28298 6.88839 2.14551 7.09038 2.14551 7.28799V12.277C2.14551 12.4733 2.28209 12.6754 2.4632 12.7472C3.86451 13.3025 5.33935 13.584 6.84675 13.584C8.35415 13.584 9.82899 13.3024 11.2304 12.7471C11.4114 12.6754 11.5479 12.4733 11.5479 12.277V7.28799C11.5479 7.09038 11.4105 6.88839 11.2281 6.81806C11.0752 6.75914 10.9083 6.69973 10.7028 6.63117C10.679 6.62322 10.6485 6.58162 10.6485 6.55695V4.38568C10.6484 2.28942 8.94304 0.583984 6.84677 0.583984ZM5.81127 8.80748C5.81127 8.23518 6.27488 7.77206 6.84671 7.77206C7.41849 7.77206 7.8821 8.23513 7.8821 8.80748C7.8821 9.18669 7.66825 9.50419 7.36439 9.68417V11.396C7.36439 11.6822 7.13284 11.9138 6.84668 11.9138C6.5605 11.9138 6.32898 11.6822 6.32898 11.396V9.68417C6.02514 9.50419 5.81127 9.18669 5.81127 8.80748ZM9.34129 4.38568V6.25911C8.52325 6.08308 7.684 5.99393 6.84711 5.99387C6.01059 5.99387 5.17152 6.08303 4.35222 6.25891V4.38568C4.35222 3.01018 5.47123 1.89119 6.84671 1.89119C8.22216 1.89117 9.34129 3.01018 9.34129 4.38568Z" fill="black"/>
</g>
</g>
</g>
<defs>
<clipPath id="clip0_0_1574">
<rect width="13" height="13" fill="white" transform="translate(0.34668 0.583984)"/>
</clipPath>
</defs>
</svg>
