<svg width="24" height="24" viewBox="0 0 24 24" fill="none" xmlns="http://www.w3.org/2000/svg">
<g clip-path="url(#clip0_54_654)">
<mask id="path-1-inside-1_54_654" fill="white">
<path fill-rule="evenodd" clip-rule="evenodd" d="M13 2L5 5V20L13 22V2ZM12 10H10V13H12V10Z"/>
</mask>
<path fill-rule="evenodd" clip-rule="evenodd" d="M13 2L5 5V20L13 22V2ZM12 10H10V13H12V10Z" fill="white"/>
<path d="M5 5L4.64888 4.06367L4 4.307V5H5ZM13 2H14V0.557L12.6489 1.06367L13 2ZM5 20H4V20.7808L4.75746 20.9701L5 20ZM13 22L12.7575 22.9701L14 23.2808V22H13ZM10 10V9H9V10H10ZM12 10H13V9H12V10ZM10 13H9V14H10V13ZM12 13V14H13V13H12ZM5.35112 5.93633L13.3511 2.93633L12.6489 1.06367L4.64888 4.06367L5.35112 5.93633ZM6 20V5H4V20H6ZM13.2425 21.0299L5.24254 19.0299L4.75746 20.9701L12.7575 22.9701L13.2425 21.0299ZM12 2V22H14V2H12ZM10 11H12V9H10V11ZM11 13V10H9V13H11ZM12 12H10V14H12V12ZM11 10V13H13V10H11Z" fill="white" mask="url(#path-1-inside-1_54_654)"/>
<path fill-rule="evenodd" clip-rule="evenodd" d="M19 4H13V13.5923C13 13.2344 13.2121 12.9163 13.5391 12.7749L15.2314 12.0591C15.66 11.8779 16.1549 12.037 16.4023 12.4302L16.8442 13.1372C17.1402 13.6586 17.697 14.0563 18.3686 14.1667C18.5851 14.2021 18.7442 14.3833 18.7442 14.5998C18.7442 14.8693 18.5056 15.0814 18.2405 15.0416C17.4716 14.9179 16.7867 14.5247 16.314 13.9767L16.0488 15.3023L16.7028 15.9253C16.8795 16.0933 16.9767 16.323 16.9767 16.566V19.0581C16.9767 19.3012 16.7779 19.5 16.5349 19.5C16.2919 19.5 16.093 19.3012 16.093 19.0581V16.8488L15.1651 15.9651L14.4493 19.1553C14.4007 19.3586 14.224 19.5 14.0163 19.5H13.9809C13.7026 19.5 13.4905 19.2437 13.5479 18.9742L14.6791 13.2698L13.8837 13.5791V14.6395C13.8837 14.8826 13.6849 15.0814 13.4419 15.0814C13.1988 15.0814 13 14.8826 13 14.6395V21H19V4ZM17.1977 10.8837C17.1977 11.3698 16.8 11.7674 16.314 11.7674C15.8279 11.7674 15.4302 11.3698 15.4302 10.8837C15.4302 10.3977 15.8279 10 16.314 10C16.8 10 17.1977 10.3977 17.1977 10.8837Z" fill="white"/>
</g>
<defs>
<clipPath id="clip0_54_654">
<rect width="24" height="24" fill="white"/>
</clipPath>
</defs>
</svg>
