<svg width="24" height="24" viewBox="0 0 24 24" fill="none" xmlns="http://www.w3.org/2000/svg">
<path fill-rule="evenodd" clip-rule="evenodd" d="M9.17157 4.17157C8.42143 4.92172 8 5.93913 8 7C8 8.06087 8.42143 9.07828 9.17157 9.82843C9.92172 10.5786 10.9391 11 12 11C13.0609 11 14.0783 10.5786 14.8284 9.82843C15.5786 9.07828 16 8.06087 16 7C16 5.93913 15.5786 4.92172 14.8284 4.17157C14.0783 3.42143 13.0609 3 12 3C10.9391 3 9.92172 3.42143 9.17157 4.17157ZM4.46447 14.4645C5.40215 13.5268 6.67392 13 8 13H16C17.195 13 18.3458 13.4278 19.2479 14.1985C18.8552 14.0697 18.4357 14 18 14C15.7909 14 14 15.7909 14 18C14 19.1947 14.5238 20.2671 15.3542 21H6C5.20435 21 4.44129 20.6839 3.87868 20.1213C3.31607 19.5587 3 18.7956 3 18C3 16.6739 3.52678 15.4021 4.46447 14.4645Z" fill="white"/>
<path d="M18 14.9C16.2879 14.9 14.9 16.2879 14.9 18C14.9 19.7122 16.2879 21.1 18 21.1C19.7122 21.1 21.1 19.7122 21.1 18C21.1 16.2879 19.7122 14.9 18 14.9ZM18 20.5309C16.6081 20.5309 15.475 19.3925 15.475 18C15.475 16.6078 16.6078 15.475 18 15.475C19.3922 15.475 20.525 16.6078 20.525 18C20.525 19.3925 19.3919 20.5309 18 20.5309ZM19.3125 17.7125H18.2875V16.6875C18.2875 16.5288 18.1587 16.4 18 16.4C17.8413 16.4 17.7125 16.5288 17.7125 16.6875V17.7125H16.6875C16.5288 17.7125 16.4 17.8413 16.4 18C16.4 18.1587 16.5288 18.2875 16.6875 18.2875H17.7125V19.3125C17.7125 19.4712 17.8413 19.6 18 19.6C18.1587 19.6 18.2875 19.4712 18.2875 19.3125V18.2875H19.3125C19.4712 18.2875 19.6 18.1587 19.6 18C19.6 17.8413 19.4712 17.7125 19.3125 17.7125Z" fill="white" stroke="white" stroke-width="0.2"/>
</svg>
