<svg width="15" height="14" viewBox="0 0 15 14" fill="none" xmlns="http://www.w3.org/2000/svg">
<g id="magnifying-glass 1">
<g id="Group">
<path id="Vector" d="M13.8507 12.002L10.7767 8.92777C11.299 8.09627 11.6022 7.11349 11.6022 6.05878C11.6022 3.07487 9.1832 0.65625 6.19941 0.65625C3.21561 0.65625 0.796875 3.07487 0.796875 6.05878C0.796875 9.0428 3.2155 11.4612 6.19941 11.4612C7.3472 11.4612 8.41035 11.1024 9.28519 10.4926L12.3226 13.5302C12.5336 13.741 12.8103 13.8461 13.0866 13.8461C13.3633 13.8461 13.6397 13.741 13.851 13.5302C14.2728 13.108 14.2728 12.4241 13.8507 12.002ZM6.19941 9.71086C4.18263 9.71086 2.54755 8.0759 2.54755 6.05901C2.54755 4.04212 4.18263 2.40704 6.19941 2.40704C8.21629 2.40704 9.85126 4.04212 9.85126 6.05901C9.85126 8.0759 8.21629 9.71086 6.19941 9.71086Z" fill="white"/>
</g>
</g>
</svg>
