<svg width="14" height="16" viewBox="0 0 14 16" fill="none" xmlns="http://www.w3.org/2000/svg">
<g id="user (1) 1">
<path id="Vector" d="M6.90525 8.02968C7.87896 8.02968 8.72211 7.68307 9.41103 6.9992C10.0999 6.31544 10.4492 5.47882 10.4492 4.51229C10.4492 3.54609 10.0999 2.70936 9.41091 2.02538C8.72189 1.34173 7.87884 0.995117 6.90525 0.995117C5.93143 0.995117 5.0885 1.34173 4.39958 2.02549C3.71067 2.70925 3.36133 3.54598 3.36133 4.51229C3.36133 5.47882 3.71067 6.31555 4.3997 6.99931C5.08872 7.68296 5.93176 8.02968 6.90525 8.02968Z" fill="#B2B6C5"/>
<path id="Vector_2" d="M13.1072 12.2241C13.0873 11.9396 13.0472 11.6292 12.988 11.3014C12.9283 10.9712 12.8514 10.659 12.7593 10.3736C12.6643 10.0787 12.5349 9.78747 12.3751 9.50837C12.2092 9.21869 12.0143 8.96645 11.7956 8.75888C11.567 8.54173 11.287 8.36714 10.9632 8.23979C10.6406 8.11311 10.2831 8.04894 9.90062 8.04894C9.75043 8.04894 9.60517 8.11011 9.32464 8.29138C9.15199 8.40313 8.95004 8.53237 8.72463 8.67532C8.53189 8.79721 8.27078 8.91141 7.94827 9.0148C7.63362 9.11586 7.31414 9.16711 6.99881 9.16711C6.68348 9.16711 6.36411 9.11586 6.04912 9.0148C5.72695 8.91152 5.46584 8.79732 5.27332 8.67543C5.05005 8.53382 4.84799 8.40458 4.67275 8.29127C4.39256 8.11 4.24719 8.04883 4.09699 8.04883C3.71442 8.04883 3.357 8.11311 3.03449 8.23991C2.71097 8.36703 2.43089 8.54162 2.202 8.75899C1.98344 8.96667 1.78845 9.2188 1.62276 9.50837C1.46302 9.78747 1.3337 10.0786 1.23851 10.3737C1.14657 10.6591 1.06968 10.9712 1.00995 11.3014C0.950796 11.6287 0.910608 11.9392 0.890739 12.2245C0.871207 12.5039 0.861328 12.7939 0.861328 13.0868C0.861328 13.8491 1.10548 14.4663 1.58695 14.9214C2.06247 15.3705 2.69166 15.5984 3.4568 15.5984H10.5415C11.3066 15.5984 11.9356 15.3706 12.4112 14.9214C12.8928 14.4666 13.137 13.8494 13.137 13.0867C13.1369 12.7925 13.1269 12.5022 13.1072 12.2241Z" fill="#B2B6C5"/>
</g>
</svg>
