<svg width="24" height="24" viewBox="0 0 24 24" fill="none" xmlns="http://www.w3.org/2000/svg">
<path d="M2.80585 5.19985L7.00485 7.99985L11.1909 2.13985C11.2833 2.01016 11.4053 1.90442 11.5469 1.83143C11.6884 1.75844 11.8453 1.72031 12.0046 1.72022C12.1638 1.72012 12.3208 1.75806 12.4624 1.83087C12.6041 1.90369 12.7263 2.00928 12.8189 2.13885L17.0049 7.99985L21.2049 5.20085C21.3638 5.0951 21.5497 5.03706 21.7406 5.03359C21.9315 5.03012 22.1194 5.08136 22.2821 5.18127C22.4448 5.28118 22.5755 5.42557 22.6587 5.59738C22.7419 5.7692 22.7743 5.96125 22.7519 6.15085L21.1099 20.1159C21.0812 20.3591 20.9643 20.5834 20.7812 20.7461C20.5982 20.9089 20.3618 20.9988 20.1169 20.9989H3.89385C3.64892 20.9988 3.41252 20.9089 3.22948 20.7461C3.04645 20.5834 2.92951 20.3591 2.90085 20.1159L1.25785 6.14885C1.2355 5.95918 1.26792 5.76707 1.35129 5.59524C1.43467 5.42342 1.5655 5.27906 1.72832 5.17924C1.89115 5.07942 2.07915 5.02831 2.2701 5.03197C2.46105 5.03562 2.64697 5.09388 2.80585 5.19985ZM12.0059 14.9999C12.5363 14.9999 13.045 14.7891 13.4201 14.4141C13.7951 14.039 14.0059 13.5303 14.0059 12.9999C14.0059 12.4694 13.7951 11.9607 13.4201 11.5856C13.045 11.2106 12.5363 10.9999 12.0059 10.9999C11.4754 10.9999 10.9667 11.2106 10.5916 11.5856C10.2166 11.9607 10.0059 12.4694 10.0059 12.9999C10.0059 13.5303 10.2166 14.039 10.5916 14.4141C10.9667 14.7891 11.4754 14.9999 12.0059 14.9999Z" fill="white"/>
</svg>
