<svg width="24" height="24" viewBox="0 0 24 24" fill="none" xmlns="http://www.w3.org/2000/svg">
<g clip-path="url(#clip0_54_646)">
<path d="M21.96 9.3331H20.6667V5.99977C20.6667 5.82295 20.5964 5.65339 20.4714 5.52836C20.3464 5.40334 20.1768 5.3331 20 5.3331H4C3.82319 5.3331 3.65362 5.26286 3.5286 5.13784C3.40357 5.01281 3.33333 4.84324 3.33333 4.66643C3.33333 4.48962 3.40357 4.32005 3.5286 4.19503C3.65362 4.07 3.82319 3.99977 4 3.99977H19.7333C19.9101 3.99977 20.0797 3.92953 20.2047 3.8045C20.3298 3.67948 20.4 3.50991 20.4 3.3331C20.4 3.15629 20.3298 2.98672 20.2047 2.86169C20.0797 2.73667 19.9101 2.66643 19.7333 2.66643H4C3.7426 2.66113 3.48667 2.70658 3.24683 2.80021C3.007 2.89384 2.78797 3.0338 2.60224 3.2121C2.41651 3.3904 2.26773 3.60354 2.1644 3.83935C2.06106 4.07516 2.0052 4.32903 2 4.58643V18.5864C2.00087 18.9486 2.07318 19.307 2.21277 19.6411C2.35236 19.9753 2.5565 20.2786 2.8135 20.5337C3.0705 20.7889 3.3753 20.9908 3.71046 21.128C4.04561 21.2652 4.40453 21.3349 4.76667 21.3331H20C20.1768 21.3331 20.3464 21.2629 20.4714 21.1378C20.5964 21.0128 20.6667 20.8432 20.6667 20.6664V17.3331H21.96C22.0441 17.3395 22.1287 17.3286 22.2085 17.3011C22.2883 17.2737 22.3616 17.2302 22.4241 17.1734C22.4865 17.1166 22.5366 17.0477 22.5715 16.9708C22.6063 16.894 22.6251 16.8108 22.6267 16.7264V10.0598C22.6289 9.87655 22.5611 9.6994 22.4373 9.56438C22.3134 9.42937 22.1427 9.34666 21.96 9.3331ZM21.3333 15.9998H15.6133C14.9301 15.9754 14.2845 15.6809 13.8182 15.1809C13.352 14.6809 13.1033 14.0163 13.1267 13.3331C13.1033 12.6499 13.352 11.9852 13.8182 11.4853C14.2845 10.9853 14.9301 10.6908 15.6133 10.6664H21.3333V15.9998Z" fill="white"/>
<path d="M16.0264 14.2798C16.5787 14.2798 17.0264 13.8321 17.0264 13.2798C17.0264 12.7275 16.5787 12.2798 16.0264 12.2798C15.4741 12.2798 15.0264 12.7275 15.0264 13.2798C15.0264 13.8321 15.4741 14.2798 16.0264 14.2798Z" fill="white"/>
</g>
<defs>
<clipPath id="clip0_54_646">
<rect width="24" height="24" fill="white"/>
</clipPath>
</defs>
</svg>
