<svg width="24" height="24" viewBox="0 0 24 24" fill="none" xmlns="http://www.w3.org/2000/svg">
<g clip-path="url(#clip0_54_673)">
<path d="M18.0007 11.1663H16.6673C16.5347 11.1663 16.4075 11.1137 16.3138 11.0199C16.22 10.9261 16.1673 10.7989 16.1673 10.6663C16.1673 10.5337 16.22 10.4066 16.3138 10.3128C16.4075 10.219 16.5347 10.1663 16.6673 10.1663H18.0007C18.0447 10.1658 18.0868 10.1481 18.1179 10.117C18.1491 10.0858 18.1668 10.0437 18.1673 9.99967V5.99967C18.1668 5.95563 18.1491 5.91354 18.1179 5.8824C18.0868 5.85125 18.0447 5.83353 18.0007 5.83301H6.00065C5.95661 5.83353 5.91452 5.85125 5.88337 5.8824C5.85223 5.91354 5.8345 5.95563 5.83398 5.99967V9.99967C5.8345 10.0437 5.85223 10.0858 5.88337 10.117C5.91452 10.1481 5.95661 10.1658 6.00065 10.1663H7.33398C7.46659 10.1663 7.59377 10.219 7.68754 10.3128C7.78131 10.4066 7.83398 10.5337 7.83398 10.6663C7.83398 10.7989 7.78131 10.9261 7.68754 11.0199C7.59377 11.1137 7.46659 11.1663 7.33398 11.1663H6.00065C5.69135 11.166 5.39482 11.0429 5.17611 10.8242C4.9574 10.6055 4.83436 10.309 4.83398 9.99967V5.99967C4.83436 5.69037 4.9574 5.39384 5.17611 5.17513C5.39482 4.95642 5.69135 4.83338 6.00065 4.83301H18.0007C18.31 4.83338 18.6065 4.95642 18.8252 5.17513C19.0439 5.39384 19.1669 5.69037 19.1673 5.99967V9.99967C19.1669 10.309 19.0439 10.6055 18.8252 10.8242C18.6065 11.0429 18.31 11.166 18.0007 11.1663Z" fill="white"/>
<path d="M14.0007 17.1662H11.6673C11.5347 17.1662 11.4075 17.1135 11.3138 17.0197C11.22 16.926 11.1673 16.7988 11.1673 16.6662C11.1673 16.5336 11.22 16.4064 11.3138 16.3126C11.4075 16.2189 11.5347 16.1662 11.6673 16.1662H14.0007C14.0448 16.1661 14.0872 16.1485 14.1184 16.1173C14.1496 16.086 14.1672 16.0437 14.1673 15.9995V8.49951H7.83398V15.9995C7.83407 16.0437 7.85166 16.086 7.88289 16.1173C7.91413 16.1485 7.95647 16.1661 8.00065 16.1662H9.33398C9.46659 16.1662 9.59377 16.2189 9.68754 16.3126C9.78131 16.4064 9.83398 16.5336 9.83398 16.6662C9.83398 16.7988 9.78131 16.926 9.68754 17.0197C9.59377 17.1135 9.46659 17.1662 9.33398 17.1662H8.00065C7.69135 17.1658 7.39482 17.0428 7.17611 16.8241C6.9574 16.6053 6.83436 16.3088 6.83398 15.9995V7.99951C6.83402 7.86691 6.88671 7.73976 6.98047 7.646C7.07423 7.55224 7.20139 7.49955 7.33398 7.49951H14.6673C14.7999 7.49955 14.9271 7.55224 15.0208 7.646C15.1146 7.73976 15.1673 7.86691 15.1673 7.99951V15.9995C15.1669 16.3088 15.0439 16.6053 14.8252 16.8241C14.6065 17.0428 14.31 17.1658 14.0007 17.1662Z" fill="white"/>
<path d="M16.0007 19.1662H10.0007C9.69135 19.1658 9.39482 19.0428 9.17611 18.8241C8.9574 18.6053 8.83436 18.3088 8.83398 17.9995V16.6662C8.83398 16.5336 8.88666 16.4064 8.98043 16.3126C9.0742 16.2189 9.20138 16.1662 9.33398 16.1662C9.46659 16.1662 9.59377 16.2189 9.68754 16.3126C9.78131 16.4064 9.83398 16.5336 9.83398 16.6662V17.9995C9.83407 18.0437 9.85166 18.086 9.88289 18.1173C9.91413 18.1485 9.95647 18.1661 10.0007 18.1662H16.0007C16.0448 18.1661 16.0872 18.1485 16.1184 18.1173C16.1496 18.086 16.1672 18.0437 16.1673 17.9995V8.49951H9.33398C9.20138 8.49951 9.0742 8.44683 8.98043 8.35307C8.88666 8.2593 8.83398 8.13212 8.83398 7.99951C8.83398 7.8669 8.88666 7.73973 8.98043 7.64596C9.0742 7.55219 9.20138 7.49951 9.33398 7.49951H16.6673C16.7999 7.49955 16.9271 7.55224 17.0208 7.646C17.1146 7.73976 17.1673 7.86691 17.1673 7.99951V17.9995C17.1669 18.3088 17.0439 18.6053 16.8252 18.8241C16.6065 19.0428 16.31 19.1658 16.0007 19.1662Z" fill="white"/>
<path d="M12.3337 13.3888C12.2011 13.3888 12.0739 13.3361 11.9801 13.2424C11.8864 13.1486 11.8337 13.0214 11.8337 12.8888V11.7775C11.8337 11.5939 11.5003 11.5939 11.5003 11.7775V12.2222C11.5003 12.5316 11.3774 12.8283 11.1586 13.0471C10.9398 13.2659 10.6431 13.3888 10.3337 13.3888C10.0242 13.3888 9.72749 13.2659 9.5087 13.0471C9.28991 12.8283 9.16699 12.5316 9.16699 12.2222V11.1108C9.16699 10.9782 9.21967 10.8511 9.31344 10.7573C9.40721 10.6635 9.53438 10.6108 9.66699 10.6108C9.7996 10.6108 9.92678 10.6635 10.0205 10.7573C10.1143 10.8511 10.167 10.9782 10.167 11.1108V12.2222C10.167 12.4058 10.5003 12.4058 10.5003 12.2222V11.7775C10.5003 11.4681 10.6232 11.1713 10.842 10.9525C11.0608 10.7338 11.3576 10.6108 11.667 10.6108C11.9764 10.6108 12.2732 10.7338 12.492 10.9525C12.7107 11.1713 12.8337 11.4681 12.8337 11.7775V12.8888C12.8336 13.0214 12.7809 13.1486 12.6872 13.2424C12.5934 13.3361 12.4663 13.3888 12.3337 13.3888Z" fill="white"/>
<path d="M13.001 12.4995H12.3343C12.2017 12.4995 12.0745 12.4468 11.9808 12.3531C11.887 12.2593 11.8343 12.1321 11.8343 11.9995C11.8343 11.8669 11.887 11.7397 11.9808 11.646C12.0745 11.5522 12.2017 11.4995 12.3343 11.4995H13.001C13.1336 11.4995 13.2608 11.5522 13.3545 11.646C13.4483 11.7397 13.501 11.8669 13.501 11.9995C13.501 12.1321 13.4483 12.2593 13.3545 12.3531C13.2608 12.4468 13.1336 12.4995 13.001 12.4995ZM9.66764 12.4995H9.00098C8.86837 12.4995 8.74119 12.4468 8.64742 12.3531C8.55365 12.2593 8.50098 12.1321 8.50098 11.9995C8.50098 11.8669 8.55365 11.7397 8.64742 11.646C8.74119 11.5522 8.86837 11.4995 9.00098 11.4995H9.66764C9.80025 11.4995 9.92743 11.5522 10.0212 11.646C10.115 11.7397 10.1676 11.8669 10.1676 11.9995C10.1676 12.1321 10.115 12.2593 10.0212 12.3531C9.92743 12.4468 9.80025 12.4995 9.66764 12.4995Z" fill="white"/>
<path d="M17.3337 8.49951H6.66699C6.53438 8.49951 6.40721 8.44683 6.31344 8.35307C6.21967 8.2593 6.16699 8.13212 6.16699 7.99951C6.16699 7.8669 6.21967 7.73973 6.31344 7.64596C6.40721 7.55219 6.53438 7.49951 6.66699 7.49951H17.3337C17.4663 7.49951 17.5934 7.55219 17.6872 7.64596C17.781 7.73973 17.8337 7.8669 17.8337 7.99951C17.8337 8.13212 17.781 8.2593 17.6872 8.35307C17.5934 8.44683 17.4663 8.49951 17.3337 8.49951Z" fill="white"/>
<rect x="5.33301" y="5.3335" width="13.3333" height="2.66667" fill="white"/>
</g>
<defs>
<clipPath id="clip0_54_673">
<rect width="16" height="16" fill="white" transform="translate(4 4)"/>
</clipPath>
</defs>
</svg>
