<svg width="23" height="26" viewBox="0 0 23 26" fill="none" xmlns="http://www.w3.org/2000/svg">
<g id="Group 711">
<g id="Group 710">
<path id="Vector" d="M14.9716 6.27781C14.3969 6.65238 13.9065 7.1457 13.5351 7.72285C13.4516 7.85263 13.2589 7.85226 13.1759 7.72222C12.8066 7.14375 12.318 6.64861 11.7447 6.272C11.6174 6.18839 11.6177 5.99829 11.7453 5.91518C12.32 5.54065 12.8104 5.04729 13.1818 4.47018C13.2653 4.3404 13.458 4.34072 13.541 4.47082C13.9103 5.04929 14.3989 5.54442 14.9723 5.92103C15.0996 6.0046 15.0992 6.19465 14.9716 6.27781Z" fill="url(#paint0_linear_0_1582)"/>
<path id="Vector_2" d="M12.1912 3.49446C11.7847 3.75932 11.4379 4.1082 11.1753 4.51631C11.1162 4.6081 10.9799 4.60782 10.9212 4.51586C10.6601 4.10679 10.3146 3.75664 9.90915 3.49033C9.81914 3.43123 9.81941 3.29678 9.9096 3.23799C10.316 2.97313 10.6628 2.62425 10.9254 2.21614C10.9845 2.12436 11.1208 2.12463 11.1795 2.21659C11.4406 2.62566 11.7861 2.97581 12.1916 3.24213C12.2816 3.30123 12.2814 3.43568 12.1912 3.49446Z" fill="url(#paint1_linear_0_1582)"/>
<path id="Vector_3" d="M18.1794 2.06379C17.773 2.32865 17.4262 2.67753 17.1636 3.08565C17.1045 3.17743 16.9682 3.17716 16.9095 3.0852C16.6484 2.67613 16.3029 2.32598 15.8974 2.05966C15.8074 2.00056 15.8077 1.86611 15.8979 1.80733C16.3043 1.54247 16.6511 1.19359 16.9137 0.785475C16.9728 0.693693 17.1091 0.693965 17.1678 0.785929C17.4289 1.195 17.7744 1.54515 18.1799 1.81146C18.2699 1.87061 18.2696 2.00501 18.1794 2.06379Z" fill="url(#paint2_linear_0_1582)"/>
</g>
<g id="Group">
<g id="Group_2">
<g id="&#195;&#162;&#226;&#130;&#172;&#218;&#169;&#216;&#163;&#194;&#171;&#216;&#163;&#194;&#174;&#216;&#163;&#194;&#169;_1">
<g id="Group_3">
<path id="Vector_4" d="M21.2547 12.4907C21.1712 12.1985 20.8662 12.0298 20.5729 12.113C20.2795 12.1962 20.1102 12.5 20.1937 12.7922C20.2772 13.0844 20.5821 13.2531 20.8755 13.1699C21.1689 13.0867 21.3382 12.783 21.2547 12.4907Z" fill="#380EAB"/>
<g id="Group_4">
<path id="Vector_5" d="M0.993988 11.7556C0.30866 11.9496 0.156751 12.5803 0.436217 13.0319C0.614796 13.3219 3.77357 24.4303 3.77357 24.4303L22.1928 19.2035L19.2729 8.99377C18.9181 7.75552 17.6228 7.03706 16.3797 7.38936L0.993988 11.7556Z" fill="url(#paint3_linear_0_1582)"/>
<g id="Clip path group">
<mask id="mask0_0_1582" style="mask-type:luminance" maskUnits="userSpaceOnUse" x="0" y="7" width="23" height="18">
<g id="clippath">
<path id="Vector_6" d="M0.993988 11.7556C0.30866 11.9496 0.156751 12.5803 0.436217 13.0319C0.614796 13.3219 3.77357 24.4303 3.77357 24.4303L22.1928 19.2035L19.2729 8.99377C18.9181 7.75552 17.6228 7.03706 16.3797 7.38936L0.993988 11.7556Z" fill="white"/>
</g>
</mask>
<g mask="url(#mask0_0_1582)">
<g id="Group_5">
<path id="Vector_7" d="M0.452538 13.0669C0.454857 13.0727 0.457176 13.0785 0.460655 13.0866C0.464134 13.0947 0.467613 13.1051 0.471091 13.1143C0.473411 13.1212 0.47573 13.1258 0.478049 13.1339C0.482687 13.1466 0.487326 13.1605 0.493124 13.1755C0.495443 13.1813 0.496603 13.1871 0.498922 13.1928C0.50472 13.2102 0.511678 13.2286 0.517476 13.2483C0.518635 13.2529 0.520954 13.2575 0.522114 13.2633C0.529072 13.2852 0.537189 13.3095 0.545306 13.3338C0.545306 13.3372 0.547626 13.3407 0.548785 13.343C0.558062 13.3707 0.567339 13.3996 0.576616 13.4296C0.576616 13.4308 0.576616 13.4319 0.577775 13.4331C0.588212 13.4654 0.598648 13.4989 0.610244 13.5347C0.765632 13.611 0.89087 13.6537 0.89087 13.6537L1.39298 13.6826L1.78261 13.3107C1.78261 13.3107 0.469932 13.4747 0.566179 12.5321C0.614883 12.0551 1.11931 11.9003 2.73117 11.4602L17.2866 7.31694C16.9909 7.28344 16.6824 7.30423 16.3786 7.39086L0.994075 11.7559C0.650831 11.8529 0.442101 12.0597 0.353971 12.2977C0.287873 12.4767 0.289033 12.6731 0.352811 12.8556C0.373684 12.9168 0.402674 12.9757 0.437463 13.0323C0.439782 13.0369 0.443261 13.0438 0.447899 13.0531C0.450218 13.0565 0.451378 13.0635 0.453697 13.0681L0.452538 13.0669Z" fill="url(#paint4_linear_0_1582)"/>
</g>
</g>
</g>
</g>
<g id="Group_6">
<path id="Vector_8" d="M7.63668 13.4569C10.0556 13.4569 12.0165 11.5037 12.0165 9.09419C12.0165 6.68471 10.0556 4.73145 7.63668 4.73145C5.21776 4.73145 3.25684 6.68471 3.25684 9.09419C3.25684 11.5037 5.21776 13.4569 7.63668 13.4569Z" fill="url(#paint5_radial_0_1582)"/>
<path id="Vector_9" d="M7.63629 4.73145C7.61658 4.73145 7.59686 4.7326 7.57715 4.7326C9.96826 4.76494 11.8978 6.70433 11.8978 9.09419C11.8978 11.4841 9.96942 13.4234 7.57715 13.4558C7.59686 13.4558 7.61658 13.4569 7.63629 13.4569C10.0552 13.4569 12.0161 11.5037 12.0161 9.09419C12.0161 6.68469 10.0552 4.73145 7.63629 4.73145Z" fill="url(#paint6_linear_0_1582)"/>
<path id="Vector_10" d="M7.63661 12.4336C9.4881 12.4336 10.989 10.9385 10.989 9.09423C10.989 7.24996 9.4881 5.75488 7.63661 5.75488C5.78511 5.75488 4.28418 7.24996 4.28418 9.09423C4.28418 10.9385 5.78511 12.4336 7.63661 12.4336Z" fill="url(#paint7_radial_0_1582)"/>
<path id="Vector_11" d="M7.647 11.6287C7.54031 11.6287 7.45218 11.5929 7.3826 11.5224C7.31303 11.452 7.27824 11.363 7.27824 11.2568V10.9957C7.07879 10.9784 6.90485 10.9472 6.75758 10.9033C6.61031 10.8594 6.48739 10.8132 6.3923 10.7682C6.29953 10.7254 6.23459 10.6665 6.19749 10.5903C6.16038 10.514 6.14646 10.4343 6.15458 10.3512C6.16386 10.268 6.19285 10.1929 6.24271 10.1248C6.29257 10.0578 6.35751 10.0127 6.43752 9.98963C6.51754 9.96653 6.61147 9.97808 6.71815 10.0243C6.78889 10.0601 6.89557 10.0994 7.0382 10.1409C7.18083 10.1837 7.36057 10.2045 7.57742 10.2045C7.79427 10.2045 7.95313 10.1733 8.04242 10.1109C8.13171 10.0485 8.17578 9.97577 8.17578 9.89029C8.17578 9.81637 8.14563 9.75284 8.08533 9.70201C8.02503 9.65119 7.91487 9.6073 7.75484 9.57149L7.15184 9.44443C6.49666 9.29889 6.16965 8.94659 6.16965 8.38638C6.16965 8.08836 6.27054 7.83656 6.47115 7.62864C6.67176 7.42073 6.94195 7.28558 7.28056 7.22205V6.93444C7.28056 6.82817 7.31535 6.73923 7.38492 6.66877C7.4545 6.59831 7.54263 6.5625 7.64932 6.5625C7.756 6.5625 7.84529 6.59831 7.91603 6.66877C7.98676 6.74038 8.02271 6.82817 8.02271 6.93444V7.20011C8.13983 7.21743 8.26043 7.244 8.38335 7.27981C8.50627 7.31561 8.61527 7.36297 8.71152 7.42304C8.81472 7.47964 8.87966 7.55703 8.90633 7.65405C8.933 7.75223 8.92836 7.8458 8.89357 7.93589C8.85763 8.02599 8.79501 8.09183 8.70456 8.13226C8.61411 8.17268 8.49931 8.1646 8.36015 8.108C8.27434 8.07219 8.18158 8.04332 8.08301 8.02021C7.98328 7.99711 7.85573 7.98556 7.69918 7.98556C7.51016 7.98556 7.36521 8.01906 7.26432 8.08605C7.16228 8.15305 7.11242 8.24083 7.11242 8.3471C7.11242 8.41872 7.14141 8.47763 7.20055 8.52499C7.25969 8.57234 7.36637 8.61508 7.52408 8.64973L8.13287 8.78257C8.79501 8.93157 9.1255 9.27694 9.1255 9.81983C9.1255 10.1213 9.02345 10.3731 8.82052 10.5753C8.61759 10.7774 8.35204 10.9091 8.02503 10.9691V11.2568C8.02503 11.363 7.98908 11.452 7.91834 11.5224C7.84761 11.5929 7.75832 11.6287 7.65163 11.6287H7.647Z" fill="#FFDD44"/>
</g>
<g id="Group_7">
<path id="Vector_12" d="M1.52972 13.3825C1.17836 13.4819 0.714519 13.4819 0.437373 13.0314C0.396787 12.9678 0.366637 12.8905 0.342285 12.8211L3.87677 25.2059C3.90344 25.3007 3.94519 25.3954 3.99969 25.4832C4.278 25.9336 4.74068 25.9325 5.09204 25.8332L20.8001 21.3745C22.0432 21.0211 22.7645 19.7309 22.4108 18.4926L20.1322 10.526C19.7773 9.28775 18.482 8.56929 17.2389 8.92159L1.52972 13.3825Z" fill="url(#paint8_linear_0_1582)"/>
<g id="Clip path group_2">
<mask id="mask1_0_1582" style="mask-type:luminance" maskUnits="userSpaceOnUse" x="0" y="8" width="23" height="18">
<g id="clippath-2">
<path id="Vector_13" d="M1.52972 13.3825C1.17836 13.4819 0.714519 13.4819 0.437373 13.0314C0.396787 12.9678 0.366637 12.8905 0.342285 12.8211L3.87677 25.2059C3.90344 25.3007 3.94519 25.3954 3.99969 25.4832C4.278 25.9336 4.74068 25.9325 5.09204 25.8332L20.8001 21.3745C22.0432 21.0211 22.7645 19.7309 22.4108 18.4926L20.1322 10.526C19.7773 9.28775 18.482 8.56929 17.2389 8.92159L1.52972 13.3825Z" fill="white"/>
</g>
</mask>
<g mask="url(#mask1_0_1582)">
<g id="Group_8">
<g id="Group_9">
<path id="Vector_14" style="mix-blend-mode:multiply" d="M18.8891 19.7215C20.8296 19.7215 22.4027 18.1545 22.4027 16.2216C22.4027 14.2886 20.8296 12.7217 18.8891 12.7217C16.9486 12.7217 15.3755 14.2886 15.3755 16.2216C15.3755 18.1545 16.9486 19.7215 18.8891 19.7215Z" fill="url(#paint9_radial_0_1582)"/>
<path id="Vector_15" style="mix-blend-mode:multiply" d="M20.8359 19.1961C22.7764 19.1961 24.3495 17.6291 24.3495 15.6962C24.3495 13.7632 22.7764 12.1963 20.8359 12.1963C18.8954 12.1963 17.3223 13.7632 17.3223 15.6962C17.3223 17.6291 18.8954 19.1961 20.8359 19.1961Z" fill="url(#paint10_radial_0_1582)"/>
</g>
<g id="Group_10" style="mix-blend-mode:screen">
<path id="Vector_16" d="M1.55659 13.2171C1.24813 13.2541 0.90605 13.1825 0.683405 12.8221C0.642819 12.7585 0.61151 12.6904 0.585998 12.6211H0.58252L0.718194 13.097C0.974467 13.291 1.2922 13.2853 1.55659 13.2171Z" fill="url(#paint11_linear_0_1582)"/>
<g id="Vector_17" style="mix-blend-mode:screen">
<path d="M22.411 18.495L20.1324 10.5284C19.7891 9.32941 18.5646 8.62134 17.3574 8.89741C18.5031 8.72877 19.6256 9.43221 19.9538 10.5792L22.2487 18.6036C22.5084 19.5103 22.1976 20.4413 21.532 21.0188C22.3043 20.4598 22.6858 19.4629 22.4087 18.495H22.411Z" fill="#3E3940"/>
</g>
</g>
<g id="Group_11">
<path id="Vector_18" d="M3.42358 24.7987C3.40734 24.7987 3.39111 24.7917 3.37951 24.779C3.32501 24.7155 3.28211 24.6427 3.25196 24.563C3.24036 24.533 3.25544 24.4995 3.28559 24.4891C3.31573 24.4776 3.34936 24.4937 3.3598 24.5226C3.38531 24.5896 3.42126 24.6508 3.46648 24.704C3.48736 24.7282 3.48504 24.7652 3.46069 24.7848C3.45025 24.7941 3.43633 24.7987 3.42242 24.7987H3.42358Z" fill="#390D99"/>
<path id="Vector_19" d="M3.37943 24.7786C3.35856 24.7543 3.36088 24.7185 3.38523 24.6977C3.40958 24.6769 3.44669 24.6793 3.46756 24.7035C3.48843 24.7278 3.48612 24.7647 3.46176 24.7855C3.45017 24.7948 3.43741 24.7994 3.4235 24.7994C3.40726 24.7994 3.39103 24.7925 3.37943 24.7786Z" fill="#390D99"/>
<path id="Vector_20" d="M4.38709 25.1361C4.38593 25.1361 4.38361 25.135 4.38245 25.135C4.183 25.1292 4.00558 25.1038 3.85483 25.0599C3.83975 25.0553 3.827 25.046 3.82004 25.0322C3.81308 25.0183 3.81076 25.0033 3.8154 24.9883C3.82352 24.9583 3.85599 24.9398 3.8873 24.949C4.02877 24.9894 4.19807 25.0137 4.39057 25.0206H4.39173C4.42188 25.0206 4.44739 25.046 4.44739 25.0761V25.0784C4.44623 25.1107 4.42072 25.135 4.38941 25.135L4.38825 25.1361H4.38709ZM4.91355 25.1154C4.8834 25.1154 4.85789 25.0934 4.85557 25.0634C4.85557 25.0611 4.85557 25.0599 4.85557 25.0576C4.85557 25.0276 4.87876 25.0033 4.90891 24.9998C5.07242 24.9837 5.24636 24.9594 5.42378 24.9271C5.45393 24.9201 5.48524 24.9421 5.49104 24.9733C5.49104 24.9767 5.49104 24.9802 5.49104 24.9848C5.49104 25.0114 5.47016 25.0357 5.44349 25.0403C5.26259 25.0738 5.08633 25.0992 4.91819 25.1154H4.91355ZM5.94676 24.9282C5.92009 24.9282 5.8969 24.9109 5.88994 24.8855C5.88994 24.8797 5.88994 24.8751 5.88994 24.8705C5.88994 24.8451 5.90734 24.822 5.93169 24.8162C5.94212 24.8139 5.95256 24.8139 5.963 24.8162C5.98271 24.822 5.99778 24.837 6.00242 24.8566C6.01054 24.8878 5.99199 24.919 5.96068 24.9271C5.96068 24.9271 5.95256 24.9271 5.94792 24.9271L5.94676 24.9282Z" fill="#390D99"/>
<path id="Vector_21" d="M5.94673 24.9298C5.92121 24.9298 5.89686 24.9125 5.89107 24.8859C5.88295 24.8547 5.9015 24.8235 5.93281 24.8154C6.06964 24.7808 6.15314 24.7554 6.15314 24.7554L6.37694 24.6918C6.40825 24.6826 6.43956 24.7011 6.44884 24.7311C6.45811 24.7623 6.43956 24.7935 6.40941 24.8027L6.18677 24.8663C6.16357 24.8732 6.08356 24.8963 5.9618 24.9275C5.95716 24.9286 5.95252 24.9298 5.94789 24.9298H5.94673Z" fill="#390D99"/>
<path id="Vector_22" d="M6.33638 24.7635C6.3271 24.7323 6.34566 24.7011 6.37696 24.6918C6.40711 24.6826 6.43958 24.7011 6.4477 24.7311C6.45698 24.7623 6.43958 24.7935 6.40827 24.8027C6.40248 24.805 6.39784 24.805 6.39204 24.805C6.36653 24.805 6.34334 24.7889 6.33638 24.7635Z" fill="#390D99"/>
<path id="Vector_23" d="M6.83975 24.6777C6.81424 24.6777 6.79105 24.6604 6.78409 24.6361C6.77597 24.605 6.79337 24.5726 6.82468 24.5645L7.27113 24.4375C7.30128 24.4282 7.3349 24.4467 7.34302 24.4767C7.34534 24.4825 7.34534 24.4883 7.34534 24.4941C7.34534 24.5195 7.32795 24.5414 7.3036 24.5484L6.85599 24.6754C6.85599 24.6754 6.84555 24.6777 6.83975 24.6777ZM7.73497 24.4236C7.70946 24.4236 7.68627 24.4063 7.67931 24.382C7.67815 24.3763 7.67699 24.3705 7.67699 24.3647C7.67699 24.3393 7.69438 24.3173 7.71873 24.3104L8.16634 24.1834C8.19649 24.1753 8.23012 24.1938 8.23824 24.2226C8.2394 24.2284 8.24056 24.2342 8.24056 24.24C8.24056 24.2654 8.22316 24.2873 8.19881 24.2942L7.7512 24.4213C7.74541 24.4213 7.74077 24.4236 7.73497 24.4236ZM8.63019 24.1695C8.60468 24.1695 8.58148 24.1522 8.57453 24.1279C8.57221 24.1221 8.57221 24.1164 8.57221 24.1106C8.57337 24.0852 8.5896 24.0632 8.61395 24.0563L9.06156 23.9292C9.09171 23.9212 9.12534 23.9396 9.13346 23.9685C9.13346 23.9743 9.13578 23.9801 9.13578 23.9858C9.13462 24.0112 9.11838 24.0332 9.09403 24.0401L8.64642 24.1672C8.64642 24.1672 8.63599 24.1695 8.63019 24.1695ZM9.5254 23.9154C9.49989 23.9154 9.4767 23.898 9.46974 23.8738C9.46742 23.868 9.46742 23.8622 9.46742 23.8565C9.46742 23.8311 9.48482 23.8091 9.50917 23.8022L9.95678 23.6751C9.98693 23.6659 10.0206 23.6855 10.0287 23.7155C10.0298 23.7202 10.031 23.7259 10.031 23.7317C10.031 23.7571 10.0136 23.7791 9.98925 23.786L9.54164 23.9131C9.53584 23.9154 9.53004 23.9154 9.5254 23.9154ZM10.4206 23.6613C10.394 23.6613 10.3719 23.6439 10.365 23.6197C10.3626 23.6139 10.3626 23.6081 10.3626 23.6023C10.3626 23.5769 10.38 23.555 10.4044 23.5481L10.852 23.421C10.8821 23.4129 10.9158 23.4314 10.9239 23.4614C10.9239 23.4672 10.9262 23.473 10.9262 23.4788C10.9251 23.503 10.9077 23.525 10.8845 23.5319L10.4369 23.6589C10.4369 23.6589 10.4253 23.6613 10.4206 23.6613ZM11.3158 23.4071C11.2892 23.4071 11.2671 23.391 11.2602 23.3656C11.2579 23.3609 11.2579 23.3563 11.2579 23.3517C11.2579 23.3251 11.2741 23.3009 11.2996 23.2939L11.7472 23.1669C11.7774 23.1588 11.811 23.1773 11.8191 23.2073C11.8203 23.2131 11.8214 23.2189 11.8214 23.2246C11.8214 23.2489 11.8029 23.272 11.7785 23.2778L11.3309 23.4048C11.3309 23.4048 11.3205 23.4071 11.3158 23.4071ZM12.2111 23.153C12.1844 23.153 12.1624 23.1369 12.1554 23.1114C12.1531 23.1068 12.1531 23.1022 12.1531 23.0976C12.1519 23.071 12.1693 23.0479 12.1948 23.0398L12.6424 22.9128C12.6737 22.9047 12.7051 22.9232 12.7143 22.9532C12.7143 22.9578 12.7166 22.9624 12.7166 22.9671C12.7166 22.9936 12.6993 23.0167 12.6737 23.0248L12.2261 23.1507C12.2261 23.1507 12.2157 23.153 12.2111 23.153ZM13.1063 22.9001C13.0796 22.9001 13.0576 22.8827 13.0495 22.8573C13.0483 22.8527 13.0483 22.8481 13.0483 22.8435C13.0483 22.8169 13.0645 22.7938 13.09 22.7857L13.5377 22.6598C13.5678 22.6506 13.6003 22.669 13.6095 22.6991C13.6095 22.7037 13.6095 22.7083 13.6119 22.7129C13.6119 22.7395 13.5945 22.7626 13.569 22.7707L13.1214 22.8977C13.1214 22.8977 13.1109 22.9001 13.1063 22.9001ZM14.0015 22.6459C13.9748 22.6459 13.9516 22.6286 13.9447 22.6032C13.9447 22.5974 13.9424 22.5917 13.9424 22.5859C13.9435 22.5616 13.9609 22.5385 13.9853 22.5327L14.4329 22.4057C14.463 22.3964 14.4955 22.4149 14.5036 22.445C14.5059 22.4507 14.5059 22.4565 14.5059 22.4623C14.5059 22.4877 14.4885 22.5096 14.4642 22.5166L14.0166 22.6436C14.0166 22.6436 14.0061 22.6459 14.0015 22.6459ZM14.8956 22.3918C14.87 22.3918 14.8468 22.3745 14.8399 22.3491C14.8387 22.3445 14.8376 22.3387 14.8376 22.3329C14.8376 22.3075 14.855 22.2856 14.8805 22.2786L15.3281 22.1516C15.3582 22.1423 15.3907 22.1608 15.3988 22.1908C15.4011 22.1966 15.4011 22.2024 15.4011 22.2082C15.4011 22.2336 15.3837 22.2555 15.3594 22.2625L14.9118 22.3895C14.9118 22.3895 14.9014 22.3918 14.8956 22.3918ZM15.7908 22.1377C15.7653 22.1377 15.7421 22.1204 15.7351 22.095C15.7351 22.0903 15.7328 22.0846 15.7328 22.0788C15.7339 22.0534 15.7502 22.0314 15.7757 22.0245L16.2233 21.8974C16.2535 21.8882 16.2859 21.9067 16.294 21.9367C16.2964 21.9425 16.2964 21.9483 16.2964 21.954C16.2964 21.9795 16.279 22.0014 16.2546 22.0083L15.807 22.1354C15.807 22.1354 15.7966 22.1377 15.7908 22.1377ZM16.686 21.8836C16.6605 21.8836 16.6373 21.8663 16.6303 21.8408C16.6292 21.8362 16.628 21.8305 16.628 21.8247C16.628 21.7993 16.6454 21.7773 16.6698 21.7704L17.1185 21.6433C17.1475 21.6352 17.1811 21.6526 17.1893 21.6826C17.1916 21.6884 17.1916 21.6942 17.1916 21.6999C17.1916 21.7253 17.1742 21.7473 17.1498 21.7542L16.7022 21.8813C16.6964 21.8824 16.6918 21.8836 16.686 21.8836ZM17.5812 21.6295C17.5557 21.6295 17.5325 21.6121 17.5255 21.5879C17.5244 21.5821 17.5232 21.5763 17.5232 21.5706C17.5232 21.5451 17.5406 21.5232 17.565 21.5163L18.0126 21.3892C18.0439 21.3811 18.0764 21.3996 18.0845 21.4285C18.0845 21.4331 18.0868 21.4377 18.0868 21.4435C18.0868 21.4689 18.0706 21.4932 18.045 21.5001L17.5974 21.6272C17.5974 21.6272 17.587 21.6295 17.5812 21.6295ZM18.4764 21.3753C18.4509 21.3753 18.4277 21.358 18.4208 21.3338C18.4208 21.328 18.4184 21.3222 18.4184 21.3164C18.4196 21.291 18.4358 21.2691 18.4602 21.2622L18.9078 21.1351C18.9379 21.1259 18.9716 21.1443 18.9797 21.1744C18.9809 21.179 18.982 21.1848 18.982 21.1894C18.9832 21.2159 18.9658 21.239 18.9403 21.246L18.4927 21.373C18.4869 21.373 18.4822 21.3753 18.4764 21.3753ZM19.3716 21.1212C19.3461 21.1212 19.3229 21.1039 19.316 21.0796C19.3148 21.075 19.3137 21.0704 19.3137 21.0646C19.3125 21.0392 19.3299 21.015 19.3554 21.008L19.803 20.881C19.8343 20.8729 19.8668 20.8914 19.8749 20.9202C19.8749 20.926 19.8772 20.9306 19.8772 20.9353C19.8772 20.9618 19.8598 20.9849 19.8355 20.9919L19.3879 21.1189C19.3879 21.1189 19.3774 21.1212 19.3716 21.1212ZM20.2669 20.8671C20.2413 20.8671 20.2182 20.8498 20.2112 20.8255C20.2066 20.8105 20.2077 20.7943 20.2158 20.7816C20.2228 20.7678 20.2355 20.7585 20.2506 20.7539L20.2889 20.7435C20.4222 20.7054 20.551 20.6546 20.6727 20.591C20.7006 20.5772 20.7365 20.5887 20.7516 20.6165C20.7562 20.6245 20.7574 20.6338 20.7574 20.6442C20.7574 20.665 20.7446 20.6846 20.7261 20.6939C20.5973 20.7608 20.4605 20.814 20.3202 20.8544L20.2843 20.8648C20.2843 20.8648 20.2727 20.8671 20.268 20.8671H20.2669ZM21.0855 20.4432C21.0681 20.4432 21.0519 20.4351 21.0415 20.4224C21.0322 20.412 21.0276 20.3993 21.0276 20.3854C21.0276 20.3681 21.0345 20.3519 21.0484 20.3416C21.1632 20.2445 21.2676 20.1348 21.3592 20.0147C21.3778 19.9904 21.416 19.9846 21.4404 20.0043C21.4543 20.0147 21.4636 20.032 21.4636 20.0505C21.4636 20.062 21.4589 20.0747 21.452 20.084C21.3546 20.2122 21.2444 20.3277 21.1227 20.4293C21.1122 20.4386 21.0995 20.4432 21.0855 20.4432ZM21.6433 19.7109C21.6352 19.7109 21.6271 19.7086 21.619 19.7051C21.5992 19.6959 21.5853 19.6762 21.5853 19.6531C21.5853 19.645 21.5877 19.6358 21.5911 19.6289C21.6538 19.4914 21.7013 19.347 21.7326 19.2015C21.7396 19.1703 21.7697 19.1495 21.801 19.1564C21.8277 19.1622 21.8474 19.1865 21.8474 19.2142C21.8474 19.2177 21.8462 19.2223 21.8462 19.2257C21.8126 19.3805 21.7628 19.5318 21.6967 19.6762C21.6862 19.697 21.6665 19.7109 21.6433 19.7109ZM21.8358 18.8111C21.8033 18.8111 21.7778 18.7857 21.7778 18.7545C21.7755 18.6055 21.757 18.4553 21.721 18.3075C21.721 18.3028 21.721 18.2982 21.721 18.2936C21.721 18.267 21.7396 18.2439 21.7651 18.2381C21.7964 18.2312 21.8277 18.2497 21.8358 18.2809C21.8729 18.4357 21.8926 18.5951 21.8949 18.7522C21.8949 18.7672 21.8892 18.7822 21.8787 18.7937C21.8671 18.8041 21.8532 18.8111 21.8381 18.8111H21.8358ZM21.6514 17.9055C21.6248 17.9055 21.6027 17.8882 21.5946 17.8639L21.4682 17.418C21.4682 17.418 21.4659 17.4076 21.4659 17.403C21.4659 17.3765 21.4821 17.3534 21.5076 17.3464C21.5366 17.3372 21.5703 17.3557 21.5795 17.3857L21.7071 17.8316C21.7071 17.8316 21.7094 17.8431 21.7094 17.8489C21.7094 17.8743 21.6909 17.8962 21.6665 17.9032C21.6619 17.9032 21.6561 17.9055 21.6514 17.9055ZM21.3963 17.0138C21.3696 17.0138 21.3476 16.9964 21.3407 16.9722L21.2131 16.5263C21.2131 16.5263 21.2108 16.5171 21.2108 16.5113C21.2108 16.4859 21.227 16.4616 21.2525 16.4547C21.2827 16.4455 21.3163 16.4651 21.3244 16.4951L21.452 16.9398C21.452 16.9398 21.4543 16.9514 21.4543 16.9572C21.4543 16.9826 21.4369 17.0045 21.4114 17.0114C21.4068 17.0114 21.401 17.0138 21.3963 17.0138ZM21.1412 16.122C21.1157 16.122 21.0925 16.1047 21.0855 16.0805L20.958 15.6346C20.958 15.6346 20.9557 15.6253 20.9557 15.6196C20.9557 15.5942 20.9719 15.5699 20.9974 15.563C21.0287 15.5549 21.0612 15.5734 21.0693 15.6022L21.1969 16.0481C21.1969 16.0539 21.1992 16.0597 21.1992 16.0654C21.198 16.0908 21.1818 16.1128 21.1574 16.1197C21.1516 16.122 21.1458 16.122 21.1412 16.122ZM20.8861 15.2303C20.8606 15.2303 20.8374 15.213 20.8304 15.1887L20.7029 14.7429C20.7029 14.7429 20.7006 14.7336 20.7006 14.7279C20.7006 14.7024 20.7168 14.6782 20.7423 14.6713C20.7724 14.6632 20.8061 14.6816 20.8142 14.7117L20.9418 15.1564C20.9418 15.1564 20.9441 15.1668 20.9441 15.1714C20.9441 15.198 20.9267 15.2211 20.9023 15.228C20.8965 15.2303 20.8919 15.2303 20.8861 15.2303ZM20.631 14.3386C20.6055 14.3386 20.5823 14.3213 20.5753 14.297L20.4478 13.8511C20.4478 13.8511 20.4454 13.8419 20.4454 13.8373C20.4443 13.8107 20.4617 13.7865 20.4872 13.7795C20.5173 13.7714 20.551 13.7899 20.5591 13.82L20.6866 14.2658C20.6866 14.2658 20.689 14.2762 20.689 14.282C20.689 14.3086 20.6716 14.3293 20.6472 14.3363C20.6414 14.3386 20.6356 14.3386 20.631 14.3386ZM1.56237 13.9759C1.53222 13.9759 1.50787 13.9528 1.50439 13.9228V13.917C1.50439 13.8881 1.52759 13.8627 1.55774 13.8604C1.69109 13.8488 1.82676 13.8234 1.96012 13.7853C1.97519 13.7818 1.98911 13.7772 2.00302 13.7738C2.03317 13.7645 2.06564 13.7841 2.07492 13.8142C2.07492 13.8188 2.07492 13.8234 2.07492 13.828C2.07608 13.8546 2.05869 13.8777 2.03317 13.8846C2.0239 13.887 2.01462 13.8904 2.00534 13.8927L1.99143 13.8962C1.84996 13.9366 1.70732 13.9632 1.56701 13.9759H1.56121H1.56237ZM1.09853 13.9655C1.09853 13.9655 1.09389 13.9655 1.09157 13.9643H1.08461C0.931547 13.9424 0.777319 13.9031 0.627729 13.8477C0.605697 13.8396 0.590622 13.8176 0.590622 13.7934C0.590622 13.7865 0.590622 13.7795 0.5941 13.7738C0.604537 13.7449 0.639325 13.7287 0.668315 13.7391C0.812107 13.7922 0.958218 13.8304 1.10665 13.85H1.10781C1.13448 13.8546 1.15535 13.8789 1.15651 13.9066V13.9158C1.15187 13.9435 1.12752 13.9655 1.09853 13.9655ZM2.46687 13.761C2.44136 13.761 2.41816 13.7437 2.41121 13.7195C2.40889 13.7137 2.40889 13.7079 2.40889 13.7021C2.40889 13.6767 2.42628 13.6548 2.45063 13.6478C2.52137 13.6282 2.59211 13.6086 2.66284 13.5889C2.74054 13.567 2.81939 13.5439 2.8994 13.5219H2.90172C2.93071 13.5139 2.96318 13.5323 2.9713 13.5624C2.97246 13.567 2.97362 13.5716 2.97362 13.5762C2.97362 13.6016 2.95738 13.6247 2.93303 13.6328H2.93071C2.93071 13.6328 2.92723 13.6328 2.92607 13.6328L2.77532 13.6756C2.67676 13.7033 2.57935 13.731 2.4831 13.7587C2.4773 13.7587 2.47151 13.7587 2.46687 13.7587V13.761ZM0.231143 13.6467C0.220707 13.6467 0.21027 13.6432 0.200993 13.6386C0.0699575 13.5578 -0.0587591 13.4619 -0.179358 13.3556C-0.192114 13.3452 -0.199072 13.3302 -0.199072 13.314C-0.200231 13.299 -0.194433 13.2852 -0.185156 13.2748C-0.165443 13.2517 -0.126016 13.2493 -0.102824 13.269C0.0142962 13.3718 0.137215 13.463 0.262452 13.5404C0.278687 13.5497 0.290283 13.5693 0.289124 13.5889C0.289124 13.6005 0.286804 13.6109 0.281006 13.619C0.27057 13.6363 0.252016 13.6467 0.231143 13.6467ZM3.3644 13.5092C3.33773 13.5092 3.3157 13.4919 3.30758 13.4677C3.30758 13.4619 3.30758 13.4573 3.30758 13.4526C3.30642 13.4261 3.32382 13.403 3.34933 13.396C3.46761 13.3625 3.58705 13.329 3.70765 13.2955L3.7981 13.2701C3.82825 13.2621 3.85956 13.2805 3.86883 13.3094C3.86883 13.3152 3.87115 13.321 3.86883 13.3267C3.86883 13.3521 3.8526 13.3729 3.82825 13.381H3.82245C3.7204 13.4111 3.61836 13.4399 3.51747 13.4677L3.37832 13.5069C3.37832 13.5069 3.36788 13.5092 3.36325 13.5092H3.3644ZM20.3759 13.4469C20.3504 13.4469 20.3272 13.4307 20.3202 13.4053L20.1926 12.9594C20.1926 12.9594 20.1903 12.9502 20.1903 12.9456C20.1903 12.919 20.2066 12.8959 20.2321 12.8878C20.2634 12.8797 20.2958 12.8982 20.304 12.9282L20.4315 13.3741C20.4315 13.3741 20.4338 13.3856 20.4338 13.3914C20.4338 13.4168 20.4164 13.4376 20.3921 13.4446C20.3863 13.4469 20.3817 13.4469 20.3759 13.4469ZM4.26078 13.2574C4.23527 13.2574 4.21208 13.2401 4.20512 13.2158C4.20396 13.2101 4.2028 13.2043 4.2028 13.1985C4.2028 13.1731 4.2202 13.1512 4.24571 13.1442L4.29325 13.1304C4.42545 13.0934 4.5588 13.0553 4.69332 13.0183C4.72347 13.0091 4.75709 13.0276 4.76521 13.0576C4.76521 13.0622 4.76753 13.068 4.76753 13.0726C4.76753 13.098 4.7513 13.1223 4.72579 13.1292C4.62954 13.1558 4.53329 13.1835 4.43936 13.2101L4.27702 13.2551C4.27122 13.2551 4.26658 13.2574 4.26078 13.2574ZM5.15832 13.0056C5.13281 13.0056 5.10962 12.9883 5.10266 12.9629C5.10266 12.9583 5.10034 12.9525 5.10034 12.9456C5.10034 12.9213 5.11773 12.8994 5.14209 12.8924L5.35197 12.8335C5.43083 12.8104 5.51084 12.7885 5.59085 12.7665C5.621 12.7573 5.65347 12.7758 5.66275 12.8058C5.66391 12.8104 5.66507 12.815 5.66507 12.8208C5.66507 12.8462 5.64767 12.8705 5.62216 12.8774C5.52244 12.9051 5.42271 12.9329 5.32414 12.9606L5.17339 13.0033C5.17339 13.0033 5.16296 13.0056 5.15832 13.0056ZM6.0547 12.7538C6.02919 12.7538 6.00599 12.7365 5.99904 12.7111C5.99904 12.7065 5.99672 12.6995 5.99672 12.6938C5.99788 12.6683 6.01527 12.6475 6.03962 12.6406C6.10804 12.621 6.17762 12.6013 6.24719 12.5817C6.3272 12.5598 6.40722 12.5367 6.48839 12.5147C6.51738 12.5055 6.55101 12.524 6.55913 12.554C6.56029 12.5586 6.56145 12.5632 6.56145 12.5678C6.56261 12.5944 6.54521 12.6175 6.5197 12.6256L6.31793 12.6822C6.2356 12.7053 6.15326 12.7284 6.07093 12.7515C6.06513 12.7527 6.06049 12.7538 6.0547 12.7538ZM20.1207 12.5551C20.0952 12.5551 20.072 12.539 20.0651 12.5136L19.9375 12.0677C19.9375 12.0677 19.9352 12.0561 19.9352 12.0504C19.9352 12.025 19.9526 12.0042 19.977 11.9961C20.0071 11.988 20.0407 12.0065 20.0489 12.0365L20.1764 12.4824C20.1787 12.4881 20.1787 12.4939 20.1787 12.4997C20.1787 12.5251 20.1613 12.5459 20.137 12.554C20.1312 12.5551 20.1265 12.5551 20.1207 12.5551ZM6.95223 12.5009C6.92672 12.5009 6.90353 12.4847 6.89657 12.4593C6.89541 12.4546 6.89425 12.45 6.89425 12.4454C6.89309 12.4188 6.91049 12.3957 6.936 12.3877C7.07167 12.3507 7.20735 12.3114 7.34418 12.2733L7.38477 12.2617H7.38709C7.41608 12.2548 7.44739 12.2733 7.45666 12.3022C7.45666 12.3068 7.45666 12.3114 7.45898 12.316C7.45898 12.3426 7.44159 12.3657 7.41608 12.3738C7.29896 12.4061 7.18184 12.4396 7.06472 12.472L6.96731 12.4997C6.96731 12.4997 6.95687 12.4997 6.95223 12.4997V12.5009ZM7.84861 12.249C7.8231 12.249 7.79991 12.2317 7.79295 12.2075C7.79179 12.2028 7.79063 12.1982 7.79063 12.1936C7.79063 12.167 7.80803 12.1439 7.83354 12.1358L8.2823 12.0099C8.31361 12.0019 8.34608 12.0203 8.3542 12.0504C8.35536 12.0561 8.35652 12.0619 8.35652 12.0677C8.35652 12.092 8.33913 12.1139 8.31477 12.1208L8.1907 12.1555C8.08169 12.1867 7.97269 12.2167 7.86485 12.2479C7.86021 12.2479 7.85441 12.2479 7.84861 12.2479V12.249ZM8.74731 11.9972C8.72064 11.9972 8.6986 11.9799 8.69165 11.9557C8.68933 11.9499 8.68933 11.9441 8.68933 11.9383C8.68933 11.9129 8.70672 11.891 8.73107 11.884C8.83428 11.8552 8.93632 11.8263 9.03837 11.7974L9.17868 11.7581H9.181C9.20999 11.75 9.24246 11.7685 9.25058 11.7986C9.25174 11.8043 9.2529 11.8101 9.2529 11.8147C9.2529 11.8401 9.2355 11.8609 9.21231 11.869C9.21231 11.869 9.20883 11.869 9.20651 11.869C9.05924 11.9106 8.91197 11.9522 8.76354 11.9938C8.7589 11.9961 8.75311 11.9961 8.74847 11.9961L8.74731 11.9972ZM9.64253 11.7454C9.61701 11.7454 9.59498 11.7281 9.58686 11.7038C9.58686 11.6992 9.58686 11.6934 9.58686 11.6888C9.5857 11.6634 9.6031 11.6403 9.62745 11.6322C9.62745 11.6322 9.63093 11.6322 9.63325 11.6322C9.7121 11.6103 9.79096 11.5872 9.86981 11.5652C9.93939 11.5456 10.0078 11.5271 10.0762 11.5075C10.1064 11.4994 10.1388 11.5179 10.147 11.5479C10.1493 11.5537 10.1504 11.5583 10.1493 11.5641C10.1493 11.5895 10.1319 11.6114 10.1075 11.6184C10.0194 11.6438 9.93011 11.668 9.84082 11.6934L9.6634 11.7431C9.6634 11.7431 9.66108 11.7431 9.65876 11.7431C9.65876 11.7431 9.64948 11.7431 9.64368 11.7431L9.64253 11.7454ZM19.8656 11.6646C19.8401 11.6646 19.8169 11.6472 19.81 11.6218L19.6824 11.176C19.6824 11.176 19.6801 11.1656 19.6801 11.1586C19.6813 11.1344 19.6975 11.1124 19.7218 11.1055C19.7532 11.0963 19.7856 11.1148 19.7937 11.1448L19.9213 11.5906C19.9213 11.5906 19.9236 11.5999 19.9236 11.6045C19.9248 11.6311 19.9074 11.6542 19.8819 11.6623C19.8761 11.6623 19.8714 11.6646 19.8656 11.6646ZM10.5401 11.4936C10.5146 11.4936 10.4914 11.4763 10.4844 11.452C10.4832 11.4463 10.4821 11.4405 10.4821 11.4347C10.4821 11.4093 10.4995 11.3874 10.525 11.3804L10.9714 11.2545C11.0016 11.2453 11.0352 11.2638 11.0433 11.2938C11.0433 11.2984 11.0457 11.3042 11.0457 11.3088C11.0457 11.3354 11.0283 11.3585 11.0039 11.3654L10.816 11.4185C10.7291 11.4428 10.6421 11.4671 10.5551 11.4913C10.5493 11.4913 10.5447 11.4936 10.5389 11.4936H10.5401ZM11.4376 11.2418C11.4109 11.2418 11.3889 11.2245 11.3808 11.2002C11.3808 11.1945 11.3808 11.1898 11.3808 11.1852C11.3796 11.1586 11.397 11.1355 11.4225 11.1286C11.506 11.1055 11.5883 11.0824 11.6707 11.0593C11.7379 11.0397 11.804 11.0212 11.8713 11.0027C11.9014 10.9935 11.9339 11.012 11.942 11.042C11.9443 11.0466 11.9443 11.0524 11.9443 11.057C11.9443 11.0824 11.9281 11.1067 11.9026 11.1136L11.789 11.1459C11.6788 11.1771 11.5663 11.2083 11.4538 11.2395C11.4492 11.2395 11.4434 11.2418 11.4388 11.2418H11.4376ZM12.334 10.99C12.3085 10.99 12.2853 10.9727 12.2783 10.9473C12.2772 10.9426 12.276 10.938 12.276 10.9334C12.276 10.9068 12.2934 10.8837 12.3189 10.8768C12.4708 10.8341 12.6204 10.7913 12.7665 10.7509C12.7967 10.7417 12.8303 10.7601 12.8384 10.7902C12.8407 10.796 12.8407 10.8017 12.8407 10.8075C12.8407 10.8329 12.8233 10.8549 12.799 10.8618C12.6517 10.9034 12.5021 10.945 12.3502 10.9877C12.3444 10.9877 12.3398 10.99 12.334 10.99ZM19.5862 10.7809C19.563 10.7809 19.5433 10.7682 19.5328 10.7474C19.4702 10.6123 19.3902 10.4829 19.2986 10.3639C19.2905 10.3536 19.2858 10.342 19.2858 10.3293C19.2858 10.3108 19.2939 10.2935 19.309 10.2819C19.3334 10.2635 19.3705 10.2681 19.3902 10.2923C19.4876 10.4182 19.5711 10.5545 19.6372 10.6978C19.6407 10.7059 19.643 10.7139 19.643 10.7232C19.643 10.7451 19.6291 10.7648 19.6094 10.7752C19.6012 10.7786 19.5931 10.7798 19.585 10.7798L19.5862 10.7809ZM13.2315 10.7382C13.206 10.7382 13.1828 10.7209 13.1759 10.6955C13.1759 10.6908 13.1735 10.6862 13.1735 10.6816C13.1735 10.655 13.1898 10.6319 13.2153 10.6238C13.3683 10.5823 13.5179 10.5395 13.664 10.4979H13.6664C13.6965 10.4899 13.7278 10.5095 13.7359 10.5384C13.7359 10.5441 13.7383 10.5499 13.7383 10.5557C13.7371 10.5799 13.7209 10.6019 13.6977 10.6088C13.6977 10.6088 13.6977 10.6088 13.6954 10.6088H13.6907C13.5632 10.6458 13.4344 10.6816 13.3022 10.7197L13.2477 10.7347C13.242 10.7347 13.2362 10.737 13.2315 10.737V10.7382ZM14.1291 10.4864C14.1035 10.4864 14.0803 10.4691 14.0734 10.4437C14.0711 10.439 14.0711 10.4344 14.0711 10.4298C14.0699 10.4032 14.0873 10.3801 14.1128 10.372C14.267 10.3293 14.4155 10.2877 14.5604 10.2473H14.5616C14.5917 10.2392 14.6242 10.2577 14.6335 10.2877C14.6346 10.2923 14.6358 10.297 14.6358 10.3016C14.6358 10.3281 14.6184 10.3512 14.5929 10.3593C14.4479 10.3998 14.2984 10.4413 14.1441 10.4852C14.1395 10.4864 14.1337 10.4875 14.1291 10.4875V10.4864ZM15.0266 10.2334C15.0011 10.2334 14.9779 10.2161 14.9709 10.1918C14.9686 10.1861 14.9686 10.1803 14.9686 10.1745C14.9686 10.1491 14.986 10.1272 15.0104 10.1202L15.4603 9.99432C15.4893 9.98624 15.5229 10.0036 15.531 10.0336C15.531 10.0382 15.5333 10.044 15.5333 10.0486C15.5333 10.0752 15.5171 10.0983 15.4916 10.1052C15.349 10.1456 15.1994 10.1872 15.0428 10.2311C15.037 10.2311 15.0324 10.2334 15.0266 10.2334ZM19.0214 10.0532C19.0075 10.0532 18.9948 10.0486 18.9843 10.0405C18.8695 9.94581 18.7443 9.8638 18.6109 9.79565C18.6098 9.79565 18.6086 9.79565 18.6063 9.79334H18.6051C18.5866 9.7841 18.5761 9.76562 18.575 9.74483C18.575 9.73443 18.5773 9.72519 18.5819 9.7171C18.5959 9.68938 18.6307 9.67783 18.6585 9.69054C18.6585 9.69054 18.6589 9.69054 18.6596 9.69054C18.6596 9.69054 18.662 9.69169 18.6643 9.69285C18.8034 9.76446 18.9368 9.85109 19.0585 9.95159C19.0713 9.96198 19.0794 9.97931 19.0794 9.99548C19.0794 10.0093 19.0748 10.022 19.0655 10.0324C19.0551 10.0463 19.0388 10.0532 19.0214 10.0532ZM15.9253 9.98162C15.8986 9.98162 15.8754 9.96429 15.8685 9.94003C15.8673 9.93426 15.8661 9.92733 15.8661 9.92155C15.8661 9.8973 15.8847 9.87535 15.909 9.86842L16.0957 9.81529C16.1897 9.78872 16.2766 9.76446 16.3578 9.74136C16.3891 9.73327 16.4216 9.75176 16.4297 9.78179C16.4297 9.78641 16.432 9.79103 16.432 9.79565C16.432 9.82222 16.4158 9.84532 16.3903 9.8534C16.2558 9.89037 16.1062 9.9331 15.9404 9.97931C15.9346 9.98046 15.9299 9.98162 15.9253 9.98162ZM16.824 9.72865C16.7985 9.72865 16.7753 9.71133 16.7683 9.68707C16.7683 9.68245 16.766 9.67668 16.766 9.67205C16.766 9.64664 16.7822 9.62239 16.8077 9.61546C16.9828 9.56694 17.0791 9.53922 17.0837 9.53807C17.144 9.52074 17.2055 9.50572 17.2658 9.49417C17.2959 9.4884 17.3261 9.51034 17.3319 9.54038C17.3319 9.54384 17.3319 9.54731 17.3319 9.55193C17.3319 9.57849 17.3122 9.60159 17.2867 9.60737C17.2855 9.60737 17.2832 9.60737 17.2832 9.60737C17.2252 9.61892 17.1672 9.63278 17.1127 9.6478L16.8367 9.72519C16.8367 9.72519 16.8263 9.7275 16.8217 9.7275L16.824 9.72865ZM18.1993 9.63625C18.1993 9.63625 18.19 9.63625 18.1854 9.63394H18.1819C18.0358 9.59697 17.8862 9.57503 17.7378 9.57156C17.7064 9.57041 17.6821 9.54615 17.6809 9.51496V9.5115C17.6809 9.48031 17.7076 9.45605 17.7389 9.45605H17.7412C17.9001 9.46068 18.059 9.48262 18.2132 9.52189C18.2387 9.52882 18.2573 9.55193 18.2573 9.57849C18.2573 9.58311 18.2573 9.58773 18.2549 9.59235C18.248 9.61777 18.2248 9.63625 18.1993 9.63625Z" fill="#390D99"/>
</g>
</g>
</g>
</g>
</g>
<path id="Vector_24" d="M21.0472 12.1963C21.2826 12.5024 20.9092 12.589 20.9092 12.589L18.2699 13.3375C17.0941 13.6713 16.4134 14.8911 16.7485 16.0612C17.0836 17.2324 18.3082 17.9105 19.4829 17.5767L22.0676 16.8432C22.288 16.7808 22.4155 16.5521 22.3529 16.3326L21.2536 12.4908C21.2536 12.4908 21.2107 12.2956 21.046 12.1963H21.0472Z" fill="url(#paint12_linear_0_1582)"/>
<path id="Vector_25" style="mix-blend-mode:multiply" d="M20.6696 16.2367C20.9101 15.2885 20.3334 14.3257 19.3816 14.0861C18.4297 13.8466 17.4631 14.421 17.2226 15.3691C16.9821 16.3173 17.5588 17.2801 18.5106 17.5197C19.4625 17.7593 20.4291 17.1849 20.6696 16.2367Z" fill="url(#paint13_radial_0_1582)"/>
<path id="Vector_26" d="M20.0208 15.1325C20.2005 15.762 19.8341 16.4181 19.2021 16.5971C18.5701 16.7762 17.9115 16.4112 17.7317 15.7816C17.552 15.1521 17.9184 14.496 18.5504 14.317C19.1824 14.138 19.8411 14.503 20.0208 15.1325Z" fill="#A77FFE"/>
<g id="Clip path group_3">
<mask id="mask2_0_1582" style="mask-type:luminance" maskUnits="userSpaceOnUse" x="16" y="12" width="7" height="6">
<g id="clippath-3">
<path id="Vector_27" d="M21.0472 12.1963C21.2826 12.5024 20.9092 12.589 20.9092 12.589L18.2699 13.3375C17.0941 13.6713 16.4134 14.8911 16.7485 16.0612C17.0836 17.2324 18.3082 17.9105 19.4829 17.5767L22.0676 16.8432C22.288 16.7808 22.4155 16.5521 22.3529 16.3326L21.2536 12.4908C21.2536 12.4908 21.2107 12.2956 21.046 12.1963H21.0472Z" fill="white"/>
</g>
</mask>
<g mask="url(#mask2_0_1582)">
<g id="Group_12">
<g id="Vector_28" style="mix-blend-mode:screen">
<path d="M21.7011 14.7791C21.9898 15.7932 22.1556 16.3892 22.2496 16.7346C22.3505 16.6318 22.3968 16.4805 22.3539 16.3326L21.2546 12.4908C21.2546 12.4908 21.2117 12.2956 21.0471 12.1963C21.2082 12.4054 21.0842 12.5116 20.9902 12.5578C21.0981 12.8223 21.3161 13.4299 21.6999 14.7791H21.7011Z" fill="#3E3940"/>
</g>
<path id="Vector_29" d="M21.3125 12.3057C21.5166 12.5713 21.1479 12.7284 21.1479 12.7284L18.4042 13.5751C17.3838 13.865 16.7924 14.9231 17.0835 15.9396C17.3745 16.956 18.4367 17.5451 19.4572 17.2552L22.1533 16.4224C22.3446 16.3681 22.4559 16.1694 22.4014 15.9788C22.4014 15.9788 21.4552 12.3923 21.3125 12.3068V12.3057Z" stroke="#390D99" stroke-linecap="round" stroke-linejoin="round"/>
</g>
</g>
</g>
</g>
</g>
</g>
</g>
</g>
<defs>
<linearGradient id="paint0_linear_0_1582" x1="12.7999" y1="5.35171" x2="14.6082" y2="7.7729" gradientUnits="userSpaceOnUse">
<stop stop-color="#FFD945"/>
<stop offset="0.3043" stop-color="#FFCD3E"/>
<stop offset="0.8558" stop-color="#FFAD2B"/>
<stop offset="1" stop-color="#FFA325"/>
</linearGradient>
<linearGradient id="paint1_linear_0_1582" x1="10.6556" y1="2.83945" x2="11.9343" y2="4.5516" gradientUnits="userSpaceOnUse">
<stop stop-color="#FFD945"/>
<stop offset="0.3043" stop-color="#FFCD3E"/>
<stop offset="0.8558" stop-color="#FFAD2B"/>
<stop offset="1" stop-color="#FFA325"/>
</linearGradient>
<linearGradient id="paint2_linear_0_1582" x1="16.6441" y1="1.41" x2="17.9228" y2="3.12215" gradientUnits="userSpaceOnUse">
<stop stop-color="#FFD945"/>
<stop offset="0.3043" stop-color="#FFCD3E"/>
<stop offset="0.8558" stop-color="#FFAD2B"/>
<stop offset="1" stop-color="#FFA325"/>
</linearGradient>
<linearGradient id="paint3_linear_0_1582" x1="0.304021" y1="15.8642" x2="22.1928" y2="15.8642" gradientUnits="userSpaceOnUse">
<stop stop-color="#4F23B0"/>
<stop offset="1" stop-color="#6431D4"/>
</linearGradient>
<linearGradient id="paint4_linear_0_1582" x1="8.8423" y1="9.68485" x2="7.91233" y2="14.0641" gradientUnits="userSpaceOnUse">
<stop stop-color="#8E5DF5"/>
<stop offset="1" stop-color="#D2BDFC"/>
</linearGradient>
<radialGradient id="paint5_radial_0_1582" cx="0" cy="0" r="1" gradientUnits="userSpaceOnUse" gradientTransform="translate(7.63668 9.09419) scale(4.37984 4.36275)">
<stop stop-color="#FFB945"/>
<stop offset="0.51" stop-color="#FFBA46"/>
<stop offset="0.7" stop-color="#FFC149"/>
<stop offset="0.83" stop-color="#FFCD50"/>
<stop offset="0.93" stop-color="#FFDE59"/>
<stop offset="1" stop-color="#FFED61"/>
</radialGradient>
<linearGradient id="paint6_linear_0_1582" x1="7.57599" y1="9.09419" x2="12.0161" y2="9.09419" gradientUnits="userSpaceOnUse">
<stop stop-color="#FDFDFD"/>
<stop offset="1" stop-color="white"/>
</linearGradient>
<radialGradient id="paint7_radial_0_1582" cx="0" cy="0" r="1" gradientUnits="userSpaceOnUse" gradientTransform="translate(7.63661 9.45115) scale(3.69799 3.68356)">
<stop stop-color="#D99800"/>
<stop offset="0.57" stop-color="#D99600"/>
<stop offset="0.77" stop-color="#DB8F00"/>
<stop offset="0.92" stop-color="#DF8300"/>
<stop offset="1" stop-color="#E37900"/>
</radialGradient>
<linearGradient id="paint8_linear_0_1582" x1="0.371275" y1="17.3606" x2="22.5036" y2="17.3606" gradientUnits="userSpaceOnUse">
<stop stop-color="#8A61DF"/>
<stop offset="0.01" stop-color="#956CEB"/>
<stop offset="0.04" stop-color="#A37AF9"/>
<stop offset="0.06" stop-color="#A87FFF"/>
<stop offset="0.3" stop-color="#8E5DF5"/>
<stop offset="1" stop-color="#8E5DF5"/>
</linearGradient>
<radialGradient id="paint9_radial_0_1582" cx="0" cy="0" r="1" gradientUnits="userSpaceOnUse" gradientTransform="translate(18.8891 16.2216) scale(3.51361 3.4999)">
<stop offset="0.32" stop-color="#8A61DF"/>
<stop offset="0.39" stop-color="#A07FE5"/>
<stop offset="0.48" stop-color="#BDA6ED"/>
<stop offset="0.57" stop-color="#D5C6F3"/>
<stop offset="0.67" stop-color="#E7DFF8"/>
<stop offset="0.77" stop-color="#F4F1FC"/>
<stop offset="0.87" stop-color="#FCFBFE"/>
<stop offset="1" stop-color="white"/>
</radialGradient>
<radialGradient id="paint10_radial_0_1582" cx="0" cy="0" r="1" gradientUnits="userSpaceOnUse" gradientTransform="translate(20.8359 15.6962) scale(3.51361 3.4999)">
<stop offset="0.32" stop-color="#8A61DF"/>
<stop offset="0.39" stop-color="#A07FE5"/>
<stop offset="0.48" stop-color="#BDA6ED"/>
<stop offset="0.57" stop-color="#D5C6F3"/>
<stop offset="0.67" stop-color="#E7DFF8"/>
<stop offset="0.77" stop-color="#F4F1FC"/>
<stop offset="0.87" stop-color="#FCFBFE"/>
<stop offset="1" stop-color="white"/>
</radialGradient>
<linearGradient id="paint11_linear_0_1582" x1="3.95002" y1="24.7598" x2="1.24501" y2="13.5507" gradientUnits="userSpaceOnUse">
<stop stop-color="#FDFDFD"/>
<stop offset="0.2" stop-color="#CB91FD"/>
<stop offset="0.41" stop-color="#9C29FE"/>
<stop offset="0.5" stop-color="#8900FF"/>
<stop offset="0.55" stop-color="#8B06FF"/>
<stop offset="0.61" stop-color="#9417FF"/>
<stop offset="0.68" stop-color="#A134FF"/>
<stop offset="0.76" stop-color="#B45DFF"/>
<stop offset="0.85" stop-color="#CC90FF"/>
<stop offset="0.94" stop-color="#E8CEFF"/>
<stop offset="1" stop-color="white"/>
</linearGradient>
<linearGradient id="paint12_linear_0_1582" x1="16.8837" y1="15.8488" x2="21.9071" y2="14.4123" gradientUnits="userSpaceOnUse">
<stop stop-color="#8550F4"/>
<stop offset="0.36" stop-color="#824BF5"/>
<stop offset="0.73" stop-color="#7B3FF9"/>
<stop offset="0.78" stop-color="#7A3DFA"/>
<stop offset="1" stop-color="#6E2FEC"/>
</linearGradient>
<radialGradient id="paint13_radial_0_1582" cx="0" cy="0" r="1" gradientUnits="userSpaceOnUse" gradientTransform="translate(18.946 15.8036) scale(1.77884 1.7719)">
<stop offset="0.32" stop-color="#4A11C1"/>
<stop offset="0.34" stop-color="#511BC3"/>
<stop offset="0.41" stop-color="#7950D1"/>
<stop offset="0.48" stop-color="#9D7EDD"/>
<stop offset="0.56" stop-color="#BBA6E7"/>
<stop offset="0.64" stop-color="#D4C6F0"/>
<stop offset="0.72" stop-color="#E6DFF6"/>
<stop offset="0.81" stop-color="#F4F1FB"/>
<stop offset="0.9" stop-color="#FCFBFE"/>
<stop offset="1" stop-color="white"/>
</radialGradient>
</defs>
</svg>
