<svg width="24" height="24" viewBox="0 0 24 24" fill="none" xmlns="http://www.w3.org/2000/svg">
<g clip-path="url(#clip0_54_673)">
<path d="M18.75 11.0625H17.25C17.1008 11.0625 16.9577 11.0032 16.8523 10.8977C16.7468 10.7923 16.6875 10.6492 16.6875 10.5C16.6875 10.3508 16.7468 10.2077 16.8523 10.1023C16.9577 9.99676 17.1008 9.9375 17.25 9.9375H18.75C18.7995 9.93692 18.8469 9.91697 18.8819 9.88194C18.917 9.8469 18.9369 9.79955 18.9375 9.75V5.25C18.9369 5.20045 18.917 5.1531 18.8819 5.11806C18.8469 5.08303 18.7995 5.06308 18.75 5.0625H5.25C5.20045 5.06308 5.1531 5.08303 5.11806 5.11806C5.08303 5.1531 5.06308 5.20045 5.0625 5.25V9.75C5.06308 9.79955 5.08303 9.8469 5.11806 9.88194C5.1531 9.91697 5.20045 9.93692 5.25 9.9375H6.75C6.89918 9.9375 7.04226 9.99676 7.14775 10.1023C7.25324 10.2077 7.3125 10.3508 7.3125 10.5C7.3125 10.6492 7.25324 10.7923 7.14775 10.8977C7.04226 11.0032 6.89918 11.0625 6.75 11.0625H5.25C4.90203 11.0621 4.56844 10.9237 4.32239 10.6776C4.07634 10.4316 3.93792 10.098 3.9375 9.75V5.25C3.93792 4.90203 4.07634 4.56844 4.32239 4.32239C4.56844 4.07634 4.90203 3.93792 5.25 3.9375H18.75C19.098 3.93792 19.4316 4.07634 19.6776 4.32239C19.9237 4.56844 20.0621 4.90203 20.0625 5.25V9.75C20.0621 10.098 19.9237 10.4316 19.6776 10.6776C19.4316 10.9237 19.098 11.0621 18.75 11.0625Z" fill="white"/>
<path d="M14.25 17.8125H11.625C11.4758 17.8125 11.3327 17.7532 11.2273 17.6477C11.1218 17.5423 11.0625 17.3992 11.0625 17.25C11.0625 17.1008 11.1218 16.9577 11.2273 16.8523C11.3327 16.7468 11.4758 16.6875 11.625 16.6875H14.25C14.2997 16.6874 14.3473 16.6676 14.3825 16.6325C14.4176 16.5973 14.4374 16.5497 14.4375 16.5V8.0625H7.3125V16.5C7.3126 16.5497 7.33238 16.5973 7.36752 16.6325C7.40266 16.6676 7.4503 16.6874 7.5 16.6875H9C9.14918 16.6875 9.29226 16.7468 9.39775 16.8523C9.50324 16.9577 9.5625 17.1008 9.5625 17.25C9.5625 17.3992 9.50324 17.5423 9.39775 17.6477C9.29226 17.7532 9.14918 17.8125 9 17.8125H7.5C7.15203 17.8121 6.81844 17.6737 6.57239 17.4276C6.32634 17.1816 6.18792 16.848 6.1875 16.5V7.5C6.18754 7.35083 6.24682 7.20778 6.3523 7.1023C6.45778 6.99682 6.60083 6.93754 6.75 6.9375H15C15.1492 6.93754 15.2922 6.99682 15.3977 7.1023C15.5032 7.20778 15.5625 7.35083 15.5625 7.5V16.5C15.5621 16.848 15.4237 17.1816 15.1776 17.4276C14.9316 17.6737 14.598 17.8121 14.25 17.8125Z" fill="white"/>
<path d="M16.5 20.0625H9.75C9.40203 20.0621 9.06844 19.9237 8.82239 19.6776C8.57634 19.4316 8.43792 19.098 8.4375 18.75V17.25C8.4375 17.1008 8.49676 16.9577 8.60225 16.8523C8.70774 16.7468 8.85082 16.6875 9 16.6875C9.14918 16.6875 9.29226 16.7468 9.39775 16.8523C9.50324 16.9577 9.5625 17.1008 9.5625 17.25V18.75C9.5626 18.7997 9.58238 18.8473 9.61752 18.8825C9.65266 18.9176 9.7003 18.9374 9.75 18.9375H16.5C16.5497 18.9374 16.5973 18.9176 16.6325 18.8825C16.6676 18.8473 16.6874 18.7997 16.6875 18.75V8.0625H9C8.85082 8.0625 8.70774 8.00324 8.60225 7.89775C8.49676 7.79226 8.4375 7.64918 8.4375 7.5C8.4375 7.35082 8.49676 7.20774 8.60225 7.10225C8.70774 6.99676 8.85082 6.9375 9 6.9375H17.25C17.3992 6.93754 17.5422 6.99682 17.6477 7.1023C17.7532 7.20778 17.8125 7.35083 17.8125 7.5V18.75C17.8121 19.098 17.6737 19.4316 17.4276 19.6776C17.1816 19.9237 16.848 20.0621 16.5 20.0625Z" fill="white"/>
<path d="M12.375 13.5627C12.2258 13.5627 12.0828 13.5034 11.9773 13.398C11.8718 13.2925 11.8125 13.1494 11.8125 13.0002V11.75C11.8125 11.5435 11.4375 11.5435 11.4375 11.75V12.2502C11.4375 12.5983 11.2992 12.9322 11.0531 13.1783C10.8069 13.4245 10.4731 13.5627 10.125 13.5627C9.7769 13.5627 9.44306 13.4245 9.19692 13.1783C8.95078 12.9322 8.8125 12.5983 8.8125 12.2502V11C8.8125 10.8508 8.87176 10.7077 8.97725 10.6023C9.08274 10.4968 9.22582 10.4375 9.375 10.4375C9.52418 10.4375 9.66726 10.4968 9.77275 10.6023C9.87824 10.7077 9.9375 10.8508 9.9375 11V12.2502C9.9375 12.4568 10.3125 12.4568 10.3125 12.2502V11.75C10.3125 11.4019 10.4508 11.0681 10.6969 10.8219C10.9431 10.5758 11.2769 10.4375 11.625 10.4375C11.9731 10.4375 12.3069 10.5758 12.5531 10.8219C12.7992 11.0681 12.9375 11.4019 12.9375 11.75V13.0002C12.9375 13.1494 12.8782 13.2925 12.7727 13.398C12.6672 13.5034 12.5242 13.5627 12.375 13.5627Z" fill="white"/>
<path d="M13.125 12.5625H12.375C12.2258 12.5625 12.0827 12.5032 11.9773 12.3977C11.8718 12.2923 11.8125 12.1492 11.8125 12C11.8125 11.8508 11.8718 11.7077 11.9773 11.6023C12.0827 11.4968 12.2258 11.4375 12.375 11.4375H13.125C13.2742 11.4375 13.4173 11.4968 13.5227 11.6023C13.6282 11.7077 13.6875 11.8508 13.6875 12C13.6875 12.1492 13.6282 12.2923 13.5227 12.3977C13.4173 12.5032 13.2742 12.5625 13.125 12.5625ZM9.375 12.5625H8.625C8.47582 12.5625 8.33274 12.5032 8.22725 12.3977C8.12176 12.2923 8.0625 12.1492 8.0625 12C8.0625 11.8508 8.12176 11.7077 8.22725 11.6023C8.33274 11.4968 8.47582 11.4375 8.625 11.4375H9.375C9.52418 11.4375 9.66726 11.4968 9.77275 11.6023C9.87824 11.7077 9.9375 11.8508 9.9375 12C9.9375 12.1492 9.87824 12.2923 9.77275 12.3977C9.66726 12.5032 9.52418 12.5625 9.375 12.5625Z" fill="white"/>
<path d="M18 8.0625H6C5.85082 8.0625 5.70774 8.00324 5.60225 7.89775C5.49676 7.79226 5.4375 7.64918 5.4375 7.5C5.4375 7.35082 5.49676 7.20774 5.60225 7.10225C5.70774 6.99676 5.85082 6.9375 6 6.9375H18C18.1492 6.9375 18.2923 6.99676 18.3977 7.10225C18.5032 7.20774 18.5625 7.35082 18.5625 7.5C18.5625 7.64918 18.5032 7.79226 18.3977 7.89775C18.2923 8.00324 18.1492 8.0625 18 8.0625Z" fill="white"/>
<rect x="4.5" y="4.5" width="15" height="3" fill="white"/>
</g>
<defs>
<clipPath id="clip0_54_673">
<rect width="18" height="18" fill="white" transform="translate(3 3)"/>
</clipPath>
</defs>
</svg>
