<svg width="34" height="40" viewBox="0 0 34 40" fill="none" xmlns="http://www.w3.org/2000/svg">
<path d="M11.2754 20.4229V36.4311L16.7682 39.4197L22.261 36.4311V20.4229H11.2754Z" fill="url(#paint0_linear_247_250)"/>
<path d="M1.45064 22.4956L15.1971 29.9741V20.5531L-0.000244141 12.2852V20.1287C-0.000244141 21.1051 0.552733 22.008 1.45064 22.4969V22.4956Z" fill="url(#paint1_linear_247_250)"/>
<path d="M18.3396 20.5531V29.9754L32.086 22.4969C32.9839 22.008 33.5369 21.1064 33.5369 20.1287V12.2852L18.3396 20.5531Z" fill="url(#paint2_linear_247_250)"/>
<path d="M29.8362 24.5539V16.2911C29.8362 14.4479 28.7932 12.744 27.0987 11.8231L19.5062 7.69168C17.8117 6.76944 15.7257 6.76944 14.0312 7.69168L6.43868 11.8231C4.74416 12.7453 3.70117 14.4479 3.70117 16.2911V24.5539C3.70117 26.397 4.74416 28.1009 6.43868 29.0219L14.0312 33.1533C15.7257 34.0755 17.8117 34.0755 19.5062 33.1533L27.0987 29.0219C28.7932 28.0996 29.8362 26.397 29.8362 24.5539Z" fill="#323F54"/>
<path d="M16.7683 31.909C16.1688 31.909 15.5775 31.7594 15.0573 31.4769L7.46485 27.3455C6.40954 26.7716 5.75391 25.701 5.75391 24.553V16.2915C5.75391 15.1436 6.40954 14.073 7.46485 13.499L15.0573 9.36765C15.5775 9.08517 16.1688 8.93555 16.7683 8.93555C17.3678 8.93555 17.9605 9.08517 18.4792 9.36765L26.0717 13.499C27.127 14.073 27.7827 15.1436 27.7827 16.2915V24.5543C27.7827 25.7023 27.127 26.7728 26.0717 27.3468L18.4792 31.4782C17.9605 31.7607 17.3678 31.9103 16.7683 31.9103V31.909Z" fill="url(#paint3_linear_247_250)"/>
<path style="mix-blend-mode:screen" d="M16.7684 30.3625C16.4563 30.3625 16.1483 30.2851 15.8787 30.1381L8.28618 26.0067C7.7373 25.7088 7.39648 25.1515 7.39648 24.5543V16.2916C7.39648 15.6944 7.7373 15.1385 8.28618 14.8392L15.8787 10.7078C16.1483 10.5608 16.4563 10.4834 16.7684 10.4834C17.0804 10.4834 17.3884 10.5608 17.658 10.7078L25.2519 14.8392C25.8008 15.1372 26.1416 15.6944 26.1416 16.2916V24.5543C26.1416 25.1515 25.8008 25.7075 25.2519 26.0067L17.6594 30.1381C17.3898 30.2851 17.0818 30.3625 16.7697 30.3625H16.7684Z" fill="url(#paint4_linear_247_250)"/>
<path style="mix-blend-mode:multiply" opacity="0.3" d="M11.7773 23.1385V17.7057L16.7692 14.9893L21.7611 17.7057V23.1385L16.7692 25.8549L11.7773 23.1385Z" fill="url(#paint5_linear_247_250)"/>
<path d="M12.4473 22.7736V18.0708L16.7684 15.7207L21.0896 18.0708V22.7736L16.7684 25.1237L12.4473 22.7736Z" fill="#1C212E"/>
<path d="M16.77 16.1084L12.8047 18.265L16.77 20.4229V16.1084Z" fill="url(#paint6_linear_247_250)"/>
<path d="M16.7715 20.4229L20.7368 18.265L16.7715 16.1084V20.4229Z" fill="url(#paint7_linear_247_250)"/>
<path d="M16.7715 20.4226L20.7368 22.5805V18.2646L16.7715 20.4226Z" fill="url(#paint8_linear_247_250)"/>
<path d="M16.7715 20.4229V24.7374L20.7368 22.5808L16.7715 20.4229Z" fill="url(#paint9_linear_247_250)"/>
<path d="M12.8047 22.5808L16.77 24.7374V20.4229L12.8047 22.5808Z" fill="url(#paint10_linear_247_250)"/>
<path d="M16.77 20.4226L12.8047 18.2646V22.5805L16.77 20.4226Z" fill="url(#paint11_linear_247_250)"/>
<path d="M16.7684 17.583L14.1582 19.0031V21.8434L16.7684 23.2635L19.3786 21.8434V19.0031L16.7684 17.583Z" fill="url(#paint12_linear_247_250)"/>
<path d="M11.2754 20.4229V36.4311L16.7682 39.4197L22.261 36.4311V20.4229H11.2754Z" fill="url(#paint13_linear_247_250)"/>
<path d="M1.45064 22.4956L15.1971 29.9741V20.5531L-0.000244141 12.2852V20.1287C-0.000244141 21.1051 0.552733 22.008 1.45064 22.4969V22.4956Z" fill="url(#paint14_linear_247_250)"/>
<path d="M18.3396 20.5531V29.9754L32.086 22.4969C32.9839 22.008 33.5369 21.1064 33.5369 20.1287V12.2852L18.3396 20.5531Z" fill="url(#paint15_linear_247_250)"/>
<path d="M29.8362 24.5539V16.2911C29.8362 14.4479 28.7932 12.744 27.0987 11.8231L19.5062 7.69168C17.8117 6.76944 15.7257 6.76944 14.0312 7.69168L6.43868 11.8231C4.74416 12.7453 3.70117 14.4479 3.70117 16.2911V24.5539C3.70117 26.397 4.74416 28.1009 6.43868 29.0219L14.0312 33.1533C15.7257 34.0755 17.8117 34.0755 19.5062 33.1533L27.0987 29.0219C28.7932 28.0996 29.8362 26.397 29.8362 24.5539Z" fill="#323F54"/>
<path d="M16.7683 31.909C16.1688 31.909 15.5775 31.7594 15.0573 31.4769L7.46485 27.3455C6.40954 26.7716 5.75391 25.701 5.75391 24.553V16.2915C5.75391 15.1436 6.40954 14.073 7.46485 13.499L15.0573 9.36765C15.5775 9.08517 16.1688 8.93555 16.7683 8.93555C17.3678 8.93555 17.9605 9.08517 18.4792 9.36765L26.0717 13.499C27.127 14.073 27.7827 15.1436 27.7827 16.2915V24.5543C27.7827 25.7023 27.127 26.7728 26.0717 27.3468L18.4792 31.4782C17.9605 31.7607 17.3678 31.9103 16.7683 31.9103V31.909Z" fill="url(#paint16_linear_247_250)"/>
<path style="mix-blend-mode:screen" d="M16.7684 30.3625C16.4563 30.3625 16.1483 30.2851 15.8787 30.1381L8.28618 26.0067C7.7373 25.7088 7.39648 25.1515 7.39648 24.5543V16.2916C7.39648 15.6944 7.7373 15.1385 8.28618 14.8392L15.8787 10.7078C16.1483 10.5608 16.4563 10.4834 16.7684 10.4834C17.0804 10.4834 17.3884 10.5608 17.658 10.7078L25.2519 14.8392C25.8008 15.1372 26.1416 15.6944 26.1416 16.2916V24.5543C26.1416 25.1515 25.8008 25.7075 25.2519 26.0067L17.6594 30.1381C17.3898 30.2851 17.0818 30.3625 16.7697 30.3625H16.7684Z" fill="url(#paint17_linear_247_250)"/>
<path style="mix-blend-mode:multiply" opacity="0.3" d="M11.7773 23.1385V17.7057L16.7692 14.9893L21.7611 17.7057V23.1385L16.7692 25.8549L11.7773 23.1385Z" fill="url(#paint18_linear_247_250)"/>
<path d="M12.4473 22.7736V18.0708L16.7684 15.7207L21.0896 18.0708V22.7736L16.7684 25.1237L12.4473 22.7736Z" fill="#1C212E"/>
<path d="M16.77 16.1084L12.8047 18.265L16.77 20.4229V16.1084Z" fill="url(#paint19_linear_247_250)"/>
<path d="M16.7715 20.4229L20.7368 18.265L16.7715 16.1084V20.4229Z" fill="url(#paint20_linear_247_250)"/>
<path d="M16.7715 20.4226L20.7368 22.5805V18.2646L16.7715 20.4226Z" fill="url(#paint21_linear_247_250)"/>
<path d="M16.7715 20.4229V24.7374L20.7368 22.5808L16.7715 20.4229Z" fill="url(#paint22_linear_247_250)"/>
<path d="M12.8047 22.5808L16.77 24.7374V20.4229L12.8047 22.5808Z" fill="url(#paint23_linear_247_250)"/>
<path d="M16.77 20.4226L12.8047 18.2646V22.5805L16.77 20.4226Z" fill="url(#paint24_linear_247_250)"/>
<path d="M16.7684 17.583L14.1582 19.0031V21.8434L16.7684 23.2635L19.3786 21.8434V19.0031L16.7684 17.583Z" fill="url(#paint25_linear_247_250)"/>
<path d="M11.2754 20.4229V36.4311L16.7682 39.4197L22.261 36.4311V20.4229H11.2754Z" fill="url(#paint26_linear_247_250)"/>
<path d="M1.45064 22.4956L15.1971 29.9741V20.5531L-0.000244141 12.2852V20.1287C-0.000244141 21.1051 0.552733 22.008 1.45064 22.4969V22.4956Z" fill="url(#paint27_linear_247_250)"/>
<path d="M18.3396 20.5531V29.9754L32.086 22.4969C32.9839 22.008 33.5369 21.1064 33.5369 20.1287V12.2852L18.3396 20.5531Z" fill="url(#paint28_linear_247_250)"/>
<path d="M29.8362 24.5539V16.2911C29.8362 14.4479 28.7932 12.744 27.0987 11.8231L19.5062 7.69168C17.8117 6.76944 15.7257 6.76944 14.0312 7.69168L6.43868 11.8231C4.74416 12.7453 3.70117 14.4479 3.70117 16.2911V24.5539C3.70117 26.397 4.74416 28.1009 6.43868 29.0219L14.0312 33.1533C15.7257 34.0755 17.8117 34.0755 19.5062 33.1533L27.0987 29.0219C28.7932 28.0996 29.8362 26.397 29.8362 24.5539Z" fill="#323F54"/>
<path d="M16.7683 31.909C16.1688 31.909 15.5775 31.7594 15.0573 31.4769L7.46485 27.3455C6.40954 26.7716 5.75391 25.701 5.75391 24.553V16.2915C5.75391 15.1436 6.40954 14.073 7.46485 13.499L15.0573 9.36765C15.5775 9.08517 16.1688 8.93555 16.7683 8.93555C17.3678 8.93555 17.9605 9.08517 18.4792 9.36765L26.0717 13.499C27.127 14.073 27.7827 15.1436 27.7827 16.2915V24.5543C27.7827 25.7023 27.127 26.7728 26.0717 27.3468L18.4792 31.4782C17.9605 31.7607 17.3678 31.9103 16.7683 31.9103V31.909Z" fill="url(#paint29_linear_247_250)"/>
<path style="mix-blend-mode:screen" d="M16.7684 30.3625C16.4563 30.3625 16.1483 30.2851 15.8787 30.1381L8.28618 26.0067C7.7373 25.7088 7.39648 25.1515 7.39648 24.5543V16.2916C7.39648 15.6944 7.7373 15.1385 8.28618 14.8392L15.8787 10.7078C16.1483 10.5608 16.4563 10.4834 16.7684 10.4834C17.0804 10.4834 17.3884 10.5608 17.658 10.7078L25.2519 14.8392C25.8008 15.1372 26.1416 15.6944 26.1416 16.2916V24.5543C26.1416 25.1515 25.8008 25.7075 25.2519 26.0067L17.6594 30.1381C17.3898 30.2851 17.0818 30.3625 16.7697 30.3625H16.7684Z" fill="url(#paint30_linear_247_250)"/>
<path style="mix-blend-mode:multiply" opacity="0.3" d="M11.7773 23.1385V17.7057L16.7692 14.9893L21.7611 17.7057V23.1385L16.7692 25.8549L11.7773 23.1385Z" fill="url(#paint31_linear_247_250)"/>
<path d="M12.4473 22.7736V18.0708L16.7684 15.7207L21.0896 18.0708V22.7736L16.7684 25.1237L12.4473 22.7736Z" fill="#1C212E"/>
<path d="M16.77 16.1084L12.8047 18.265L16.77 20.4229V16.1084Z" fill="url(#paint32_linear_247_250)"/>
<path d="M16.7715 20.4229L20.7368 18.265L16.7715 16.1084V20.4229Z" fill="url(#paint33_linear_247_250)"/>
<path d="M16.7715 20.4226L20.7368 22.5805V18.2646L16.7715 20.4226Z" fill="url(#paint34_linear_247_250)"/>
<path d="M16.7715 20.4229V24.7374L20.7368 22.5808L16.7715 20.4229Z" fill="url(#paint35_linear_247_250)"/>
<path d="M12.8047 22.5808L16.77 24.7374V20.4229L12.8047 22.5808Z" fill="url(#paint36_linear_247_250)"/>
<path d="M16.77 20.4226L12.8047 18.2646V22.5805L16.77 20.4226Z" fill="url(#paint37_linear_247_250)"/>
<path d="M16.7684 17.583L14.1582 19.0031V21.8434L16.7684 23.2635L19.3786 21.8434V19.0031L16.7684 17.583Z" fill="url(#paint38_linear_247_250)"/>
<path d="M11.2754 20.4229V36.4311L16.7682 39.4197L22.261 36.4311V20.4229H11.2754Z" fill="url(#paint39_linear_247_250)"/>
<path d="M1.45064 22.4956L15.1971 29.9741V20.5531L-0.000244141 12.2852V20.1287C-0.000244141 21.1051 0.552733 22.008 1.45064 22.4969V22.4956Z" fill="url(#paint40_linear_247_250)"/>
<path d="M18.3396 20.5531V29.9754L32.086 22.4969C32.9839 22.008 33.5369 21.1064 33.5369 20.1287V12.2852L18.3396 20.5531Z" fill="url(#paint41_linear_247_250)"/>
<path d="M29.8362 24.5539V16.2911C29.8362 14.4479 28.7932 12.744 27.0987 11.8231L19.5062 7.69168C17.8117 6.76944 15.7257 6.76944 14.0312 7.69168L6.43868 11.8231C4.74416 12.7453 3.70117 14.4479 3.70117 16.2911V24.5539C3.70117 26.397 4.74416 28.1009 6.43868 29.0219L14.0312 33.1533C15.7257 34.0755 17.8117 34.0755 19.5062 33.1533L27.0987 29.0219C28.7932 28.0996 29.8362 26.397 29.8362 24.5539Z" fill="#323F54"/>
<path d="M16.7683 31.909C16.1688 31.909 15.5775 31.7594 15.0573 31.4769L7.46485 27.3455C6.40954 26.7716 5.75391 25.701 5.75391 24.553V16.2915C5.75391 15.1436 6.40954 14.073 7.46485 13.499L15.0573 9.36765C15.5775 9.08517 16.1688 8.93555 16.7683 8.93555C17.3678 8.93555 17.9605 9.08517 18.4792 9.36765L26.0717 13.499C27.127 14.073 27.7827 15.1436 27.7827 16.2915V24.5543C27.7827 25.7023 27.127 26.7728 26.0717 27.3468L18.4792 31.4782C17.9605 31.7607 17.3678 31.9103 16.7683 31.9103V31.909Z" fill="url(#paint42_linear_247_250)"/>
<path style="mix-blend-mode:screen" d="M16.7684 30.3625C16.4563 30.3625 16.1483 30.2851 15.8787 30.1381L8.28618 26.0067C7.7373 25.7088 7.39648 25.1515 7.39648 24.5543V16.2916C7.39648 15.6944 7.7373 15.1385 8.28618 14.8392L15.8787 10.7078C16.1483 10.5608 16.4563 10.4834 16.7684 10.4834C17.0804 10.4834 17.3884 10.5608 17.658 10.7078L25.2519 14.8392C25.8008 15.1372 26.1416 15.6944 26.1416 16.2916V24.5543C26.1416 25.1515 25.8008 25.7075 25.2519 26.0067L17.6594 30.1381C17.3898 30.2851 17.0818 30.3625 16.7697 30.3625H16.7684Z" fill="url(#paint43_linear_247_250)"/>
<path style="mix-blend-mode:multiply" opacity="0.3" d="M11.7773 23.1385V17.7057L16.7692 14.9893L21.7611 17.7057V23.1385L16.7692 25.8549L11.7773 23.1385Z" fill="url(#paint44_linear_247_250)"/>
<path d="M12.4473 22.7736V18.0708L16.7684 15.7207L21.0896 18.0708V22.7736L16.7684 25.1237L12.4473 22.7736Z" fill="#1C212E"/>
<path d="M16.77 16.1084L12.8047 18.265L16.77 20.4229V16.1084Z" fill="url(#paint45_linear_247_250)"/>
<path d="M16.7715 20.4229L20.7368 18.265L16.7715 16.1084V20.4229Z" fill="url(#paint46_linear_247_250)"/>
<path d="M16.7715 20.4226L20.7368 22.5805V18.2646L16.7715 20.4226Z" fill="url(#paint47_linear_247_250)"/>
<path d="M16.7715 20.4229V24.7374L20.7368 22.5808L16.7715 20.4229Z" fill="url(#paint48_linear_247_250)"/>
<path d="M12.8047 22.5808L16.77 24.7374V20.4229L12.8047 22.5808Z" fill="url(#paint49_linear_247_250)"/>
<path d="M16.77 20.4226L12.8047 18.2646V22.5805L16.77 20.4226Z" fill="url(#paint50_linear_247_250)"/>
<path d="M16.7684 17.583L14.1582 19.0031V21.8434L16.7684 23.2635L19.3786 21.8434V19.0031L16.7684 17.583Z" fill="url(#paint51_linear_247_250)"/>
<path d="M11.2754 20.4229V36.4311L16.7682 39.4197L22.261 36.4311V20.4229H11.2754Z" fill="url(#paint52_linear_247_250)"/>
<path d="M1.45064 22.4956L15.1971 29.9741V20.5531L-0.000244141 12.2852V20.1287C-0.000244141 21.1051 0.552733 22.008 1.45064 22.4969V22.4956Z" fill="url(#paint53_linear_247_250)"/>
<path d="M18.3396 20.5531V29.9754L32.086 22.4969C32.9839 22.008 33.5369 21.1064 33.5369 20.1287V12.2852L18.3396 20.5531Z" fill="url(#paint54_linear_247_250)"/>
<path d="M29.8362 24.5539V16.2911C29.8362 14.4479 28.7932 12.744 27.0987 11.8231L19.5062 7.69168C17.8117 6.76944 15.7257 6.76944 14.0312 7.69168L6.43868 11.8231C4.74416 12.7453 3.70117 14.4479 3.70117 16.2911V24.5539C3.70117 26.397 4.74416 28.1009 6.43868 29.0219L14.0312 33.1533C15.7257 34.0755 17.8117 34.0755 19.5062 33.1533L27.0987 29.0219C28.7932 28.0996 29.8362 26.397 29.8362 24.5539Z" fill="#323F54"/>
<path d="M16.7683 31.909C16.1688 31.909 15.5775 31.7594 15.0573 31.4769L7.46485 27.3455C6.40954 26.7716 5.75391 25.701 5.75391 24.553V16.2915C5.75391 15.1436 6.40954 14.073 7.46485 13.499L15.0573 9.36765C15.5775 9.08517 16.1688 8.93555 16.7683 8.93555C17.3678 8.93555 17.9605 9.08517 18.4792 9.36765L26.0717 13.499C27.127 14.073 27.7827 15.1436 27.7827 16.2915V24.5543C27.7827 25.7023 27.127 26.7728 26.0717 27.3468L18.4792 31.4782C17.9605 31.7607 17.3678 31.9103 16.7683 31.9103V31.909Z" fill="url(#paint55_linear_247_250)"/>
<path style="mix-blend-mode:screen" d="M16.7684 30.3625C16.4563 30.3625 16.1483 30.2851 15.8787 30.1381L8.28618 26.0067C7.7373 25.7088 7.39648 25.1515 7.39648 24.5543V16.2916C7.39648 15.6944 7.7373 15.1385 8.28618 14.8392L15.8787 10.7078C16.1483 10.5608 16.4563 10.4834 16.7684 10.4834C17.0804 10.4834 17.3884 10.5608 17.658 10.7078L25.2519 14.8392C25.8008 15.1372 26.1416 15.6944 26.1416 16.2916V24.5543C26.1416 25.1515 25.8008 25.7075 25.2519 26.0067L17.6594 30.1381C17.3898 30.2851 17.0818 30.3625 16.7697 30.3625H16.7684Z" fill="url(#paint56_linear_247_250)"/>
<path style="mix-blend-mode:multiply" opacity="0.3" d="M11.7773 23.1385V17.7057L16.7692 14.9893L21.7611 17.7057V23.1385L16.7692 25.8549L11.7773 23.1385Z" fill="url(#paint57_linear_247_250)"/>
<path d="M12.4473 22.7736V18.0708L16.7684 15.7207L21.0896 18.0708V22.7736L16.7684 25.1237L12.4473 22.7736Z" fill="#1C212E"/>
<path d="M16.77 16.1084L12.8047 18.265L16.77 20.4229V16.1084Z" fill="url(#paint58_linear_247_250)"/>
<path d="M16.7715 20.4229L20.7368 18.265L16.7715 16.1084V20.4229Z" fill="url(#paint59_linear_247_250)"/>
<path d="M16.7715 20.4226L20.7368 22.5805V18.2646L16.7715 20.4226Z" fill="url(#paint60_linear_247_250)"/>
<path d="M16.7715 20.4229V24.7374L20.7368 22.5808L16.7715 20.4229Z" fill="url(#paint61_linear_247_250)"/>
<path d="M12.8047 22.5808L16.77 24.7374V20.4229L12.8047 22.5808Z" fill="url(#paint62_linear_247_250)"/>
<path d="M16.77 20.4226L12.8047 18.2646V22.5805L16.77 20.4226Z" fill="url(#paint63_linear_247_250)"/>
<path d="M16.7684 17.583L14.1582 19.0031V21.8434L16.7684 23.2635L19.3786 21.8434V19.0031L16.7684 17.583Z" fill="url(#paint64_linear_247_250)"/>
<path d="M16.8371 2.33239C16.7922 2.20198 16.6691 2.10935 16.5234 2.09702L14.5449 1.92822L13.7625 0.207712C13.7048 0.0816203 13.5735 0 13.4275 0C13.2815 0 13.1501 0.0816203 13.0925 0.208006L12.3101 1.92822L10.3313 2.09702C10.1859 2.10965 10.0631 2.20198 10.0179 2.33239C9.9728 2.46281 10.0145 2.60585 10.1245 2.69602L11.62 3.92834L11.179 5.75352C11.1467 5.88772 11.2022 6.02644 11.3207 6.10693C11.3844 6.15017 11.4589 6.17218 11.5341 6.17218C11.5989 6.17218 11.6631 6.15577 11.7208 6.12334L13.4275 5.16498L15.1335 6.12334C15.2584 6.1939 15.4157 6.18747 15.534 6.10693C15.6526 6.02619 15.7079 5.88742 15.6757 5.75352L15.2347 3.92834L16.7302 2.69627C16.8402 2.60585 16.8822 2.46306 16.8371 2.33239Z" fill="#CCFF00"/>
<path d="M24.8371 2.33239C24.7922 2.20198 24.6691 2.10935 24.5234 2.09702L22.5449 1.92822L21.7625 0.207712C21.7048 0.0816203 21.5735 0 21.4275 0C21.2815 0 21.1501 0.0816203 21.0925 0.208006L20.3101 1.92822L18.3313 2.09702C18.1859 2.10965 18.0631 2.20198 18.0179 2.33239C17.9728 2.46281 18.0145 2.60585 18.1245 2.69602L19.62 3.92834L19.179 5.75352C19.1467 5.88772 19.2022 6.02644 19.3207 6.10693C19.3844 6.15017 19.4589 6.17218 19.5341 6.17218C19.5989 6.17218 19.6631 6.15577 19.7208 6.12334L21.4275 5.16498L23.1335 6.12334C23.2584 6.1939 23.4157 6.18747 23.534 6.10693C23.6526 6.02619 23.7079 5.88742 23.6757 5.75352L23.2347 3.92834L24.7302 2.69627C24.8402 2.60585 24.8822 2.46306 24.8371 2.33239Z" fill="#CCFF00"/>
<defs>
<linearGradient id="paint0_linear_247_250" x1="16.7682" y1="39.4197" x2="16.7682" y2="20.4229" gradientUnits="userSpaceOnUse">
<stop stop-color="white"/>
<stop offset="0.5" stop-color="#D6E2F5"/>
<stop offset="1" stop-color="#93A6C4"/>
</linearGradient>
<linearGradient id="paint1_linear_247_250" x1="7.59909" y1="12.2852" x2="7.59909" y2="29.9741" gradientUnits="userSpaceOnUse">
<stop stop-color="#D6E2F5"/>
<stop offset="1" stop-color="#93A6C4"/>
</linearGradient>
<linearGradient id="paint2_linear_247_250" x1="25.9376" y1="4.85435" x2="25.9376" y2="4.85435" gradientUnits="userSpaceOnUse">
<stop stop-color="#D6E2F5"/>
<stop offset="1" stop-color="#93A6C4"/>
</linearGradient>
<linearGradient id="paint3_linear_247_250" x1="16.7683" y1="8.93555" x2="16.7683" y2="31.909" gradientUnits="userSpaceOnUse">
<stop stop-color="white"/>
<stop offset="0.5" stop-color="#D6E2F5"/>
<stop offset="1" stop-color="#93A6C4"/>
</linearGradient>
<linearGradient id="paint4_linear_247_250" x1="16.7684" y1="10.4834" x2="16.7684" y2="30.3625" gradientUnits="userSpaceOnUse">
<stop stop-color="white"/>
<stop offset="1" stop-color="#93A6C4"/>
</linearGradient>
<linearGradient id="paint5_linear_247_250" x1="16.7692" y1="25.8549" x2="16.7692" y2="14.9893" gradientUnits="userSpaceOnUse">
<stop stop-color="white"/>
<stop offset="1"/>
</linearGradient>
<linearGradient id="paint6_linear_247_250" x1="14.7866" y1="16.1084" x2="14.7866" y2="20.4229" gradientUnits="userSpaceOnUse">
<stop stop-color="white"/>
<stop offset="0.5" stop-color="#D6E2F5"/>
<stop offset="1" stop-color="#93A6C4"/>
</linearGradient>
<linearGradient id="paint7_linear_247_250" x1="18.7548" y1="20.4229" x2="18.7548" y2="16.1084" gradientUnits="userSpaceOnUse">
<stop stop-color="white"/>
<stop offset="0.5" stop-color="#D6E2F5"/>
<stop offset="1" stop-color="#93A6C4"/>
</linearGradient>
<linearGradient id="paint8_linear_247_250" x1="18.7548" y1="22.5805" x2="18.7548" y2="18.2646" gradientUnits="userSpaceOnUse">
<stop stop-color="white"/>
<stop offset="0.5" stop-color="#D6E2F5"/>
<stop offset="1" stop-color="#93A6C4"/>
</linearGradient>
<linearGradient id="paint9_linear_247_250" x1="18.7548" y1="24.7374" x2="18.7548" y2="20.4229" gradientUnits="userSpaceOnUse">
<stop stop-color="white"/>
<stop offset="0.5" stop-color="#D6E2F5"/>
<stop offset="1" stop-color="#93A6C4"/>
</linearGradient>
<linearGradient id="paint10_linear_247_250" x1="14.7866" y1="20.4229" x2="14.7866" y2="24.7374" gradientUnits="userSpaceOnUse">
<stop stop-color="white"/>
<stop offset="0.5" stop-color="#D6E2F5"/>
<stop offset="1" stop-color="#93A6C4"/>
</linearGradient>
<linearGradient id="paint11_linear_247_250" x1="14.7866" y1="22.5805" x2="14.7866" y2="18.2646" gradientUnits="userSpaceOnUse">
<stop stop-color="white"/>
<stop offset="0.5" stop-color="#D6E2F5"/>
<stop offset="1" stop-color="#93A6C4"/>
</linearGradient>
<linearGradient id="paint12_linear_247_250" x1="16.7684" y1="17.583" x2="16.7684" y2="23.2635" gradientUnits="userSpaceOnUse">
<stop stop-color="white"/>
<stop offset="0.5" stop-color="#D6E2F5"/>
<stop offset="1" stop-color="#93A6C4"/>
</linearGradient>
<linearGradient id="paint13_linear_247_250" x1="16.7682" y1="39.4197" x2="16.7682" y2="20.4229" gradientUnits="userSpaceOnUse">
<stop stop-color="white"/>
<stop offset="0.5" stop-color="#D6E2F5"/>
<stop offset="1" stop-color="#93A6C4"/>
</linearGradient>
<linearGradient id="paint14_linear_247_250" x1="7.59909" y1="12.2852" x2="7.59909" y2="29.9741" gradientUnits="userSpaceOnUse">
<stop stop-color="#D6E2F5"/>
<stop offset="1" stop-color="#93A6C4"/>
</linearGradient>
<linearGradient id="paint15_linear_247_250" x1="25.9376" y1="4.85435" x2="25.9376" y2="4.85435" gradientUnits="userSpaceOnUse">
<stop stop-color="#D6E2F5"/>
<stop offset="1" stop-color="#93A6C4"/>
</linearGradient>
<linearGradient id="paint16_linear_247_250" x1="16.7683" y1="8.93555" x2="16.7683" y2="31.909" gradientUnits="userSpaceOnUse">
<stop stop-color="white"/>
<stop offset="0.5" stop-color="#D6E2F5"/>
<stop offset="1" stop-color="#93A6C4"/>
</linearGradient>
<linearGradient id="paint17_linear_247_250" x1="16.7684" y1="10.4834" x2="16.7684" y2="30.3625" gradientUnits="userSpaceOnUse">
<stop stop-color="white"/>
<stop offset="1" stop-color="#93A6C4"/>
</linearGradient>
<linearGradient id="paint18_linear_247_250" x1="16.7692" y1="25.8549" x2="16.7692" y2="14.9893" gradientUnits="userSpaceOnUse">
<stop stop-color="white"/>
<stop offset="1"/>
</linearGradient>
<linearGradient id="paint19_linear_247_250" x1="14.7866" y1="16.1084" x2="14.7866" y2="20.4229" gradientUnits="userSpaceOnUse">
<stop stop-color="white"/>
<stop offset="0.5" stop-color="#D6E2F5"/>
<stop offset="1" stop-color="#93A6C4"/>
</linearGradient>
<linearGradient id="paint20_linear_247_250" x1="18.7548" y1="20.4229" x2="18.7548" y2="16.1084" gradientUnits="userSpaceOnUse">
<stop stop-color="white"/>
<stop offset="0.5" stop-color="#D6E2F5"/>
<stop offset="1" stop-color="#93A6C4"/>
</linearGradient>
<linearGradient id="paint21_linear_247_250" x1="18.7548" y1="22.5805" x2="18.7548" y2="18.2646" gradientUnits="userSpaceOnUse">
<stop stop-color="white"/>
<stop offset="0.5" stop-color="#D6E2F5"/>
<stop offset="1" stop-color="#93A6C4"/>
</linearGradient>
<linearGradient id="paint22_linear_247_250" x1="18.7548" y1="24.7374" x2="18.7548" y2="20.4229" gradientUnits="userSpaceOnUse">
<stop stop-color="white"/>
<stop offset="0.5" stop-color="#D6E2F5"/>
<stop offset="1" stop-color="#93A6C4"/>
</linearGradient>
<linearGradient id="paint23_linear_247_250" x1="14.7866" y1="20.4229" x2="14.7866" y2="24.7374" gradientUnits="userSpaceOnUse">
<stop stop-color="white"/>
<stop offset="0.5" stop-color="#D6E2F5"/>
<stop offset="1" stop-color="#93A6C4"/>
</linearGradient>
<linearGradient id="paint24_linear_247_250" x1="14.7866" y1="22.5805" x2="14.7866" y2="18.2646" gradientUnits="userSpaceOnUse">
<stop stop-color="white"/>
<stop offset="0.5" stop-color="#D6E2F5"/>
<stop offset="1" stop-color="#93A6C4"/>
</linearGradient>
<linearGradient id="paint25_linear_247_250" x1="16.7684" y1="17.583" x2="16.7684" y2="23.2635" gradientUnits="userSpaceOnUse">
<stop stop-color="white"/>
<stop offset="0.5" stop-color="#D6E2F5"/>
<stop offset="1" stop-color="#93A6C4"/>
</linearGradient>
<linearGradient id="paint26_linear_247_250" x1="16.7682" y1="39.4197" x2="16.7682" y2="20.4229" gradientUnits="userSpaceOnUse">
<stop stop-color="white"/>
<stop offset="0.5" stop-color="#D6E2F5"/>
<stop offset="1" stop-color="#93A6C4"/>
</linearGradient>
<linearGradient id="paint27_linear_247_250" x1="7.59909" y1="12.2852" x2="7.59909" y2="29.9741" gradientUnits="userSpaceOnUse">
<stop stop-color="#D6E2F5"/>
<stop offset="1" stop-color="#93A6C4"/>
</linearGradient>
<linearGradient id="paint28_linear_247_250" x1="25.9376" y1="4.85435" x2="25.9376" y2="4.85435" gradientUnits="userSpaceOnUse">
<stop stop-color="#D6E2F5"/>
<stop offset="1" stop-color="#93A6C4"/>
</linearGradient>
<linearGradient id="paint29_linear_247_250" x1="16.7683" y1="8.93555" x2="16.7683" y2="31.909" gradientUnits="userSpaceOnUse">
<stop stop-color="white"/>
<stop offset="0.5" stop-color="#D6E2F5"/>
<stop offset="1" stop-color="#93A6C4"/>
</linearGradient>
<linearGradient id="paint30_linear_247_250" x1="16.7684" y1="10.4834" x2="16.7684" y2="30.3625" gradientUnits="userSpaceOnUse">
<stop stop-color="white"/>
<stop offset="1" stop-color="#93A6C4"/>
</linearGradient>
<linearGradient id="paint31_linear_247_250" x1="16.7692" y1="25.8549" x2="16.7692" y2="14.9893" gradientUnits="userSpaceOnUse">
<stop stop-color="white"/>
<stop offset="1"/>
</linearGradient>
<linearGradient id="paint32_linear_247_250" x1="14.7866" y1="16.1084" x2="14.7866" y2="20.4229" gradientUnits="userSpaceOnUse">
<stop stop-color="white"/>
<stop offset="0.5" stop-color="#D6E2F5"/>
<stop offset="1" stop-color="#93A6C4"/>
</linearGradient>
<linearGradient id="paint33_linear_247_250" x1="18.7548" y1="20.4229" x2="18.7548" y2="16.1084" gradientUnits="userSpaceOnUse">
<stop stop-color="white"/>
<stop offset="0.5" stop-color="#D6E2F5"/>
<stop offset="1" stop-color="#93A6C4"/>
</linearGradient>
<linearGradient id="paint34_linear_247_250" x1="18.7548" y1="22.5805" x2="18.7548" y2="18.2646" gradientUnits="userSpaceOnUse">
<stop stop-color="white"/>
<stop offset="0.5" stop-color="#D6E2F5"/>
<stop offset="1" stop-color="#93A6C4"/>
</linearGradient>
<linearGradient id="paint35_linear_247_250" x1="18.7548" y1="24.7374" x2="18.7548" y2="20.4229" gradientUnits="userSpaceOnUse">
<stop stop-color="white"/>
<stop offset="0.5" stop-color="#D6E2F5"/>
<stop offset="1" stop-color="#93A6C4"/>
</linearGradient>
<linearGradient id="paint36_linear_247_250" x1="14.7866" y1="20.4229" x2="14.7866" y2="24.7374" gradientUnits="userSpaceOnUse">
<stop stop-color="white"/>
<stop offset="0.5" stop-color="#D6E2F5"/>
<stop offset="1" stop-color="#93A6C4"/>
</linearGradient>
<linearGradient id="paint37_linear_247_250" x1="14.7866" y1="22.5805" x2="14.7866" y2="18.2646" gradientUnits="userSpaceOnUse">
<stop stop-color="white"/>
<stop offset="0.5" stop-color="#D6E2F5"/>
<stop offset="1" stop-color="#93A6C4"/>
</linearGradient>
<linearGradient id="paint38_linear_247_250" x1="16.7684" y1="17.583" x2="16.7684" y2="23.2635" gradientUnits="userSpaceOnUse">
<stop stop-color="white"/>
<stop offset="0.5" stop-color="#D6E2F5"/>
<stop offset="1" stop-color="#93A6C4"/>
</linearGradient>
<linearGradient id="paint39_linear_247_250" x1="16.7682" y1="39.4197" x2="16.7682" y2="20.4229" gradientUnits="userSpaceOnUse">
<stop stop-color="white"/>
<stop offset="0.5" stop-color="#D6E2F5"/>
<stop offset="1" stop-color="#93A6C4"/>
</linearGradient>
<linearGradient id="paint40_linear_247_250" x1="7.59909" y1="12.2852" x2="7.59909" y2="29.9741" gradientUnits="userSpaceOnUse">
<stop stop-color="#D6E2F5"/>
<stop offset="1" stop-color="#93A6C4"/>
</linearGradient>
<linearGradient id="paint41_linear_247_250" x1="25.9376" y1="4.85435" x2="25.9376" y2="4.85435" gradientUnits="userSpaceOnUse">
<stop stop-color="#D6E2F5"/>
<stop offset="1" stop-color="#93A6C4"/>
</linearGradient>
<linearGradient id="paint42_linear_247_250" x1="16.7683" y1="8.93555" x2="16.7683" y2="31.909" gradientUnits="userSpaceOnUse">
<stop stop-color="white"/>
<stop offset="0.5" stop-color="#D6E2F5"/>
<stop offset="1" stop-color="#93A6C4"/>
</linearGradient>
<linearGradient id="paint43_linear_247_250" x1="16.7684" y1="10.4834" x2="16.7684" y2="30.3625" gradientUnits="userSpaceOnUse">
<stop stop-color="white"/>
<stop offset="1" stop-color="#93A6C4"/>
</linearGradient>
<linearGradient id="paint44_linear_247_250" x1="16.7692" y1="25.8549" x2="16.7692" y2="14.9893" gradientUnits="userSpaceOnUse">
<stop stop-color="white"/>
<stop offset="1"/>
</linearGradient>
<linearGradient id="paint45_linear_247_250" x1="14.7866" y1="16.1084" x2="14.7866" y2="20.4229" gradientUnits="userSpaceOnUse">
<stop stop-color="white"/>
<stop offset="0.5" stop-color="#D6E2F5"/>
<stop offset="1" stop-color="#93A6C4"/>
</linearGradient>
<linearGradient id="paint46_linear_247_250" x1="18.7548" y1="20.4229" x2="18.7548" y2="16.1084" gradientUnits="userSpaceOnUse">
<stop stop-color="white"/>
<stop offset="0.5" stop-color="#D6E2F5"/>
<stop offset="1" stop-color="#93A6C4"/>
</linearGradient>
<linearGradient id="paint47_linear_247_250" x1="18.7548" y1="22.5805" x2="18.7548" y2="18.2646" gradientUnits="userSpaceOnUse">
<stop stop-color="white"/>
<stop offset="0.5" stop-color="#D6E2F5"/>
<stop offset="1" stop-color="#93A6C4"/>
</linearGradient>
<linearGradient id="paint48_linear_247_250" x1="18.7548" y1="24.7374" x2="18.7548" y2="20.4229" gradientUnits="userSpaceOnUse">
<stop stop-color="white"/>
<stop offset="0.5" stop-color="#D6E2F5"/>
<stop offset="1" stop-color="#93A6C4"/>
</linearGradient>
<linearGradient id="paint49_linear_247_250" x1="14.7866" y1="20.4229" x2="14.7866" y2="24.7374" gradientUnits="userSpaceOnUse">
<stop stop-color="white"/>
<stop offset="0.5" stop-color="#D6E2F5"/>
<stop offset="1" stop-color="#93A6C4"/>
</linearGradient>
<linearGradient id="paint50_linear_247_250" x1="14.7866" y1="22.5805" x2="14.7866" y2="18.2646" gradientUnits="userSpaceOnUse">
<stop stop-color="white"/>
<stop offset="0.5" stop-color="#D6E2F5"/>
<stop offset="1" stop-color="#93A6C4"/>
</linearGradient>
<linearGradient id="paint51_linear_247_250" x1="16.7684" y1="17.583" x2="16.7684" y2="23.2635" gradientUnits="userSpaceOnUse">
<stop stop-color="white"/>
<stop offset="0.5" stop-color="#D6E2F5"/>
<stop offset="1" stop-color="#93A6C4"/>
</linearGradient>
<linearGradient id="paint52_linear_247_250" x1="16.7682" y1="39.4197" x2="16.7682" y2="20.4229" gradientUnits="userSpaceOnUse">
<stop stop-color="white"/>
<stop offset="0.5" stop-color="#D6E2F5"/>
<stop offset="1" stop-color="#93A6C4"/>
</linearGradient>
<linearGradient id="paint53_linear_247_250" x1="7.59909" y1="12.2852" x2="7.59909" y2="29.9741" gradientUnits="userSpaceOnUse">
<stop stop-color="#D6E2F5"/>
<stop offset="1" stop-color="#93A6C4"/>
</linearGradient>
<linearGradient id="paint54_linear_247_250" x1="25.9376" y1="4.85435" x2="25.9376" y2="4.85435" gradientUnits="userSpaceOnUse">
<stop stop-color="#D6E2F5"/>
<stop offset="1" stop-color="#93A6C4"/>
</linearGradient>
<linearGradient id="paint55_linear_247_250" x1="16.7683" y1="8.93555" x2="16.7683" y2="31.909" gradientUnits="userSpaceOnUse">
<stop stop-color="white"/>
<stop offset="0.5" stop-color="#D6E2F5"/>
<stop offset="1" stop-color="#93A6C4"/>
</linearGradient>
<linearGradient id="paint56_linear_247_250" x1="16.7684" y1="10.4834" x2="16.7684" y2="30.3625" gradientUnits="userSpaceOnUse">
<stop stop-color="white"/>
<stop offset="1" stop-color="#93A6C4"/>
</linearGradient>
<linearGradient id="paint57_linear_247_250" x1="16.7692" y1="25.8549" x2="16.7692" y2="14.9893" gradientUnits="userSpaceOnUse">
<stop stop-color="white"/>
<stop offset="1"/>
</linearGradient>
<linearGradient id="paint58_linear_247_250" x1="14.7866" y1="16.1084" x2="14.7866" y2="20.4229" gradientUnits="userSpaceOnUse">
<stop stop-color="white"/>
<stop offset="0.5" stop-color="#D6E2F5"/>
<stop offset="1" stop-color="#93A6C4"/>
</linearGradient>
<linearGradient id="paint59_linear_247_250" x1="18.7548" y1="20.4229" x2="18.7548" y2="16.1084" gradientUnits="userSpaceOnUse">
<stop stop-color="white"/>
<stop offset="0.5" stop-color="#D6E2F5"/>
<stop offset="1" stop-color="#93A6C4"/>
</linearGradient>
<linearGradient id="paint60_linear_247_250" x1="18.7548" y1="22.5805" x2="18.7548" y2="18.2646" gradientUnits="userSpaceOnUse">
<stop stop-color="white"/>
<stop offset="0.5" stop-color="#D6E2F5"/>
<stop offset="1" stop-color="#93A6C4"/>
</linearGradient>
<linearGradient id="paint61_linear_247_250" x1="18.7548" y1="24.7374" x2="18.7548" y2="20.4229" gradientUnits="userSpaceOnUse">
<stop stop-color="white"/>
<stop offset="0.5" stop-color="#D6E2F5"/>
<stop offset="1" stop-color="#93A6C4"/>
</linearGradient>
<linearGradient id="paint62_linear_247_250" x1="14.7866" y1="20.4229" x2="14.7866" y2="24.7374" gradientUnits="userSpaceOnUse">
<stop stop-color="white"/>
<stop offset="0.5" stop-color="#D6E2F5"/>
<stop offset="1" stop-color="#93A6C4"/>
</linearGradient>
<linearGradient id="paint63_linear_247_250" x1="14.7866" y1="22.5805" x2="14.7866" y2="18.2646" gradientUnits="userSpaceOnUse">
<stop stop-color="white"/>
<stop offset="0.5" stop-color="#D6E2F5"/>
<stop offset="1" stop-color="#93A6C4"/>
</linearGradient>
<linearGradient id="paint64_linear_247_250" x1="16.7684" y1="17.583" x2="16.7684" y2="23.2635" gradientUnits="userSpaceOnUse">
<stop stop-color="white"/>
<stop offset="0.5" stop-color="#D6E2F5"/>
<stop offset="1" stop-color="#93A6C4"/>
</linearGradient>
</defs>
</svg>
