<svg width="34" height="33" viewBox="0 0 34 33" fill="none" xmlns="http://www.w3.org/2000/svg">
<path d="M11.2754 13.4229V29.4311L16.7682 32.4197L22.261 29.4311V13.4229H11.2754Z" fill="url(#paint0_linear_247_100)"/>
<path d="M1.45064 15.4956L15.1971 22.9741V13.5531L-0.000244141 5.28516V13.1287C-0.000244141 14.1051 0.552733 15.008 1.45064 15.4969V15.4956Z" fill="url(#paint1_linear_247_100)"/>
<path d="M18.3396 13.5531V22.9754L32.086 15.4969C32.9839 15.008 33.5369 14.1064 33.5369 13.1287V5.28516L18.3396 13.5531Z" fill="url(#paint2_linear_247_100)"/>
<path d="M29.8362 17.5539V9.29109C29.8362 7.4479 28.7932 5.74401 27.0987 4.82306L19.5062 0.691681C17.8117 -0.23056 15.7257 -0.23056 14.0312 0.691681L6.43868 4.82306C4.74416 5.7453 3.70117 7.4479 3.70117 9.29109V17.5539C3.70117 19.397 4.74416 21.1009 6.43868 22.0219L14.0312 26.1533C15.7257 27.0755 17.8117 27.0755 19.5062 26.1533L27.0987 22.0219C28.7932 21.0996 29.8362 19.397 29.8362 17.5539Z" fill="#323F54"/>
<path d="M16.7683 24.909C16.1688 24.909 15.5775 24.7594 15.0573 24.4769L7.46485 20.3455C6.40954 19.7716 5.75391 18.701 5.75391 17.553V9.29154C5.75391 8.14358 6.40954 7.07301 7.46485 6.49903L15.0573 2.36765C15.5775 2.08517 16.1688 1.93555 16.7683 1.93555C17.3678 1.93555 17.9605 2.08517 18.4792 2.36765L26.0717 6.49903C27.127 7.07301 27.7827 8.14358 27.7827 9.29154V17.5543C27.7827 18.7023 27.127 19.7728 26.0717 20.3468L18.4792 24.4782C17.9605 24.7607 17.3678 24.9103 16.7683 24.9103V24.909Z" fill="url(#paint3_linear_247_100)"/>
<path style="mix-blend-mode:screen" d="M16.7684 23.3625C16.4563 23.3625 16.1483 23.2851 15.8787 23.1381L8.28618 19.0067C7.7373 18.7088 7.39648 18.1515 7.39648 17.5543V9.29158C7.39648 8.69438 7.7373 8.13846 8.28618 7.83921L15.8787 3.70783C16.1483 3.56079 16.4563 3.4834 16.7684 3.4834C17.0804 3.4834 17.3884 3.56079 17.658 3.70783L25.2519 7.83921C25.8008 8.13717 26.1416 8.69438 26.1416 9.29158V17.5543C26.1416 18.1515 25.8008 18.7075 25.2519 19.0067L17.6594 23.1381C17.3898 23.2851 17.0818 23.3625 16.7697 23.3625H16.7684Z" fill="url(#paint4_linear_247_100)"/>
<path style="mix-blend-mode:multiply" opacity="0.3" d="M11.7773 16.1385V10.7057L16.7692 7.98926L21.7611 10.7057V16.1385L16.7692 18.8549L11.7773 16.1385Z" fill="url(#paint5_linear_247_100)"/>
<path d="M12.4473 15.7736V11.0708L16.7684 8.7207L21.0896 11.0708V15.7736L16.7684 18.1237L12.4473 15.7736Z" fill="#1C212E"/>
<path d="M16.77 9.1084L12.8047 11.265L16.77 13.4229V9.1084Z" fill="url(#paint6_linear_247_100)"/>
<path d="M16.7715 13.4229L20.7368 11.265L16.7715 9.1084V13.4229Z" fill="url(#paint7_linear_247_100)"/>
<path d="M16.7715 13.4226L20.7368 15.5805V11.2646L16.7715 13.4226Z" fill="url(#paint8_linear_247_100)"/>
<path d="M16.7715 13.4229V17.7374L20.7368 15.5808L16.7715 13.4229Z" fill="url(#paint9_linear_247_100)"/>
<path d="M12.8047 15.5808L16.77 17.7374V13.4229L12.8047 15.5808Z" fill="url(#paint10_linear_247_100)"/>
<path d="M16.77 13.4226L12.8047 11.2646V15.5805L16.77 13.4226Z" fill="url(#paint11_linear_247_100)"/>
<path d="M16.7684 10.583L14.1582 12.0031V14.8434L16.7684 16.2635L19.3786 14.8434V12.0031L16.7684 10.583Z" fill="url(#paint12_linear_247_100)"/>
<path d="M11.2754 13.4229V29.4311L16.7682 32.4197L22.261 29.4311V13.4229H11.2754Z" fill="url(#paint13_linear_247_100)"/>
<path d="M1.45064 15.4956L15.1971 22.9741V13.5531L-0.000244141 5.28516V13.1287C-0.000244141 14.1051 0.552733 15.008 1.45064 15.4969V15.4956Z" fill="url(#paint14_linear_247_100)"/>
<path d="M18.3396 13.5531V22.9754L32.086 15.4969C32.9839 15.008 33.5369 14.1064 33.5369 13.1287V5.28516L18.3396 13.5531Z" fill="url(#paint15_linear_247_100)"/>
<path d="M29.8362 17.5539V9.29109C29.8362 7.4479 28.7932 5.74401 27.0987 4.82306L19.5062 0.691681C17.8117 -0.23056 15.7257 -0.23056 14.0312 0.691681L6.43868 4.82306C4.74416 5.7453 3.70117 7.4479 3.70117 9.29109V17.5539C3.70117 19.397 4.74416 21.1009 6.43868 22.0219L14.0312 26.1533C15.7257 27.0755 17.8117 27.0755 19.5062 26.1533L27.0987 22.0219C28.7932 21.0996 29.8362 19.397 29.8362 17.5539Z" fill="#323F54"/>
<path d="M16.7683 24.909C16.1688 24.909 15.5775 24.7594 15.0573 24.4769L7.46485 20.3455C6.40954 19.7716 5.75391 18.701 5.75391 17.553V9.29154C5.75391 8.14358 6.40954 7.07301 7.46485 6.49903L15.0573 2.36765C15.5775 2.08517 16.1688 1.93555 16.7683 1.93555C17.3678 1.93555 17.9605 2.08517 18.4792 2.36765L26.0717 6.49903C27.127 7.07301 27.7827 8.14358 27.7827 9.29154V17.5543C27.7827 18.7023 27.127 19.7728 26.0717 20.3468L18.4792 24.4782C17.9605 24.7607 17.3678 24.9103 16.7683 24.9103V24.909Z" fill="url(#paint16_linear_247_100)"/>
<path style="mix-blend-mode:screen" d="M16.7684 23.3625C16.4563 23.3625 16.1483 23.2851 15.8787 23.1381L8.28618 19.0067C7.7373 18.7088 7.39648 18.1515 7.39648 17.5543V9.29158C7.39648 8.69438 7.7373 8.13846 8.28618 7.83921L15.8787 3.70783C16.1483 3.56079 16.4563 3.4834 16.7684 3.4834C17.0804 3.4834 17.3884 3.56079 17.658 3.70783L25.2519 7.83921C25.8008 8.13717 26.1416 8.69438 26.1416 9.29158V17.5543C26.1416 18.1515 25.8008 18.7075 25.2519 19.0067L17.6594 23.1381C17.3898 23.2851 17.0818 23.3625 16.7697 23.3625H16.7684Z" fill="url(#paint17_linear_247_100)"/>
<path style="mix-blend-mode:multiply" opacity="0.3" d="M11.7773 16.1385V10.7057L16.7692 7.98926L21.7611 10.7057V16.1385L16.7692 18.8549L11.7773 16.1385Z" fill="url(#paint18_linear_247_100)"/>
<path d="M12.4473 15.7736V11.0708L16.7684 8.7207L21.0896 11.0708V15.7736L16.7684 18.1237L12.4473 15.7736Z" fill="#1C212E"/>
<path d="M16.77 9.1084L12.8047 11.265L16.77 13.4229V9.1084Z" fill="url(#paint19_linear_247_100)"/>
<path d="M16.7715 13.4229L20.7368 11.265L16.7715 9.1084V13.4229Z" fill="url(#paint20_linear_247_100)"/>
<path d="M16.7715 13.4226L20.7368 15.5805V11.2646L16.7715 13.4226Z" fill="url(#paint21_linear_247_100)"/>
<path d="M16.7715 13.4229V17.7374L20.7368 15.5808L16.7715 13.4229Z" fill="url(#paint22_linear_247_100)"/>
<path d="M12.8047 15.5808L16.77 17.7374V13.4229L12.8047 15.5808Z" fill="url(#paint23_linear_247_100)"/>
<path d="M16.77 13.4226L12.8047 11.2646V15.5805L16.77 13.4226Z" fill="url(#paint24_linear_247_100)"/>
<path d="M16.7684 10.583L14.1582 12.0031V14.8434L16.7684 16.2635L19.3786 14.8434V12.0031L16.7684 10.583Z" fill="url(#paint25_linear_247_100)"/>
<path d="M11.2754 13.4229V29.4311L16.7682 32.4197L22.261 29.4311V13.4229H11.2754Z" fill="url(#paint26_linear_247_100)"/>
<path d="M1.45064 15.4956L15.1971 22.9741V13.5531L-0.000244141 5.28516V13.1287C-0.000244141 14.1051 0.552733 15.008 1.45064 15.4969V15.4956Z" fill="url(#paint27_linear_247_100)"/>
<path d="M18.3396 13.5531V22.9754L32.086 15.4969C32.9839 15.008 33.5369 14.1064 33.5369 13.1287V5.28516L18.3396 13.5531Z" fill="url(#paint28_linear_247_100)"/>
<path d="M29.8362 17.5539V9.29109C29.8362 7.4479 28.7932 5.74401 27.0987 4.82306L19.5062 0.691681C17.8117 -0.23056 15.7257 -0.23056 14.0312 0.691681L6.43868 4.82306C4.74416 5.7453 3.70117 7.4479 3.70117 9.29109V17.5539C3.70117 19.397 4.74416 21.1009 6.43868 22.0219L14.0312 26.1533C15.7257 27.0755 17.8117 27.0755 19.5062 26.1533L27.0987 22.0219C28.7932 21.0996 29.8362 19.397 29.8362 17.5539Z" fill="#323F54"/>
<path d="M16.7683 24.909C16.1688 24.909 15.5775 24.7594 15.0573 24.4769L7.46485 20.3455C6.40954 19.7716 5.75391 18.701 5.75391 17.553V9.29154C5.75391 8.14358 6.40954 7.07301 7.46485 6.49903L15.0573 2.36765C15.5775 2.08517 16.1688 1.93555 16.7683 1.93555C17.3678 1.93555 17.9605 2.08517 18.4792 2.36765L26.0717 6.49903C27.127 7.07301 27.7827 8.14358 27.7827 9.29154V17.5543C27.7827 18.7023 27.127 19.7728 26.0717 20.3468L18.4792 24.4782C17.9605 24.7607 17.3678 24.9103 16.7683 24.9103V24.909Z" fill="url(#paint29_linear_247_100)"/>
<path style="mix-blend-mode:screen" d="M16.7684 23.3625C16.4563 23.3625 16.1483 23.2851 15.8787 23.1381L8.28618 19.0067C7.7373 18.7088 7.39648 18.1515 7.39648 17.5543V9.29158C7.39648 8.69438 7.7373 8.13846 8.28618 7.83921L15.8787 3.70783C16.1483 3.56079 16.4563 3.4834 16.7684 3.4834C17.0804 3.4834 17.3884 3.56079 17.658 3.70783L25.2519 7.83921C25.8008 8.13717 26.1416 8.69438 26.1416 9.29158V17.5543C26.1416 18.1515 25.8008 18.7075 25.2519 19.0067L17.6594 23.1381C17.3898 23.2851 17.0818 23.3625 16.7697 23.3625H16.7684Z" fill="url(#paint30_linear_247_100)"/>
<path style="mix-blend-mode:multiply" opacity="0.3" d="M11.7773 16.1385V10.7057L16.7692 7.98926L21.7611 10.7057V16.1385L16.7692 18.8549L11.7773 16.1385Z" fill="url(#paint31_linear_247_100)"/>
<path d="M12.4473 15.7736V11.0708L16.7684 8.7207L21.0896 11.0708V15.7736L16.7684 18.1237L12.4473 15.7736Z" fill="#1C212E"/>
<path d="M16.77 9.1084L12.8047 11.265L16.77 13.4229V9.1084Z" fill="url(#paint32_linear_247_100)"/>
<path d="M16.7715 13.4229L20.7368 11.265L16.7715 9.1084V13.4229Z" fill="url(#paint33_linear_247_100)"/>
<path d="M16.7715 13.4226L20.7368 15.5805V11.2646L16.7715 13.4226Z" fill="url(#paint34_linear_247_100)"/>
<path d="M16.7715 13.4229V17.7374L20.7368 15.5808L16.7715 13.4229Z" fill="url(#paint35_linear_247_100)"/>
<path d="M12.8047 15.5808L16.77 17.7374V13.4229L12.8047 15.5808Z" fill="url(#paint36_linear_247_100)"/>
<path d="M16.77 13.4226L12.8047 11.2646V15.5805L16.77 13.4226Z" fill="url(#paint37_linear_247_100)"/>
<path d="M16.7684 10.583L14.1582 12.0031V14.8434L16.7684 16.2635L19.3786 14.8434V12.0031L16.7684 10.583Z" fill="url(#paint38_linear_247_100)"/>
<defs>
<linearGradient id="paint0_linear_247_100" x1="16.7682" y1="32.4197" x2="16.7682" y2="13.4229" gradientUnits="userSpaceOnUse">
<stop stop-color="white"/>
<stop offset="0.5" stop-color="#D6E2F5"/>
<stop offset="1" stop-color="#93A6C4"/>
</linearGradient>
<linearGradient id="paint1_linear_247_100" x1="7.59909" y1="5.28516" x2="7.59909" y2="22.9741" gradientUnits="userSpaceOnUse">
<stop stop-color="#D6E2F5"/>
<stop offset="1" stop-color="#93A6C4"/>
</linearGradient>
<linearGradient id="paint2_linear_247_100" x1="25.9376" y1="-2.14565" x2="25.9376" y2="-2.14565" gradientUnits="userSpaceOnUse">
<stop stop-color="#D6E2F5"/>
<stop offset="1" stop-color="#93A6C4"/>
</linearGradient>
<linearGradient id="paint3_linear_247_100" x1="16.7683" y1="1.93555" x2="16.7683" y2="24.909" gradientUnits="userSpaceOnUse">
<stop stop-color="white"/>
<stop offset="0.5" stop-color="#D6E2F5"/>
<stop offset="1" stop-color="#93A6C4"/>
</linearGradient>
<linearGradient id="paint4_linear_247_100" x1="16.7684" y1="3.4834" x2="16.7684" y2="23.3625" gradientUnits="userSpaceOnUse">
<stop stop-color="white"/>
<stop offset="1" stop-color="#93A6C4"/>
</linearGradient>
<linearGradient id="paint5_linear_247_100" x1="16.7692" y1="18.8549" x2="16.7692" y2="7.98926" gradientUnits="userSpaceOnUse">
<stop stop-color="white"/>
<stop offset="1"/>
</linearGradient>
<linearGradient id="paint6_linear_247_100" x1="14.7866" y1="9.1084" x2="14.7866" y2="13.4229" gradientUnits="userSpaceOnUse">
<stop stop-color="white"/>
<stop offset="0.5" stop-color="#D6E2F5"/>
<stop offset="1" stop-color="#93A6C4"/>
</linearGradient>
<linearGradient id="paint7_linear_247_100" x1="18.7548" y1="13.4229" x2="18.7548" y2="9.1084" gradientUnits="userSpaceOnUse">
<stop stop-color="white"/>
<stop offset="0.5" stop-color="#D6E2F5"/>
<stop offset="1" stop-color="#93A6C4"/>
</linearGradient>
<linearGradient id="paint8_linear_247_100" x1="18.7548" y1="15.5805" x2="18.7548" y2="11.2646" gradientUnits="userSpaceOnUse">
<stop stop-color="white"/>
<stop offset="0.5" stop-color="#D6E2F5"/>
<stop offset="1" stop-color="#93A6C4"/>
</linearGradient>
<linearGradient id="paint9_linear_247_100" x1="18.7548" y1="17.7374" x2="18.7548" y2="13.4229" gradientUnits="userSpaceOnUse">
<stop stop-color="white"/>
<stop offset="0.5" stop-color="#D6E2F5"/>
<stop offset="1" stop-color="#93A6C4"/>
</linearGradient>
<linearGradient id="paint10_linear_247_100" x1="14.7866" y1="13.4229" x2="14.7866" y2="17.7374" gradientUnits="userSpaceOnUse">
<stop stop-color="white"/>
<stop offset="0.5" stop-color="#D6E2F5"/>
<stop offset="1" stop-color="#93A6C4"/>
</linearGradient>
<linearGradient id="paint11_linear_247_100" x1="14.7866" y1="15.5805" x2="14.7866" y2="11.2646" gradientUnits="userSpaceOnUse">
<stop stop-color="white"/>
<stop offset="0.5" stop-color="#D6E2F5"/>
<stop offset="1" stop-color="#93A6C4"/>
</linearGradient>
<linearGradient id="paint12_linear_247_100" x1="16.7684" y1="10.583" x2="16.7684" y2="16.2635" gradientUnits="userSpaceOnUse">
<stop stop-color="white"/>
<stop offset="0.5" stop-color="#D6E2F5"/>
<stop offset="1" stop-color="#93A6C4"/>
</linearGradient>
<linearGradient id="paint13_linear_247_100" x1="16.7682" y1="32.4197" x2="16.7682" y2="13.4229" gradientUnits="userSpaceOnUse">
<stop stop-color="white"/>
<stop offset="0.5" stop-color="#D6E2F5"/>
<stop offset="1" stop-color="#93A6C4"/>
</linearGradient>
<linearGradient id="paint14_linear_247_100" x1="7.59909" y1="5.28516" x2="7.59909" y2="22.9741" gradientUnits="userSpaceOnUse">
<stop stop-color="#D6E2F5"/>
<stop offset="1" stop-color="#93A6C4"/>
</linearGradient>
<linearGradient id="paint15_linear_247_100" x1="25.9376" y1="-2.14565" x2="25.9376" y2="-2.14565" gradientUnits="userSpaceOnUse">
<stop stop-color="#D6E2F5"/>
<stop offset="1" stop-color="#93A6C4"/>
</linearGradient>
<linearGradient id="paint16_linear_247_100" x1="16.7683" y1="1.93555" x2="16.7683" y2="24.909" gradientUnits="userSpaceOnUse">
<stop stop-color="white"/>
<stop offset="0.5" stop-color="#D6E2F5"/>
<stop offset="1" stop-color="#93A6C4"/>
</linearGradient>
<linearGradient id="paint17_linear_247_100" x1="16.7684" y1="3.4834" x2="16.7684" y2="23.3625" gradientUnits="userSpaceOnUse">
<stop stop-color="white"/>
<stop offset="1" stop-color="#93A6C4"/>
</linearGradient>
<linearGradient id="paint18_linear_247_100" x1="16.7692" y1="18.8549" x2="16.7692" y2="7.98926" gradientUnits="userSpaceOnUse">
<stop stop-color="white"/>
<stop offset="1"/>
</linearGradient>
<linearGradient id="paint19_linear_247_100" x1="14.7866" y1="9.1084" x2="14.7866" y2="13.4229" gradientUnits="userSpaceOnUse">
<stop stop-color="white"/>
<stop offset="0.5" stop-color="#D6E2F5"/>
<stop offset="1" stop-color="#93A6C4"/>
</linearGradient>
<linearGradient id="paint20_linear_247_100" x1="18.7548" y1="13.4229" x2="18.7548" y2="9.1084" gradientUnits="userSpaceOnUse">
<stop stop-color="white"/>
<stop offset="0.5" stop-color="#D6E2F5"/>
<stop offset="1" stop-color="#93A6C4"/>
</linearGradient>
<linearGradient id="paint21_linear_247_100" x1="18.7548" y1="15.5805" x2="18.7548" y2="11.2646" gradientUnits="userSpaceOnUse">
<stop stop-color="white"/>
<stop offset="0.5" stop-color="#D6E2F5"/>
<stop offset="1" stop-color="#93A6C4"/>
</linearGradient>
<linearGradient id="paint22_linear_247_100" x1="18.7548" y1="17.7374" x2="18.7548" y2="13.4229" gradientUnits="userSpaceOnUse">
<stop stop-color="white"/>
<stop offset="0.5" stop-color="#D6E2F5"/>
<stop offset="1" stop-color="#93A6C4"/>
</linearGradient>
<linearGradient id="paint23_linear_247_100" x1="14.7866" y1="13.4229" x2="14.7866" y2="17.7374" gradientUnits="userSpaceOnUse">
<stop stop-color="white"/>
<stop offset="0.5" stop-color="#D6E2F5"/>
<stop offset="1" stop-color="#93A6C4"/>
</linearGradient>
<linearGradient id="paint24_linear_247_100" x1="14.7866" y1="15.5805" x2="14.7866" y2="11.2646" gradientUnits="userSpaceOnUse">
<stop stop-color="white"/>
<stop offset="0.5" stop-color="#D6E2F5"/>
<stop offset="1" stop-color="#93A6C4"/>
</linearGradient>
<linearGradient id="paint25_linear_247_100" x1="16.7684" y1="10.583" x2="16.7684" y2="16.2635" gradientUnits="userSpaceOnUse">
<stop stop-color="white"/>
<stop offset="0.5" stop-color="#D6E2F5"/>
<stop offset="1" stop-color="#93A6C4"/>
</linearGradient>
<linearGradient id="paint26_linear_247_100" x1="16.7682" y1="32.4197" x2="16.7682" y2="13.4229" gradientUnits="userSpaceOnUse">
<stop stop-color="white"/>
<stop offset="0.5" stop-color="#D6E2F5"/>
<stop offset="1" stop-color="#93A6C4"/>
</linearGradient>
<linearGradient id="paint27_linear_247_100" x1="7.59909" y1="5.28516" x2="7.59909" y2="22.9741" gradientUnits="userSpaceOnUse">
<stop stop-color="#D6E2F5"/>
<stop offset="1" stop-color="#93A6C4"/>
</linearGradient>
<linearGradient id="paint28_linear_247_100" x1="25.9376" y1="-2.14565" x2="25.9376" y2="-2.14565" gradientUnits="userSpaceOnUse">
<stop stop-color="#D6E2F5"/>
<stop offset="1" stop-color="#93A6C4"/>
</linearGradient>
<linearGradient id="paint29_linear_247_100" x1="16.7683" y1="1.93555" x2="16.7683" y2="24.909" gradientUnits="userSpaceOnUse">
<stop stop-color="white"/>
<stop offset="0.5" stop-color="#D6E2F5"/>
<stop offset="1" stop-color="#93A6C4"/>
</linearGradient>
<linearGradient id="paint30_linear_247_100" x1="16.7684" y1="3.4834" x2="16.7684" y2="23.3625" gradientUnits="userSpaceOnUse">
<stop stop-color="white"/>
<stop offset="1" stop-color="#93A6C4"/>
</linearGradient>
<linearGradient id="paint31_linear_247_100" x1="16.7692" y1="18.8549" x2="16.7692" y2="7.98926" gradientUnits="userSpaceOnUse">
<stop stop-color="white"/>
<stop offset="1"/>
</linearGradient>
<linearGradient id="paint32_linear_247_100" x1="14.7866" y1="9.1084" x2="14.7866" y2="13.4229" gradientUnits="userSpaceOnUse">
<stop stop-color="white"/>
<stop offset="0.5" stop-color="#D6E2F5"/>
<stop offset="1" stop-color="#93A6C4"/>
</linearGradient>
<linearGradient id="paint33_linear_247_100" x1="18.7548" y1="13.4229" x2="18.7548" y2="9.1084" gradientUnits="userSpaceOnUse">
<stop stop-color="white"/>
<stop offset="0.5" stop-color="#D6E2F5"/>
<stop offset="1" stop-color="#93A6C4"/>
</linearGradient>
<linearGradient id="paint34_linear_247_100" x1="18.7548" y1="15.5805" x2="18.7548" y2="11.2646" gradientUnits="userSpaceOnUse">
<stop stop-color="white"/>
<stop offset="0.5" stop-color="#D6E2F5"/>
<stop offset="1" stop-color="#93A6C4"/>
</linearGradient>
<linearGradient id="paint35_linear_247_100" x1="18.7548" y1="17.7374" x2="18.7548" y2="13.4229" gradientUnits="userSpaceOnUse">
<stop stop-color="white"/>
<stop offset="0.5" stop-color="#D6E2F5"/>
<stop offset="1" stop-color="#93A6C4"/>
</linearGradient>
<linearGradient id="paint36_linear_247_100" x1="14.7866" y1="13.4229" x2="14.7866" y2="17.7374" gradientUnits="userSpaceOnUse">
<stop stop-color="white"/>
<stop offset="0.5" stop-color="#D6E2F5"/>
<stop offset="1" stop-color="#93A6C4"/>
</linearGradient>
<linearGradient id="paint37_linear_247_100" x1="14.7866" y1="15.5805" x2="14.7866" y2="11.2646" gradientUnits="userSpaceOnUse">
<stop stop-color="white"/>
<stop offset="0.5" stop-color="#D6E2F5"/>
<stop offset="1" stop-color="#93A6C4"/>
</linearGradient>
<linearGradient id="paint38_linear_247_100" x1="16.7684" y1="10.583" x2="16.7684" y2="16.2635" gradientUnits="userSpaceOnUse">
<stop stop-color="white"/>
<stop offset="0.5" stop-color="#D6E2F5"/>
<stop offset="1" stop-color="#93A6C4"/>
</linearGradient>
</defs>
</svg>
